<svg xmlns="http://www.w3.org/2000/svg" viewBox="0 0 815 548.51"><defs><style>.cls-1{opacity:0.7;}.cls-2{fill:red;}.cls-3{fill:#339;}.cls-4{fill:#ff7f00;}.cls-5{fill:#ff0;}.cls-6{fill:lime;}.cls-7{fill:blue;}.cls-8{fill:#c6c;}.cls-9{fill:#fff;}.cls-10{fill:indigo;}.cls-11{fill:#333;}.cls-12{fill:none;stroke:#fff;stroke-miterlimit:10;}</style></defs><title>dag_wms</title><g id="circle8"><g class="cls-1"><circle class="cls-2" cx="340" cy="349.95" r="139"/></g></g><g id="circle9"><g class="cls-1"><circle class="cls-3" cx="553.5" cy="344.45" r="110.5"/></g></g><g id="circle2"><g class="cls-1"><circle class="cls-4" cx="77" cy="245.95" r="77"/></g><g class="cls-1"><circle class="cls-4" cx="154" cy="247.95" r="40"/></g><g class="cls-1"><circle class="cls-4" cx="208" cy="247.95" r="35"/></g></g><g id="circle4"><g class="cls-1"><circle class="cls-5" cx="288.5" cy="168.45" r="87.5"/></g></g><g id="circle5"><g class="cls-1"><circle class="cls-6" cx="451" cy="156.95" r="96"/></g></g><g id="circle6"><g class="cls-1"><circle class="cls-7" cx="603.5" cy="157.45" r="75.5"/></g></g><g id="circle10"><g class="cls-1"><ellipse class="cls-8" cx="730" cy="344.95" rx="85" ry="81"/></g><path class="cls-9" d="M922.33,519.39a4.73,4.73,0,0,1,1.62,2,7.69,7.69,0,0,1,0,5.66,4.71,4.71,0,0,1-1.62,2,4.46,4.46,0,0,1-2.58.74h-3.93a.75.75,0,0,1-.77-.77v-9.66a.75.75,0,0,1,.22-.55.74.74,0,0,1,.55-.22h3.93A4.39,4.39,0,0,1,922.33,519.39Zm-.29,7.82a5.08,5.08,0,0,0,.82-3,5,5,0,0,0-.83-3,2.79,2.79,0,0,0-2.44-1.17h-3v8.26h3A2.8,2.8,0,0,0,922,527.21Z" transform="translate(-225 -173.05)"/><path class="cls-9" d="M933.83,527.89a4,4,0,0,1-1.53,1.55,4.18,4.18,0,0,1-2.13.56,4.25,4.25,0,0,1-2.14-.56,4.14,4.14,0,0,1-1.53-1.55,4.51,4.51,0,0,1-.56-2.24,4.62,4.62,0,0,1,.56-2.26,4.19,4.19,0,0,1,1.53-1.57,4.25,4.25,0,0,1,2.14-.56,4.18,4.18,0,0,1,2.13.56,4.05,4.05,0,0,1,1.53,1.57,4.51,4.51,0,0,1,.56,2.26A4.41,4.41,0,0,1,933.83,527.89Zm-1.32-3.79a2.66,2.66,0,0,0-1-1.05,2.66,2.66,0,0,0-2.74,0,2.69,2.69,0,0,0-1,1.05,3.28,3.28,0,0,0-.36,1.55,3.19,3.19,0,0,0,.36,1.52,2.76,2.76,0,0,0,1,1.05,2.72,2.72,0,0,0,2.74,0,2.73,2.73,0,0,0,1-1.05,3.19,3.19,0,0,0,.36-1.52A3.28,3.28,0,0,0,932.51,524.1Z" transform="translate(-225 -173.05)"/><path class="cls-9" d="M946.46,521.59a.74.74,0,0,1,.22.55,1.1,1.1,0,0,1-.06.31l-2.45,6.91a.71.71,0,0,1-.32.38.74.74,0,0,1-.48.1.78.78,0,0,1-.66-.48L941.05,525l-1.54,4.35a.71.71,0,0,1-.27.34.8.8,0,0,1-.38.14.76.76,0,0,1-.48-.1.68.68,0,0,1-.31-.38l-2.48-6.91a1.06,1.06,0,0,1-.05-.31.76.76,0,0,1,.21-.54.71.71,0,0,1,.55-.22.67.67,0,0,1,.7.48l1.9,5.39,1.52-4a.71.71,0,0,1,.71-.48.64.64,0,0,1,.65.48l1.56,3.92,1.87-5.32a.78.78,0,0,1,1.25-.27Z" transform="translate(-225 -173.05)"/><path class="cls-9" d="M955.48,524.72v4.35a.74.74,0,0,1-.22.55.71.71,0,0,1-.55.22.69.69,0,0,1-.53-.22.74.74,0,0,1-.22-.55v-4.33a2.42,2.42,0,0,0-.43-1.51,1.68,1.68,0,0,0-1.41-.56A2.49,2.49,0,0,0,951,523a2.2,2.2,0,0,0-.82.75,2,2,0,0,0-.29,1v4.33a.74.74,0,0,1-.22.55.72.72,0,0,1-.55.22.69.69,0,0,1-.54-.22.74.74,0,0,1-.21-.55v-6.85a.76.76,0,0,1,.21-.54.73.73,0,0,1,.54-.22.72.72,0,0,1,.55.22.73.73,0,0,1,.22.54v.56A3.46,3.46,0,0,1,951,521.7a3.07,3.07,0,0,1,1.59-.44C954.52,521.26,955.48,522.42,955.48,524.72Z" transform="translate(-225 -173.05)"/><path class="cls-9" d="M957.13,528.1a.65.65,0,0,1,.33-.55.67.67,0,0,1,.37-.11.74.74,0,0,1,.53.24,3.55,3.55,0,0,0,1,.82,3,3,0,0,0,1.32.27,2.29,2.29,0,0,0,1.07-.28,1,1,0,0,0,0-1.69,5.54,5.54,0,0,0-1.39-.53,11.19,11.19,0,0,1-1.49-.5,2.77,2.77,0,0,1-1-.77,2.28,2.28,0,0,1,0-2.58,2.71,2.71,0,0,1,1.09-.85,3.67,3.67,0,0,1,1.48-.31,4.36,4.36,0,0,1,1.53.29,2.87,2.87,0,0,1,1.24.88.71.71,0,0,1,.19.47.67.67,0,0,1-.25.49.57.57,0,0,1-.4.15.6.6,0,0,1-.47-.2,2.33,2.33,0,0,0-.82-.59,2.74,2.74,0,0,0-1.08-.21,2,2,0,0,0-1,.25.89.89,0,0,0-.43.84.91.91,0,0,0,.49.83,5.75,5.75,0,0,0,1.45.53,9.56,9.56,0,0,1,1.41.48,2.55,2.55,0,0,1,.94.76,2.11,2.11,0,0,1,.38,1.32,2.06,2.06,0,0,1-.43,1.31,2.75,2.75,0,0,1-1.13.84,3.66,3.66,0,0,1-1.48.3,4.93,4.93,0,0,1-1.86-.35,3.58,3.58,0,0,1-1.45-1.12A.87.87,0,0,1,957.13,528.1Z" transform="translate(-225 -173.05)"/><path class="cls-9" d="M967.66,522.94v4.77c0,.54.24.8.72.8a1.53,1.53,0,0,0,.3,0,1.11,1.11,0,0,1,.3-.06.45.45,0,0,1,.36.18.68.68,0,0,1,.14.44.69.69,0,0,1-.38.58,1.63,1.63,0,0,1-.87.24,4.23,4.23,0,0,1-1-.11,1.49,1.49,0,0,1-.78-.57,2.28,2.28,0,0,1-.34-1.38v-4.84h-.93a.67.67,0,0,1-.51-.2.72.72,0,0,1,0-1,.75.75,0,0,1,.51-.19h.93v-1.34a.77.77,0,0,1,.21-.55.74.74,0,0,1,.55-.22.72.72,0,0,1,.54.22.78.78,0,0,1,.22.55v1.34H969a.71.71,0,0,1,.51.2.69.69,0,0,1,.2.51.66.66,0,0,1-.2.49.7.7,0,0,1-.51.19Z" transform="translate(-225 -173.05)"/><path class="cls-9" d="M976.36,521.48a.63.63,0,0,1,.3.54.76.76,0,0,1-.2.58.66.66,0,0,1-.49.2,1.44,1.44,0,0,1-.43-.1,1.93,1.93,0,0,0-.52-.11,1.61,1.61,0,0,0-1,.35,2.49,2.49,0,0,0-.77.94,3,3,0,0,0-.3,1.34v3.85a.77.77,0,0,1-.21.55.75.75,0,0,1-.56.22.7.7,0,0,1-.54-.22.74.74,0,0,1-.21-.55v-6.85a.77.77,0,0,1,.22-.54.69.69,0,0,1,.53-.22.75.75,0,0,1,.56.22.76.76,0,0,1,.21.54V523a3.05,3.05,0,0,1,1.06-1.27,2.79,2.79,0,0,1,1.6-.51A1.23,1.23,0,0,1,976.36,521.48Z" transform="translate(-225 -173.05)"/><path class="cls-9" d="M984.84,525.82a.79.79,0,0,1-.53.2h-5.63a2.77,2.77,0,0,0,.89,1.87,2.7,2.7,0,0,0,1.89.7,3,3,0,0,0,1.25-.22,3.12,3.12,0,0,0,.85-.58.94.94,0,0,1,.46-.14.6.6,0,0,1,.46.19.64.64,0,0,1,.18.45.79.79,0,0,1-.32.61,3.71,3.71,0,0,1-1.23.78,4.08,4.08,0,0,1-1.57.32,4.69,4.69,0,0,1-2.28-.54,3.9,3.9,0,0,1-1.52-1.52,4.6,4.6,0,0,1-.53-2.21,4.81,4.81,0,0,1,.55-2.36,4,4,0,0,1,1.45-1.56,3.74,3.74,0,0,1,3.87,0,4,4,0,0,1,1.44,1.46,4.17,4.17,0,0,1,.56,2.08A.7.7,0,0,1,984.84,525.82Zm-5.23-2.64a2.45,2.45,0,0,0-.87,1.56h4.72v-.13a1.9,1.9,0,0,0-.76-1.39,2.37,2.37,0,0,0-1.54-.55A2.43,2.43,0,0,0,979.61,523.18Z" transform="translate(-225 -173.05)"/><path class="cls-9" d="M994.25,521.56a.74.74,0,0,1,.22.57v6.94a.74.74,0,0,1-.22.55.71.71,0,0,1-.55.22.7.7,0,0,1-.54-.22.74.74,0,0,1-.21-.55v-.41a3.49,3.49,0,0,1-1.14,1,3.19,3.19,0,0,1-1.55.39,3.64,3.64,0,0,1-2-.56,3.86,3.86,0,0,1-1.4-1.56,5.31,5.31,0,0,1,0-4.5,4,4,0,0,1,1.39-1.56,3.56,3.56,0,0,1,1.93-.56,3.52,3.52,0,0,1,1.58.36,3.21,3.21,0,0,1,1.16.89v-.38a.78.78,0,0,1,.21-.56.71.71,0,0,1,.54-.23A.75.75,0,0,1,994.25,521.56Zm-2.48,6.65a2.64,2.64,0,0,0,.92-1.06,3.72,3.72,0,0,0,0-3,2.74,2.74,0,0,0-.92-1.07,2.34,2.34,0,0,0-1.33-.39,2.37,2.37,0,0,0-1.34.39,2.53,2.53,0,0,0-.91,1.05,3.67,3.67,0,0,0,0,3,2.62,2.62,0,0,0,.91,1.06,2.44,2.44,0,0,0,1.34.38A2.41,2.41,0,0,0,991.77,528.21Z" transform="translate(-225 -173.05)"/><path class="cls-9" d="M1009.14,524.8v4.27a.77.77,0,0,1-.2.55.71.71,0,0,1-.55.22.72.72,0,0,1-.55-.22.78.78,0,0,1-.22-.55v-4.25c0-1.4-.58-2.1-1.76-2.1a2.28,2.28,0,0,0-1.13.28,2.11,2.11,0,0,0-.78.76,2,2,0,0,0-.28,1.06v4.25a.77.77,0,0,1-.21.55.75.75,0,0,1-.56.22.7.7,0,0,1-.54-.22.74.74,0,0,1-.21-.55V524.8a2.55,2.55,0,0,0-.4-1.51,1.51,1.51,0,0,0-1.33-.57,2.14,2.14,0,0,0-1.56.6,2,2,0,0,0-.61,1.48v4.27a.78.78,0,0,1-.22.55.72.72,0,0,1-.55.22.67.67,0,0,1-.54-.22.74.74,0,0,1-.21-.55v-6.85a.76.76,0,0,1,.21-.54.73.73,0,0,1,.54-.22.72.72,0,0,1,.55.22.77.77,0,0,1,.22.54v.56a3.37,3.37,0,0,1,1.11-1,2.79,2.79,0,0,1,1.51-.43,2.47,2.47,0,0,1,2.58,1.76,3.27,3.27,0,0,1,1.17-1.21,3,3,0,0,1,1.72-.55Q1009.15,521.31,1009.14,524.8Z" transform="translate(-225 -173.05)"/><path class="cls-9" d="M925.93,548.35a.68.68,0,0,1-.22.53.69.69,0,0,1-.5.21.68.68,0,0,1-.41-.14,1,1,0,0,1-.3-.37l-1-2.36h-4.94l-1,2.37a.68.68,0,0,1-.26.37.74.74,0,0,1-.41.13.69.69,0,0,1-.51-.18.65.65,0,0,1-.18-.48,1.93,1.93,0,0,1,0-.25l4.08-9.89a.89.89,0,0,1,.32-.39.64.64,0,0,1,.45-.11.71.71,0,0,1,.43.13.75.75,0,0,1,.28.37l4.06,9.76A1,1,0,0,1,925.93,548.35Zm-6.75-3.58h3.72L921,540.29Z" transform="translate(-225 -173.05)"/><path class="cls-9" d="M933.53,541.06a3.78,3.78,0,0,1,1.38,1.55,5.15,5.15,0,0,1,0,4.47,3.75,3.75,0,0,1-1.38,1.54,3.49,3.49,0,0,1-1.94.56,3.43,3.43,0,0,1-1.55-.36,3.87,3.87,0,0,1-1.17-.9v3.55a.77.77,0,0,1-.21.55.74.74,0,0,1-.55.22.7.7,0,0,1-.54-.22.71.71,0,0,1-.22-.55V541.41a.78.78,0,0,1,.21-.56.72.72,0,0,1,.55-.23.75.75,0,0,1,.55.23.78.78,0,0,1,.21.56v.46a3.25,3.25,0,0,1,1.12-1,3.33,3.33,0,0,1,1.57-.4A3.7,3.7,0,0,1,933.53,541.06Zm-.82,6.33a2.48,2.48,0,0,0,.92-1,3.55,3.55,0,0,0,0-3,2.6,2.6,0,0,0-.92-1.05,2.41,2.41,0,0,0-1.33-.38,2.38,2.38,0,0,0-1.34.38,2.58,2.58,0,0,0-.92,1,3.6,3.6,0,0,0,0,3,2.55,2.55,0,0,0,.92,1,2.46,2.46,0,0,0,1.34.38A2.34,2.34,0,0,0,932.71,547.39Z" transform="translate(-225 -173.05)"/><path class="cls-9" d="M943.35,541.06a3.87,3.87,0,0,1,1.39,1.55,5.25,5.25,0,0,1,0,4.47,3.85,3.85,0,0,1-1.39,1.54,3.45,3.45,0,0,1-1.93.56,3.4,3.4,0,0,1-1.55-.36,3.75,3.75,0,0,1-1.17-.9v3.55a.78.78,0,0,1-.22.55.79.79,0,0,1-1.09,0,.74.74,0,0,1-.21-.55V541.41a.82.82,0,0,1,.2-.56.77.77,0,0,1,1.1,0,.79.79,0,0,1,.22.56v.46a3.16,3.16,0,0,1,1.12-1,3.29,3.29,0,0,1,1.56-.4A3.67,3.67,0,0,1,943.35,541.06Zm-.81,6.33a2.55,2.55,0,0,0,.92-1,3.55,3.55,0,0,0,0-3,2.68,2.68,0,0,0-.92-1.05,2.46,2.46,0,0,0-1.33-.38,2.36,2.36,0,0,0-1.34.38,2.45,2.45,0,0,0-.92,1,3.6,3.6,0,0,0,0,3,2.46,2.46,0,0,0,2.26,1.43A2.38,2.38,0,0,0,942.54,547.39Z" transform="translate(-225 -173.05)"/><path class="cls-9" d="M948.43,548.82a.8.8,0,0,1-.55.22.75.75,0,0,1-.75-.77V538a.74.74,0,0,1,.22-.55.78.78,0,0,1,.55-.22.75.75,0,0,1,.75.77v10.3A.78.78,0,0,1,948.43,548.82Z" transform="translate(-225 -173.05)"/><path class="cls-9" d="M951.06,539.35a.63.63,0,0,1-.2-.53v-.26a.62.62,0,0,1,.21-.54,1.12,1.12,0,0,1,.67-.16,1,1,0,0,1,.64.16.65.65,0,0,1,.2.54v.26a.64.64,0,0,1-.2.54,1.07,1.07,0,0,1-.66.16A1,1,0,0,1,951.06,539.35Zm1.21,9.47a.75.75,0,0,1-.55.22.75.75,0,0,1-.75-.77v-6.93a.73.73,0,0,1,.22-.54.69.69,0,0,1,.53-.22.71.71,0,0,1,.55.22.73.73,0,0,1,.22.54v6.93A.74.74,0,0,1,952.27,548.82Z" transform="translate(-225 -173.05)"/><path class="cls-9" d="M960.43,540.86c.56.27.84.61.84,1a.81.81,0,0,1-.17.49.57.57,0,0,1-.45.21.75.75,0,0,1-.33-.06,2.7,2.7,0,0,1-.33-.21,1.45,1.45,0,0,0-.3-.22,1.82,1.82,0,0,0-.55-.16,3,3,0,0,0-.64-.07,2.78,2.78,0,0,0-1.47.39,2.67,2.67,0,0,0-1,1.06,3.5,3.5,0,0,0,0,3,2.61,2.61,0,0,0,1,1.06,2.72,2.72,0,0,0,1.42.38,3,3,0,0,0,1.35-.25l.3-.21a1.54,1.54,0,0,1,.28-.19.56.56,0,0,1,.3-.07.65.65,0,0,1,.5.2.73.73,0,0,1,.19.52.88.88,0,0,1-.43.67,3.61,3.61,0,0,1-1.13.53,5.44,5.44,0,0,1-1.53.21,4,4,0,0,1-2.14-.57,3.83,3.83,0,0,1-1.44-1.57,4.94,4.94,0,0,1-.5-2.23,4.62,4.62,0,0,1,.53-2.23,3.91,3.91,0,0,1,1.47-1.57,4.1,4.1,0,0,1,2.16-.57A5,5,0,0,1,960.43,540.86Z" transform="translate(-225 -173.05)"/><path class="cls-9" d="M970.26,540.76a.77.77,0,0,1,.21.57v6.94a.77.77,0,0,1-.21.55.78.78,0,0,1-.55.22.71.71,0,0,1-.55-.22.74.74,0,0,1-.21-.55v-.41a3.35,3.35,0,0,1-1.13.95,3.22,3.22,0,0,1-1.56.39,3.64,3.64,0,0,1-2-.56,3.77,3.77,0,0,1-1.39-1.56,5.22,5.22,0,0,1,0-4.5,3.87,3.87,0,0,1,1.38-1.56,3.57,3.57,0,0,1,1.94-.56,3.48,3.48,0,0,1,1.57.36,3.21,3.21,0,0,1,1.16.89v-.38a.78.78,0,0,1,.21-.56.72.72,0,0,1,.55-.23A.78.78,0,0,1,970.26,540.76Zm-2.48,6.65a2.62,2.62,0,0,0,.91-1.06,3.62,3.62,0,0,0,0-3,2.72,2.72,0,0,0-.91-1.07,2.5,2.5,0,0,0-2.68,0,2.53,2.53,0,0,0-.91,1,3.77,3.77,0,0,0,0,3,2.62,2.62,0,0,0,.91,1.06,2.55,2.55,0,0,0,2.68,0Z" transform="translate(-225 -173.05)"/><path class="cls-9" d="M975,542.14v4.77c0,.54.24.8.72.8a1.6,1.6,0,0,0,.31-.05,1,1,0,0,1,.3-.06.44.44,0,0,1,.35.18.63.63,0,0,1,.14.44.67.67,0,0,1-.38.58,1.59,1.59,0,0,1-.86.24,4.11,4.11,0,0,1-1-.11,1.52,1.52,0,0,1-.79-.57,2.36,2.36,0,0,1-.34-1.38v-4.84h-.93a.65.65,0,0,1-.5-.2.73.73,0,0,1,0-1,.72.72,0,0,1,.5-.19h.93v-1.34a.75.75,0,0,1,.22-.55.72.72,0,0,1,.55-.22.73.73,0,0,1,.54.22.79.79,0,0,1,.21.55v1.34h1.33a.69.69,0,0,1,.5.2.67.67,0,0,1,.2.51.63.63,0,0,1-.2.49.68.68,0,0,1-.5.19Z" transform="translate(-225 -173.05)"/><path class="cls-9" d="M978.82,539.35a.63.63,0,0,1-.2-.53v-.26a.62.62,0,0,1,.21-.54,1.12,1.12,0,0,1,.67-.16,1,1,0,0,1,.64.16.65.65,0,0,1,.2.54v.26a.64.64,0,0,1-.2.54,1.07,1.07,0,0,1-.66.16A1,1,0,0,1,978.82,539.35Zm1.21,9.47a.75.75,0,0,1-.55.22.75.75,0,0,1-.75-.77v-6.93a.73.73,0,0,1,.22-.54.69.69,0,0,1,.53-.22.71.71,0,0,1,.55.22.73.73,0,0,1,.22.54v6.93A.74.74,0,0,1,980,548.82Z" transform="translate(-225 -173.05)"/><path class="cls-9" d="M989.82,547.09a4.14,4.14,0,0,1-1.53,1.55,4.25,4.25,0,0,1-2.14.56,4.18,4.18,0,0,1-2.13-.56,4,4,0,0,1-1.53-1.55,4.51,4.51,0,0,1-.56-2.24,4.62,4.62,0,0,1,.56-2.26A4.05,4.05,0,0,1,984,541a4.18,4.18,0,0,1,2.13-.56,4.25,4.25,0,0,1,2.14.56,4.19,4.19,0,0,1,1.53,1.57,4.62,4.62,0,0,1,.56,2.26A4.51,4.51,0,0,1,989.82,547.09Zm-1.32-3.79a2.69,2.69,0,0,0-1-1,2.59,2.59,0,0,0-1.37-.38,2.56,2.56,0,0,0-1.36.38,2.62,2.62,0,0,0-1,1,3.28,3.28,0,0,0-.36,1.55,3.19,3.19,0,0,0,.36,1.52,2.62,2.62,0,0,0,1,1,2.55,2.55,0,0,0,1.36.37,2.58,2.58,0,0,0,1.37-.37,2.69,2.69,0,0,0,1-1,3.19,3.19,0,0,0,.36-1.52A3.28,3.28,0,0,0,988.5,543.3Z" transform="translate(-225 -173.05)"/><path class="cls-9" d="M999.29,543.92v4.35a.74.74,0,0,1-.22.55.76.76,0,0,1-.55.22.74.74,0,0,1-.75-.77v-4.33a2.48,2.48,0,0,0-.43-1.51,1.68,1.68,0,0,0-1.41-.56,2.37,2.37,0,0,0-1.16.28,2.2,2.2,0,0,0-.82.75,1.9,1.9,0,0,0-.29,1v4.33a.78.78,0,0,1-.22.55.76.76,0,0,1-.55.22.71.71,0,0,1-.55-.22.77.77,0,0,1-.2-.55v-6.85a.76.76,0,0,1,.21-.54.79.79,0,0,1,1.09,0,.77.77,0,0,1,.22.54V542a3.46,3.46,0,0,1,1.16-1.08,3.07,3.07,0,0,1,1.59-.44C998.33,540.46,999.29,541.62,999.29,543.92Z" transform="translate(-225 -173.05)"/><path class="cls-9" d="M1000.94,547.3a.65.65,0,0,1,.33-.55.67.67,0,0,1,.37-.11.74.74,0,0,1,.53.24,3.55,3.55,0,0,0,1,.82,3,3,0,0,0,1.32.27,2.29,2.29,0,0,0,1.07-.28,1,1,0,0,0,0-1.69,5.3,5.3,0,0,0-1.38-.53,11.19,11.19,0,0,1-1.49-.5,2.69,2.69,0,0,1-1-.77,2.23,2.23,0,0,1,0-2.58,2.65,2.65,0,0,1,1.09-.85,3.63,3.63,0,0,1,1.48-.31,4.36,4.36,0,0,1,1.53.29,2.93,2.93,0,0,1,1.24.88.71.71,0,0,1,.19.47.69.69,0,0,1-.26.49.55.55,0,0,1-.4.15.6.6,0,0,1-.46-.2,2.33,2.33,0,0,0-.82-.59,2.74,2.74,0,0,0-1.08-.21,2.11,2.11,0,0,0-1,.25,1,1,0,0,0,.07,1.67,5.61,5.61,0,0,0,1.45.53,9,9,0,0,1,1.4.48,2.51,2.51,0,0,1,.95.76,2.17,2.17,0,0,1,.38,1.32,2.06,2.06,0,0,1-.43,1.31,2.75,2.75,0,0,1-1.13.84,3.66,3.66,0,0,1-1.48.3,4.93,4.93,0,0,1-1.86-.35,3.52,3.52,0,0,1-1.45-1.12A.78.78,0,0,1,1000.94,547.3Z" transform="translate(-225 -173.05)"/></g><g id="circle7"><g class="cls-1"><circle class="cls-10" cx="739.5" cy="157.45" r="75.5"/></g></g><g id="bar"><path class="cls-11" d="M1039,501c-133-.08-268.14-16.3-398.88-32s-266-31.93-399.12-32V407c133,.08,268.14,16.3,398.88,32s266,31.93,399.12,32Z" transform="translate(-225 -173.05)"/><path class="cls-9" d="M242,408c132.57.16,267.37,16.34,397.76,32S905.19,471.84,1038,472v28c-132.57-.16-267.37-16.34-397.76-32S374.81,436.16,242,436V408m-2-2v32c266.67,0,533.33,64,800,64V470c-266.67,0-533.33-64-800-64Z" transform="translate(-225 -173.05)"/><path class="cls-11" d="M241,407c133.07-.08,268.32-16.31,399.12-32S906.05,343.08,1039,343v30c-133.07.08-268.32,16.31-399.12,32S374,436.92,241,437Z" transform="translate(-225 -173.05)"/><path class="cls-9" d="M1038,344v28c-132.81.16-267.73,16.35-398.24,32S374.57,435.84,242,436V408c132.81-.16,267.73-16.35,398.24-32S905.43,344.16,1038,344m2-2c-266.67,0-533.33,64-800,64v32c266.67,0,533.33-64,800-64V342Z" transform="translate(-225 -173.05)"/></g><g id="text"><g id="arrow"><line class="cls-9" x1="27" y1="248.45" x2="127" y2="248.45"/><line class="cls-12" x1="27" y1="248.45" x2="125.92" y2="248.45"/><polygon class="cls-9" points="122.6 252.54 121.92 251.81 125.53 248.45 121.92 245.1 122.6 244.36 127 248.45 122.6 252.54"/></g><path d="M467.67,175.09a6.92,6.92,0,0,1,2.42,3,11.42,11.42,0,0,1,0,8.5,6.84,6.84,0,0,1-2.42,3,6.59,6.59,0,0,1-3.87,1.12h-5.9a1.14,1.14,0,0,1-1.15-1.15v-14.5A1.14,1.14,0,0,1,457.9,174h5.9A6.6,6.6,0,0,1,467.67,175.09Zm-.44,11.72a8.62,8.62,0,0,0,0-8.89,4.17,4.17,0,0,0-3.66-1.75h-4.44v12.38h4.44A4.18,4.18,0,0,0,467.23,186.81Z" transform="translate(-225 -173.05)"/><path d="M481,178.22a1,1,0,0,1,.46.8,1.19,1.19,0,0,1-.3.88,1,1,0,0,1-.73.3,2.38,2.38,0,0,1-.65-.14,2.18,2.18,0,0,0-2.25.34,3.89,3.89,0,0,0-1.15,1.42,4.41,4.41,0,0,0-.44,2v5.79a1.1,1.1,0,0,1-.33.81,1.07,1.07,0,0,1-.83.34,1.1,1.1,0,0,1-.81-.32,1.16,1.16,0,0,1-.31-.83V179.34a1.12,1.12,0,0,1,.32-.82,1.09,1.09,0,0,1,.8-.34,1.11,1.11,0,0,1,.83.34,1.12,1.12,0,0,1,.33.82v1.22a4.59,4.59,0,0,1,1.58-1.91,4.17,4.17,0,0,1,2.4-.75A1.77,1.77,0,0,1,481,178.22Z" transform="translate(-225 -173.05)"/><path d="M494.32,178.34a1.14,1.14,0,0,1,.32.85v10.42a1.13,1.13,0,0,1-1.15,1.15,1.11,1.11,0,0,1-.82-.32,1.2,1.2,0,0,1-.31-.83V189a5,5,0,0,1-1.7,1.43,4.83,4.83,0,0,1-2.33.59,5.41,5.41,0,0,1-3-.84,5.73,5.73,0,0,1-2.09-2.34,7.85,7.85,0,0,1,0-6.74,5.75,5.75,0,0,1,2.07-2.34,5.53,5.53,0,0,1,5.27-.32,4.89,4.89,0,0,1,1.74,1.35v-.58a1.24,1.24,0,0,1,.31-.84,1.08,1.08,0,0,1,.82-.33A1.11,1.11,0,0,1,494.32,178.34Zm-3.72,10a3.92,3.92,0,0,0,1.37-1.58,5.5,5.5,0,0,0,0-4.54,4,4,0,0,0-1.37-1.59,3.47,3.47,0,0,0-2-.59,3.57,3.57,0,0,0-2,.57,4,4,0,0,0-1.37,1.59,5.55,5.55,0,0,0,0,4.56,3.92,3.92,0,0,0,1.37,1.58,3.76,3.76,0,0,0,4,0Z" transform="translate(-225 -173.05)"/><path d="M502.24,175.54a1.87,1.87,0,0,0-.37,1.18v1.68h2.37a1.06,1.06,0,0,1,.78.3,1,1,0,0,1,.3.76,1,1,0,0,1-.3.74,1.09,1.09,0,0,1-.78.29h-2.37v9.12a1.1,1.1,0,0,1-.33.81,1.15,1.15,0,0,1-1.63,0,1.13,1.13,0,0,1-.32-.81v-9.12H498.1a1.1,1.1,0,0,1-.77-.29,1,1,0,0,1-.31-.74,1,1,0,0,1,.31-.76,1.06,1.06,0,0,1,.77-.3h1.49v-1.68a3.48,3.48,0,0,1,1.08-2.68,4.34,4.34,0,0,1,3.05-1,3.31,3.31,0,0,1,1.44.3,1,1,0,0,1,.62.9,1,1,0,0,1-.28.75.85.85,0,0,1-.66.3,3.86,3.86,0,0,1-.52-.09,3.49,3.49,0,0,0-.92-.15A1.38,1.38,0,0,0,502.24,175.54Z" transform="translate(-225 -173.05)"/><path d="M510.87,180.42v7.15q0,1.2,1.08,1.2a1.6,1.6,0,0,0,.45-.09,2,2,0,0,1,.46-.08.68.68,0,0,1,.53.26,1.06,1.06,0,0,1,.21.68,1,1,0,0,1-.57.86,2.42,2.42,0,0,1-1.3.36,6,6,0,0,1-1.45-.17,2.15,2.15,0,0,1-1.18-.85,3.48,3.48,0,0,1-.51-2.08v-7.24h-1.4a1,1,0,0,1-.75-.3,1,1,0,0,1-.3-.76,1,1,0,0,1,.3-.74,1,1,0,0,1,.75-.29h1.4v-2a1.13,1.13,0,0,1,1.15-1.15,1,1,0,0,1,.8.34,1.1,1.1,0,0,1,.33.81v2h2a1,1,0,0,1,1.06,1,1,1,0,0,1-.31.75,1.05,1.05,0,0,1-.75.29Z" transform="translate(-225 -173.05)"/><path d="M536.65,182.26a1.14,1.14,0,0,1,.33.82v5.4a1.13,1.13,0,0,1-.58,1A9,9,0,0,1,534,190.6a9.22,9.22,0,0,1-2.71.4,8.69,8.69,0,0,1-4.41-1.15,8.64,8.64,0,0,1,0-15,8.69,8.69,0,0,1,4.41-1.15,10.29,10.29,0,0,1,2.31.26,7,7,0,0,1,2,.8,1.19,1.19,0,0,1,.43.4,1.08,1.08,0,0,1,.14.53,1.2,1.2,0,0,1-.32.83,1,1,0,0,1-.78.35,1.19,1.19,0,0,1-.63-.17,7.46,7.46,0,0,0-3.16-.72,6.1,6.1,0,0,0-3.16.84,6.23,6.23,0,0,0-2.26,2.3,6.45,6.45,0,0,0-.82,3.22,6.31,6.31,0,0,0,3.08,5.51,6,6,0,0,0,3.16.85,8.06,8.06,0,0,0,1.71-.19,6.87,6.87,0,0,0,1.55-.51v-3.81h-2.9a1.12,1.12,0,0,1-.82-.33,1.07,1.07,0,0,1-.34-.8,1.12,1.12,0,0,1,.34-.83,1.16,1.16,0,0,1,.82-.32h4.22A1.06,1.06,0,0,1,536.65,182.26Z" transform="translate(-225 -173.05)"/><path d="M550.59,184.72a1.17,1.17,0,0,1-.8.3h-8.44a4.14,4.14,0,0,0,1.33,2.81,4,4,0,0,0,2.84,1.06,4.34,4.34,0,0,0,1.87-.34,4.71,4.71,0,0,0,1.28-.86,1.3,1.3,0,0,1,.69-.22,1,1,0,0,1,1,1,1.17,1.17,0,0,1-.48.91,5.51,5.51,0,0,1-1.85,1.18,6,6,0,0,1-2.35.48,6.92,6.92,0,0,1-3.42-.82,5.69,5.69,0,0,1-2.28-2.28,6.81,6.81,0,0,1-.8-3.31,7.23,7.23,0,0,1,.83-3.54,6.09,6.09,0,0,1,2.18-2.34,5.66,5.66,0,0,1,5.8,0,6.1,6.1,0,0,1,2.16,2.18A6.32,6.32,0,0,1,551,184,1,1,0,0,1,550.59,184.72Zm-7.85-4a3.75,3.75,0,0,0-1.3,2.34h7.08v-.19a2.94,2.94,0,0,0-1.14-2.09,3.62,3.62,0,0,0-2.31-.81A3.72,3.72,0,0,0,542.74,180.76Z" transform="translate(-225 -173.05)"/><path d="M564.31,183.08v6.53a1.13,1.13,0,0,1-1.15,1.15,1,1,0,0,1-.8-.34,1.1,1.1,0,0,1-.33-.81V183.1a3.6,3.6,0,0,0-.64-2.25,2.52,2.52,0,0,0-2.12-.84,3.61,3.61,0,0,0-1.74.42,3.17,3.17,0,0,0-1.22,1.13,2.79,2.79,0,0,0-.44,1.54v6.51a1.1,1.1,0,0,1-.33.81,1.07,1.07,0,0,1-.83.34,1.1,1.1,0,0,1-.81-.32,1.16,1.16,0,0,1-.31-.83V179.34a1.12,1.12,0,0,1,.32-.82,1.09,1.09,0,0,1,.8-.34,1.11,1.11,0,0,1,.83.34,1.12,1.12,0,0,1,.33.82v.84a5,5,0,0,1,1.74-1.62,4.6,4.6,0,0,1,2.38-.66C562.87,177.9,564.31,179.62,564.31,183.08Z" transform="translate(-225 -173.05)"/><path d="M578.79,187.83a6.13,6.13,0,0,1-2.3,2.33,6.52,6.52,0,0,1-6.4,0,6.13,6.13,0,0,1-2.3-2.33,6.7,6.7,0,0,1-.84-3.36,6.83,6.83,0,0,1,.84-3.38,6,6,0,0,1,2.3-2.35,6.52,6.52,0,0,1,6.4,0,6,6,0,0,1,2.3,2.35,6.83,6.83,0,0,1,.84,3.38A6.7,6.7,0,0,1,578.79,187.83Zm-2-5.67a4,4,0,0,0-1.47-1.59,4,4,0,0,0-4.1,0,4,4,0,0,0-1.47,1.59,4.86,4.86,0,0,0-.54,2.31,4.74,4.74,0,0,0,.54,2.28,4,4,0,0,0,1.47,1.57,4,4,0,0,0,4.1,0,4,4,0,0,0,1.47-1.57,4.74,4.74,0,0,0,.54-2.28A4.86,4.86,0,0,0,576.81,182.16Z" transform="translate(-225 -173.05)"/><path d="M600.89,183.2v6.41a1.16,1.16,0,0,1-.31.83,1.2,1.2,0,0,1-1.65,0,1.13,1.13,0,0,1-.32-.81v-6.39c0-2.09-.88-3.14-2.64-3.14a3.42,3.42,0,0,0-1.69.42,3,3,0,0,0-1.18,1.14,3.09,3.09,0,0,0-.42,1.58v6.39a1.13,1.13,0,0,1-.32.81,1.09,1.09,0,0,1-.83.34,1.11,1.11,0,0,1-.82-.32,1.2,1.2,0,0,1-.31-.83V183.2a3.88,3.88,0,0,0-.6-2.27,2.25,2.25,0,0,0-2-.85,3.23,3.23,0,0,0-2.34.9,3,3,0,0,0-.92,2.22v6.41a1.1,1.1,0,0,1-.33.81,1.07,1.07,0,0,1-.83.34,1.1,1.1,0,0,1-.81-.32,1.16,1.16,0,0,1-.31-.83V179.34a1.12,1.12,0,0,1,.32-.82,1.09,1.09,0,0,1,.8-.34,1.11,1.11,0,0,1,.83.34,1.12,1.12,0,0,1,.33.82v.84a5.24,5.24,0,0,1,1.66-1.58,4.34,4.34,0,0,1,2.27-.63,3.69,3.69,0,0,1,3.87,2.64,5.11,5.11,0,0,1,1.75-1.83,4.6,4.6,0,0,1,2.59-.81Q600.89,178,600.89,183.2Z" transform="translate(-225 -173.05)"/><path d="M615,184.72a1.16,1.16,0,0,1-.79.3h-8.45a4.14,4.14,0,0,0,1.33,2.81,4.05,4.05,0,0,0,2.84,1.06,4.39,4.39,0,0,0,1.88-.34,4.66,4.66,0,0,0,1.27-.86,1.3,1.3,0,0,1,.69-.22.93.93,0,0,1,.69.29,1,1,0,0,1,.27.67,1.17,1.17,0,0,1-.48.91,5.56,5.56,0,0,1-1.84,1.18A6.11,6.11,0,0,1,610,191a6.92,6.92,0,0,1-3.42-.82,5.69,5.69,0,0,1-2.28-2.28,6.81,6.81,0,0,1-.8-3.31,7.35,7.35,0,0,1,.83-3.54,6.09,6.09,0,0,1,2.18-2.34,5.66,5.66,0,0,1,5.8,0,6.1,6.1,0,0,1,2.16,2.18,6.32,6.32,0,0,1,.84,3.12A1,1,0,0,1,615,184.72Zm-7.85-4a3.75,3.75,0,0,0-1.3,2.34h7.08v-.19a2.94,2.94,0,0,0-1.14-2.09,3.62,3.62,0,0,0-2.31-.81A3.74,3.74,0,0,0,607.13,180.76Z" transform="translate(-225 -173.05)"/><path d="M617,188.14a1,1,0,0,1,.51-.81.94.94,0,0,1,.55-.17,1.09,1.09,0,0,1,.79.36,5.12,5.12,0,0,0,1.55,1.22,4.32,4.32,0,0,0,2,.41,3.27,3.27,0,0,0,1.61-.42,1.49,1.49,0,0,0,0-2.53,7.93,7.93,0,0,0-2.07-.79,14.32,14.32,0,0,1-2.23-.76,3.87,3.87,0,0,1-1.5-1.15,3,3,0,0,1-.62-2,3.09,3.09,0,0,1,.62-1.9,4.09,4.09,0,0,1,1.63-1.27,5.44,5.44,0,0,1,2.22-.45,6.36,6.36,0,0,1,2.29.43,4.34,4.34,0,0,1,1.86,1.32,1.05,1.05,0,0,1,.29.69,1,1,0,0,1-.39.75.88.88,0,0,1-.6.21.89.89,0,0,1-.69-.28,3.37,3.37,0,0,0-1.24-.89,4.07,4.07,0,0,0-1.62-.31,3,3,0,0,0-1.55.37,1.35,1.35,0,0,0-.63,1.26,1.4,1.4,0,0,0,.73,1.25,9.66,9.66,0,0,0,2.17.79,12.53,12.53,0,0,1,2.11.72,3.56,3.56,0,0,1,1.42,1.14,3.19,3.19,0,0,1,.58,2,3.08,3.08,0,0,1-.65,1.95,4.18,4.18,0,0,1-1.69,1.28,5.75,5.75,0,0,1-2.22.44,7.35,7.35,0,0,1-2.8-.53,5.14,5.14,0,0,1-2.17-1.68A1.15,1.15,0,0,1,617,188.14Z" transform="translate(-225 -173.05)"/><path d="M649.54,189.26a1.1,1.1,0,0,1,.14.52.88.88,0,0,1-.32.74,1.29,1.29,0,0,1-.78.24,1.42,1.42,0,0,1-.77-.19,3,3,0,0,1-1.18-1.32,6.31,6.31,0,0,1-.45-2.69,2.15,2.15,0,0,0-.72-1.78,3,3,0,0,0-1.88-.57h-4.84v5.4a1.23,1.23,0,0,1-.29.83,1,1,0,0,1-.74.32,1.39,1.39,0,0,1-1-.34,1,1,0,0,1-.4-.81v-14.5a1.16,1.16,0,0,1,1.15-1.15h6.75a4.53,4.53,0,0,1,2.37.64,4.69,4.69,0,0,1,1.73,1.75,4.92,4.92,0,0,1,.65,2.51,4.66,4.66,0,0,1-.72,2.5,4.6,4.6,0,0,1-1.85,1.74,3.63,3.63,0,0,1,1.41,1.28,3.78,3.78,0,0,1,.56,1.89,13,13,0,0,0,.21,1.86,1.06,1.06,0,0,0,.53.71A1.31,1.31,0,0,1,649.54,189.26Zm-4.19-7.52a3.22,3.22,0,0,0,.88-1.17,3.94,3.94,0,0,0,.33-1.64,2.88,2.88,0,0,0-.71-2,2.21,2.21,0,0,0-1.71-.8h-5.4v6.05h5.47A2.2,2.2,0,0,0,645.35,181.74Z" transform="translate(-225 -173.05)"/><path d="M663,184.72a1.15,1.15,0,0,1-.79.3h-8.45a4.18,4.18,0,0,0,1.33,2.81,4.08,4.08,0,0,0,2.85,1.06,4.34,4.34,0,0,0,1.87-.34,4.66,4.66,0,0,0,1.27-.86,1.3,1.3,0,0,1,.7-.22.91.91,0,0,1,.68.29.92.92,0,0,1,.28.67,1.17,1.17,0,0,1-.48.91,5.61,5.61,0,0,1-1.85,1.18A6.06,6.06,0,0,1,658,191a6.87,6.87,0,0,1-3.42-.82,5.56,5.56,0,0,1-2.28-2.28,6.71,6.71,0,0,1-.81-3.31,7.35,7.35,0,0,1,.83-3.54,6,6,0,0,1,2.19-2.34,5.64,5.64,0,0,1,5.79,0,5.94,5.94,0,0,1,2.16,2.18,6.12,6.12,0,0,1,.84,3.12A1,1,0,0,1,663,184.72Zm-7.85-4a3.79,3.79,0,0,0-1.29,2.34h7.08v-.19a2.94,2.94,0,0,0-1.14-2.09,3.62,3.62,0,0,0-2.32-.81A3.76,3.76,0,0,0,655.1,180.76Z" transform="translate(-225 -173.05)"/><path d="M674.58,178.5q1.26.6,1.26,1.53a1.14,1.14,0,0,1-.26.73.83.83,0,0,1-.68.33,1,1,0,0,1-.49-.1,5.62,5.62,0,0,1-.49-.31,2.6,2.6,0,0,0-.46-.34,3.63,3.63,0,0,0-.81-.24,5.72,5.72,0,0,0-1-.09,4.25,4.25,0,0,0-2.21.57,4,4,0,0,0-1.49,1.6,4.9,4.9,0,0,0-.53,2.27,5,5,0,0,0,.52,2.28,3.88,3.88,0,0,0,1.45,1.58,4,4,0,0,0,2.14.58,4.44,4.44,0,0,0,2-.39,2.83,2.83,0,0,0,.46-.31,3.23,3.23,0,0,1,.42-.29,1.12,1.12,0,0,1,1.2.21,1.13,1.13,0,0,1,.28.78,1.34,1.34,0,0,1-.64,1,5.08,5.08,0,0,1-1.7.81,8.14,8.14,0,0,1-2.3.31,6,6,0,0,1-3.21-.85,5.68,5.68,0,0,1-2.15-2.35,7.4,7.4,0,0,1-.76-3.35,7.05,7.05,0,0,1,.8-3.35,5.86,5.86,0,0,1,2.2-2.35,6.17,6.17,0,0,1,3.24-.85A7.33,7.33,0,0,1,674.58,178.5Z" transform="translate(-225 -173.05)"/><path d="M689.35,187.83a6.1,6.1,0,0,1-2.29,2.33,6.53,6.53,0,0,1-6.41,0,6.1,6.1,0,0,1-2.29-2.33,6.7,6.7,0,0,1-.84-3.36,6.83,6.83,0,0,1,.84-3.38,6,6,0,0,1,2.29-2.35,6.53,6.53,0,0,1,6.41,0,6,6,0,0,1,2.29,2.35,6.83,6.83,0,0,1,.84,3.38A6.7,6.7,0,0,1,689.35,187.83Zm-2-5.67a4.08,4.08,0,0,0-1.46-1.59,4.05,4.05,0,0,0-4.11,0,4.08,4.08,0,0,0-1.46,1.59,4.86,4.86,0,0,0-.54,2.31,4.74,4.74,0,0,0,.54,2.28,4,4,0,0,0,1.46,1.57,4,4,0,0,0,4.11,0,4,4,0,0,0,1.46-1.57,4.74,4.74,0,0,0,.54-2.28A4.86,4.86,0,0,0,687.37,182.16Z" transform="translate(-225 -173.05)"/><path d="M703.56,183.08v6.53a1.13,1.13,0,0,1-.32.81,1.1,1.1,0,0,1-.83.34,1.07,1.07,0,0,1-.81-.34,1.13,1.13,0,0,1-.32-.81V183.1a3.6,3.6,0,0,0-.65-2.25,2.49,2.49,0,0,0-2.11-.84,3.61,3.61,0,0,0-1.74.42,3.1,3.1,0,0,0-1.22,1.13,2.8,2.8,0,0,0-.45,1.54v6.51a1.13,1.13,0,0,1-.32.81,1.09,1.09,0,0,1-.83.34,1.11,1.11,0,0,1-.82-.32,1.2,1.2,0,0,1-.31-.83V179.34a1.12,1.12,0,0,1,.33-.82,1.07,1.07,0,0,1,.8-.34,1.12,1.12,0,0,1,.83.34,1.16,1.16,0,0,1,.32.82v.84a5.23,5.23,0,0,1,1.74-1.62,4.63,4.63,0,0,1,2.39-.66C702.12,177.9,703.56,179.62,703.56,183.08Z" transform="translate(-225 -173.05)"/><path d="M706,188.14a1,1,0,0,1,.51-.81.94.94,0,0,1,.55-.17,1.09,1.09,0,0,1,.79.36,5.12,5.12,0,0,0,1.55,1.22,4.32,4.32,0,0,0,2,.41,3.27,3.27,0,0,0,1.61-.42,1.49,1.49,0,0,0,0-2.53,7.93,7.93,0,0,0-2.07-.79,14.32,14.32,0,0,1-2.23-.76,3.87,3.87,0,0,1-1.5-1.15,3,3,0,0,1-.62-2,3.09,3.09,0,0,1,.62-1.9,4.09,4.09,0,0,1,1.63-1.27,5.44,5.44,0,0,1,2.22-.45,6.36,6.36,0,0,1,2.29.43,4.34,4.34,0,0,1,1.86,1.32,1.05,1.05,0,0,1,.29.69,1,1,0,0,1-.39.75.88.88,0,0,1-.6.21.89.89,0,0,1-.69-.28,3.37,3.37,0,0,0-1.24-.89,4.07,4.07,0,0,0-1.62-.31,3,3,0,0,0-1.55.37,1.35,1.35,0,0,0-.63,1.26,1.4,1.4,0,0,0,.73,1.25,9.66,9.66,0,0,0,2.17.79,12.53,12.53,0,0,1,2.11.72,3.56,3.56,0,0,1,1.42,1.14,3.19,3.19,0,0,1,.58,2,3.08,3.08,0,0,1-.65,1.95,4.18,4.18,0,0,1-1.69,1.28,5.75,5.75,0,0,1-2.22.44,7.35,7.35,0,0,1-2.8-.53,5.14,5.14,0,0,1-2.17-1.68A1.15,1.15,0,0,1,706,188.14Z" transform="translate(-225 -173.05)"/><path d="M721.82,180.42v7.15q0,1.2,1.08,1.2a1.59,1.59,0,0,0,.46-.09,1.93,1.93,0,0,1,.46-.08.66.66,0,0,1,.52.26,1,1,0,0,1-.36,1.54,2.36,2.36,0,0,1-1.29.36,6,6,0,0,1-1.45-.17,2.08,2.08,0,0,1-1.18-.85,3.41,3.41,0,0,1-.52-2.08v-7.24h-1.39a1,1,0,0,1-.75-.3,1,1,0,0,1-.3-.76,1,1,0,0,1,.3-.74,1,1,0,0,1,.75-.29h1.39v-2a1.1,1.1,0,0,1,.33-.81,1.07,1.07,0,0,1,.83-.34,1.05,1.05,0,0,1,.8.34,1.13,1.13,0,0,1,.32.81v2h2a1,1,0,0,1,1,1,1,1,0,0,1-.3.75,1.05,1.05,0,0,1-.75.29Z" transform="translate(-225 -173.05)"/><path d="M734.88,178.22a1,1,0,0,1,.45.8,1.23,1.23,0,0,1-.29.88,1,1,0,0,1-.74.3,2.4,2.4,0,0,1-.64-.14,2.54,2.54,0,0,0-.8-.17,2.46,2.46,0,0,0-1.45.51,3.8,3.8,0,0,0-1.15,1.42,4.42,4.42,0,0,0-.45,2v5.79a1.09,1.09,0,0,1-.32.81,1.07,1.07,0,0,1-.83.34,1.08,1.08,0,0,1-.81-.32,1.16,1.16,0,0,1-.31-.83V179.34a1.12,1.12,0,0,1,.32-.82,1.09,1.09,0,0,1,.8-.34,1.13,1.13,0,0,1,1.15,1.16v1.22a4.69,4.69,0,0,1,1.59-1.91,4.17,4.17,0,0,1,2.4-.75A1.81,1.81,0,0,1,734.88,178.22Z" transform="translate(-225 -173.05)"/><path d="M747.63,178.52a1.12,1.12,0,0,1,.33.82v6.38a5.27,5.27,0,1,1-10.51,0v-6.38a1.12,1.12,0,0,1,.32-.82,1.15,1.15,0,0,1,1.63,0,1.12,1.12,0,0,1,.33.82v6.38c0,2.1,1,3.14,2.95,3.14a3,3,0,0,0,2.23-.79,3.26,3.26,0,0,0,.77-2.35v-6.38a1.16,1.16,0,0,1,.32-.82,1.15,1.15,0,0,1,1.63,0Z" transform="translate(-225 -173.05)"/><path d="M760,178.5c.83.4,1.25.91,1.25,1.53a1.09,1.09,0,0,1-.26.73.83.83,0,0,1-.67.33,1,1,0,0,1-.49-.1,5.48,5.48,0,0,1-.5-.31,2.15,2.15,0,0,0-.45-.34,3.58,3.58,0,0,0-.82-.24,5.72,5.72,0,0,0-1-.09,4.28,4.28,0,0,0-2.21.57,3.94,3.94,0,0,0-1.48,1.6,4.78,4.78,0,0,0-.53,2.27,5,5,0,0,0,.51,2.28,4,4,0,0,0,3.59,2.16,4.48,4.48,0,0,0,2-.39,4.1,4.1,0,0,0,.46-.31,2.67,2.67,0,0,1,.42-.29,1,1,0,0,1,.44-.09,1,1,0,0,1,.76.3,1.12,1.12,0,0,1,.27.78,1.31,1.31,0,0,1-.64,1,5.08,5.08,0,0,1-1.7.81,8,8,0,0,1-2.29.31,6,6,0,0,1-3.22-.85,5.72,5.72,0,0,1-2.14-2.35,7.27,7.27,0,0,1-.76-3.35,7,7,0,0,1,.79-3.35,5.89,5.89,0,0,1,2.21-2.35,6.12,6.12,0,0,1,3.24-.85A7.36,7.36,0,0,1,760,178.5Z" transform="translate(-225 -173.05)"/><path d="M767.11,180.42v7.15q0,1.2,1.08,1.2a1.66,1.66,0,0,0,.46-.09,1.94,1.94,0,0,1,.45-.08.67.67,0,0,1,.53.26,1,1,0,0,1,.22.68,1,1,0,0,1-.58.86,2.37,2.37,0,0,1-1.3.36,6,6,0,0,1-1.45-.17,2.09,2.09,0,0,1-1.17-.85,3.41,3.41,0,0,1-.52-2.08v-7.24h-1.39a1,1,0,0,1-.76-.3,1,1,0,0,1-.3-.76,1,1,0,0,1,.3-.74,1,1,0,0,1,.76-.29h1.39v-2a1.13,1.13,0,0,1,.32-.81,1.1,1.1,0,0,1,.83-.34,1.07,1.07,0,0,1,.81.34,1.13,1.13,0,0,1,.32.81v2h2a1,1,0,0,1,1.06,1,1,1,0,0,1-.3.75,1.06,1.06,0,0,1-.76.29Z" transform="translate(-225 -173.05)"/><path d="M772.83,176.23a1,1,0,0,1-.29-.81V175a1,1,0,0,1,.32-.82,1.66,1.66,0,0,1,1-.24,1.51,1.51,0,0,1,1,.26,1,1,0,0,1,.3.8v.38a1,1,0,0,1-.32.82,2.12,2.12,0,0,1-2,0Zm1.83,14.19a1.09,1.09,0,0,1-.83.34,1,1,0,0,1-.8-.34,1.1,1.1,0,0,1-.33-.81V179.22a1.12,1.12,0,0,1,.33-.82,1.07,1.07,0,0,1,.8-.34,1.13,1.13,0,0,1,1.15,1.16v10.39A1.09,1.09,0,0,1,774.66,190.42Z" transform="translate(-225 -173.05)"/><path d="M789.33,187.83a6.1,6.1,0,0,1-2.29,2.33,6.53,6.53,0,0,1-6.41,0,6.17,6.17,0,0,1-2.29-2.33,6.7,6.7,0,0,1-.84-3.36,6.83,6.83,0,0,1,.84-3.38,6.09,6.09,0,0,1,2.29-2.35,6.53,6.53,0,0,1,6.41,0,6,6,0,0,1,2.29,2.35,6.83,6.83,0,0,1,.84,3.38A6.7,6.7,0,0,1,789.33,187.83Zm-2-5.67a4,4,0,0,0-1.46-1.59,4,4,0,0,0-4.1,0,4,4,0,0,0-1.47,1.59,4.86,4.86,0,0,0-.54,2.31,4.74,4.74,0,0,0,.54,2.28,4,4,0,0,0,1.47,1.57,4,4,0,0,0,4.1,0,4,4,0,0,0,1.46-1.57,4.74,4.74,0,0,0,.54-2.28A4.86,4.86,0,0,0,787.35,182.16Z" transform="translate(-225 -173.05)"/><path d="M803.54,183.08v6.53a1.13,1.13,0,0,1-.32.81,1.09,1.09,0,0,1-.83.34,1,1,0,0,1-.8-.34,1.1,1.1,0,0,1-.33-.81V183.1a3.54,3.54,0,0,0-.65-2.25,2.49,2.49,0,0,0-2.11-.84,3.61,3.61,0,0,0-1.74.42,3.1,3.1,0,0,0-1.22,1.13,2.8,2.8,0,0,0-.45,1.54v6.51a1.16,1.16,0,0,1-2,.83,1.16,1.16,0,0,1-.32-.83V179.34a1.12,1.12,0,0,1,.33-.82,1.07,1.07,0,0,1,.8-.34,1.13,1.13,0,0,1,1.15,1.16v.84a5.23,5.23,0,0,1,1.74-1.62,4.63,4.63,0,0,1,2.39-.66C802.1,177.9,803.54,179.62,803.54,183.08Z" transform="translate(-225 -173.05)"/><path d="M451.18,718a1,1,0,0,1,.32.76,1.55,1.55,0,0,1-.76,1.2,6.61,6.61,0,0,1-1.88.94,6.48,6.48,0,0,1-2,.36,8.16,8.16,0,0,1-2.38-.29,9.63,9.63,0,0,1-1.89-.84,10.65,10.65,0,0,0-1.23-.59,3.19,3.19,0,0,0-1.13-.18,1.91,1.91,0,0,0-.54.08,5.16,5.16,0,0,0-.49.21,2.43,2.43,0,0,1-1.08.29,1,1,0,0,1-.78-.35,1.13,1.13,0,0,1-.32-.78,1,1,0,0,1,.65-1l2.68-1a7.51,7.51,0,0,1-3.45-1.54,8.08,8.08,0,0,1-2.35-3,9.38,9.38,0,0,1-.84-4,9.15,9.15,0,0,1,1-4.39,8,8,0,0,1,2.89-3.11,8.22,8.22,0,0,1,8.35,0,8,8,0,0,1,2.9,3.11,9.27,9.27,0,0,1,1,4.39,9.43,9.43,0,0,1-.8,3.89,8.31,8.31,0,0,1-2.25,3,7.46,7.46,0,0,1-3.31,1.59l-1.82.67a4.05,4.05,0,0,1,1.09.28c.33.13.72.32,1.19.56a12.46,12.46,0,0,0,1.51.66,4.35,4.35,0,0,0,1.44.23,3.6,3.6,0,0,0,1.2-.19,4.55,4.55,0,0,0,1-.53l.44-.35a2.47,2.47,0,0,1,.46-.31.88.88,0,0,1,.42-.11A1,1,0,0,1,451.18,718Zm-14.29-6.43a5.63,5.63,0,0,0,2,2.28,5.3,5.3,0,0,0,2.92.83,5.24,5.24,0,0,0,2.91-.83,5.58,5.58,0,0,0,2-2.28,7.7,7.7,0,0,0,0-6.5,5.58,5.58,0,0,0-2-2.28,5.56,5.56,0,0,0-5.83,0,5.57,5.57,0,0,0-2,2.26,7.76,7.76,0,0,0,0,6.53Z" transform="translate(-225 -173.05)"/><path d="M462.87,704.52a1.16,1.16,0,0,1,.32.82v6.38a4.8,4.8,0,0,1-5.28,5.26,5.19,5.19,0,0,1-3.86-1.38,5.29,5.29,0,0,1-1.37-3.88v-6.38a1.16,1.16,0,0,1,.32-.82,1.11,1.11,0,0,1,.81-.34,1.14,1.14,0,0,1,.83.34,1.16,1.16,0,0,1,.32.82v6.38c0,2.1,1,3.14,3,3.14a3,3,0,0,0,2.23-.79,3.26,3.26,0,0,0,.77-2.35v-6.38a1.16,1.16,0,0,1,.32-.82,1.11,1.11,0,0,1,.81-.34A1.12,1.12,0,0,1,462.87,704.52Z" transform="translate(-225 -173.05)"/><path d="M477.63,704.34a1.18,1.18,0,0,1,.32.85v10.42a1.13,1.13,0,0,1-.32.81,1.2,1.2,0,0,1-1.65,0,1.16,1.16,0,0,1-.31-.83V715a5.14,5.14,0,0,1-1.7,1.43,4.83,4.83,0,0,1-2.33.59,5.46,5.46,0,0,1-3-.84,5.78,5.78,0,0,1-2.08-2.34,7.85,7.85,0,0,1,0-6.74,5.75,5.75,0,0,1,2.07-2.34,5.31,5.31,0,0,1,2.91-.84,5.39,5.39,0,0,1,2.36.52,4.89,4.89,0,0,1,1.74,1.35v-.58a1.2,1.2,0,0,1,.31-.84,1.08,1.08,0,0,1,.82-.33A1.12,1.12,0,0,1,477.63,704.34Zm-3.72,10a3.82,3.82,0,0,0,1.36-1.58,5.4,5.4,0,0,0,0-4.54,3.91,3.91,0,0,0-1.36-1.59,3.49,3.49,0,0,0-2-.59,3.57,3.57,0,0,0-2,.57,3.94,3.94,0,0,0-1.37,1.59,5.55,5.55,0,0,0,0,4.56,3.84,3.84,0,0,0,1.37,1.58,3.5,3.5,0,0,0,2,.58A3.56,3.56,0,0,0,473.91,714.31Z" transform="translate(-225 -173.05)"/><path d="M492.06,709.08v6.53a1.13,1.13,0,0,1-.32.81,1.09,1.09,0,0,1-.83.34,1,1,0,0,1-.8-.34,1.1,1.1,0,0,1-.33-.81V709.1a3.54,3.54,0,0,0-.65-2.25A2.49,2.49,0,0,0,487,706a3.61,3.61,0,0,0-1.74.42,3.1,3.1,0,0,0-1.22,1.13,2.8,2.8,0,0,0-.45,1.54v6.51a1.16,1.16,0,0,1-2,.83,1.16,1.16,0,0,1-.32-.83V705.34a1.12,1.12,0,0,1,.33-.82,1.07,1.07,0,0,1,.8-.34,1.13,1.13,0,0,1,1.15,1.16v.84a5.23,5.23,0,0,1,1.74-1.62,4.63,4.63,0,0,1,2.39-.66C490.62,703.9,492.06,705.62,492.06,709.08Z" transform="translate(-225 -173.05)"/><path d="M498.88,706.42v7.15q0,1.2,1.08,1.2a1.6,1.6,0,0,0,.45-.09,2.1,2.1,0,0,1,.46-.08.68.68,0,0,1,.53.26,1.06,1.06,0,0,1,.21.68,1,1,0,0,1-.57.86,2.42,2.42,0,0,1-1.3.36,6,6,0,0,1-1.45-.17,2.15,2.15,0,0,1-1.18-.85,3.48,3.48,0,0,1-.51-2.08v-7.24h-1.39a1,1,0,0,1-.76-.3,1,1,0,0,1-.3-.76,1,1,0,0,1,.3-.74,1,1,0,0,1,.76-.29h1.39v-2a1.13,1.13,0,0,1,.32-.81,1.09,1.09,0,0,1,.83-.34,1,1,0,0,1,.8.34,1.1,1.1,0,0,1,.33.81v2h2a1,1,0,0,1,.76.3,1,1,0,0,1,.3.75,1,1,0,0,1-.3.75,1.07,1.07,0,0,1-.76.29Z" transform="translate(-225 -173.05)"/><path d="M504.6,702.23a1,1,0,0,1-.3-.81V701a1,1,0,0,1,.33-.82,1.64,1.64,0,0,1,1-.24,1.48,1.48,0,0,1,1,.26,1,1,0,0,1,.3.8v.38a1,1,0,0,1-.31.82,1.6,1.6,0,0,1-1,.24A1.54,1.54,0,0,1,504.6,702.23Zm1.83,14.19a1.1,1.1,0,0,1-.83.34,1.07,1.07,0,0,1-.81-.34,1.13,1.13,0,0,1-.32-.81V705.22a1.16,1.16,0,0,1,.32-.82,1.11,1.11,0,0,1,.81-.34,1.14,1.14,0,0,1,.83.34,1.16,1.16,0,0,1,.32.82v10.39A1.13,1.13,0,0,1,506.43,716.42Z" transform="translate(-225 -173.05)"/><path d="M514.25,701.54a1.87,1.87,0,0,0-.37,1.18v1.68h2.37a1.06,1.06,0,0,1,.78.3,1,1,0,0,1,.3.76,1,1,0,0,1-.3.74,1.09,1.09,0,0,1-.78.29h-2.37v9.12a1.1,1.1,0,0,1-.33.81,1.15,1.15,0,0,1-1.63,0,1.13,1.13,0,0,1-.32-.81v-9.12h-1.49a1.12,1.12,0,0,1-.77-.29,1,1,0,0,1-.31-.74,1,1,0,0,1,.31-.76,1.08,1.08,0,0,1,.77-.3h1.49v-1.68a3.48,3.48,0,0,1,1.08-2.68,4.34,4.34,0,0,1,3.05-1,3.31,3.31,0,0,1,1.44.3,1,1,0,0,1,.62.9,1,1,0,0,1-.28.75.85.85,0,0,1-.66.3,3.86,3.86,0,0,1-.52-.09,3.49,3.49,0,0,0-.92-.15A1.38,1.38,0,0,0,514.25,701.54Zm5.16.69a1,1,0,0,1-.3-.81V701a1,1,0,0,1,.32-.82,1.69,1.69,0,0,1,1-.24,1.48,1.48,0,0,1,1,.26,1,1,0,0,1,.3.8v.38a1,1,0,0,1-.31.82,1.63,1.63,0,0,1-1,.24A1.54,1.54,0,0,1,519.41,702.23Zm1.82,14.19a1.15,1.15,0,0,1-1.63,0,1.13,1.13,0,0,1-.32-.81V705.22a1.16,1.16,0,0,1,.32-.82,1.15,1.15,0,0,1,1.63,0,1.12,1.12,0,0,1,.33.82v10.39A1.1,1.1,0,0,1,521.23,716.42Z" transform="translate(-225 -173.05)"/><path d="M533.47,704.5q1.26.6,1.26,1.53a1.09,1.09,0,0,1-.26.73.83.83,0,0,1-.67.33,1,1,0,0,1-.49-.1,5.48,5.48,0,0,1-.5-.31,2.46,2.46,0,0,0-.45-.34,3.74,3.74,0,0,0-.82-.24,5.72,5.72,0,0,0-1-.09,4.25,4.25,0,0,0-2.21.57,3.94,3.94,0,0,0-1.48,1.6,4.78,4.78,0,0,0-.53,2.27,5,5,0,0,0,.51,2.28,4,4,0,0,0,3.59,2.16,4.51,4.51,0,0,0,2-.39,3.38,3.38,0,0,0,.45-.31,3.23,3.23,0,0,1,.42-.29,1,1,0,0,1,.45-.09,1,1,0,0,1,.75.3,1.08,1.08,0,0,1,.28.78,1.31,1.31,0,0,1-.64,1,5.08,5.08,0,0,1-1.7.81,8.07,8.07,0,0,1-2.29.31,6,6,0,0,1-3.22-.85,5.75,5.75,0,0,1-2.15-2.35,7.4,7.4,0,0,1-.75-3.35,7,7,0,0,1,.79-3.35,5.89,5.89,0,0,1,2.21-2.35,6.12,6.12,0,0,1,3.24-.85A7.31,7.31,0,0,1,533.47,704.5Z" transform="translate(-225 -173.05)"/><path d="M548.21,704.34a1.14,1.14,0,0,1,.32.85v10.42a1.13,1.13,0,0,1-1.15,1.15,1.11,1.11,0,0,1-.82-.32,1.2,1.2,0,0,1-.31-.83V715a5,5,0,0,1-1.7,1.43,4.83,4.83,0,0,1-2.33.59,5.43,5.43,0,0,1-3-.84,5.73,5.73,0,0,1-2.09-2.34,7.85,7.85,0,0,1,0-6.74,5.7,5.7,0,0,1,2.08-2.34,5.25,5.25,0,0,1,2.9-.84,5.36,5.36,0,0,1,2.36.52,4.89,4.89,0,0,1,1.74,1.35v-.58a1.24,1.24,0,0,1,.31-.84,1.08,1.08,0,0,1,.82-.33A1.11,1.11,0,0,1,548.21,704.34Zm-3.72,10a3.92,3.92,0,0,0,1.37-1.58,5.5,5.5,0,0,0,0-4.54,4,4,0,0,0-1.37-1.59,3.47,3.47,0,0,0-2-.59,3.57,3.57,0,0,0-2,.57,4,4,0,0,0-1.37,1.59,5.55,5.55,0,0,0,0,4.56,3.92,3.92,0,0,0,1.37,1.58,3.76,3.76,0,0,0,4,0Z" transform="translate(-225 -173.05)"/><path d="M555.32,706.42v7.15c0,.8.37,1.2,1.08,1.2a1.59,1.59,0,0,0,.46-.09,1.93,1.93,0,0,1,.46-.08.66.66,0,0,1,.52.26,1,1,0,0,1-.36,1.54,2.36,2.36,0,0,1-1.29.36,6,6,0,0,1-1.45-.17,2.12,2.12,0,0,1-1.18-.85,3.48,3.48,0,0,1-.52-2.08v-7.24h-1.39a1,1,0,0,1-.75-.3,1,1,0,0,1-.3-.76,1,1,0,0,1,.3-.74,1,1,0,0,1,.75-.29H553v-2a1.1,1.1,0,0,1,.33-.81,1.07,1.07,0,0,1,.83-.34,1.05,1.05,0,0,1,.8.34,1.09,1.09,0,0,1,.32.81v2h2a1,1,0,0,1,1,1,1,1,0,0,1-.3.75,1.05,1.05,0,0,1-.75.29Z" transform="translate(-225 -173.05)"/><path d="M561.05,702.23a1,1,0,0,1-.3-.81V701a1,1,0,0,1,.32-.82,1.69,1.69,0,0,1,1-.24,1.48,1.48,0,0,1,1,.26,1,1,0,0,1,.3.8v.38a1,1,0,0,1-.31.82,1.64,1.64,0,0,1-1,.24A1.53,1.53,0,0,1,561.05,702.23Zm1.82,14.19a1.07,1.07,0,0,1-.83.34,1.05,1.05,0,0,1-.8-.34,1.09,1.09,0,0,1-.32-.81V705.22a1.12,1.12,0,0,1,.32-.82,1.09,1.09,0,0,1,.8-.34,1.11,1.11,0,0,1,.83.34,1.12,1.12,0,0,1,.33.82v10.39A1.1,1.1,0,0,1,562.87,716.42Z" transform="translate(-225 -173.05)"/><path d="M577.55,713.83a6.17,6.17,0,0,1-2.29,2.33,6.53,6.53,0,0,1-6.41,0,6.1,6.1,0,0,1-2.29-2.33,6.7,6.7,0,0,1-.84-3.36,6.83,6.83,0,0,1,.84-3.38,6,6,0,0,1,2.29-2.35,6.53,6.53,0,0,1,6.41,0,6.09,6.09,0,0,1,2.29,2.35,6.83,6.83,0,0,1,.84,3.38A6.7,6.7,0,0,1,577.55,713.83Zm-2-5.67a4,4,0,0,0-1.47-1.59,4,4,0,0,0-4.1,0,4,4,0,0,0-1.46,1.59,4.86,4.86,0,0,0-.54,2.31,4.74,4.74,0,0,0,.54,2.28,4,4,0,0,0,1.46,1.57,4,4,0,0,0,4.1,0,4,4,0,0,0,1.47-1.57,4.74,4.74,0,0,0,.54-2.28A4.86,4.86,0,0,0,575.57,708.16Z" transform="translate(-225 -173.05)"/><path d="M591.76,709.08v6.53a1.1,1.1,0,0,1-.33.81,1.07,1.07,0,0,1-.83.34,1.05,1.05,0,0,1-.8-.34,1.09,1.09,0,0,1-.32-.81V709.1a3.6,3.6,0,0,0-.65-2.25,2.5,2.5,0,0,0-2.11-.84,3.61,3.61,0,0,0-1.74.42,3.2,3.2,0,0,0-1.23,1.13,2.87,2.87,0,0,0-.44,1.54v6.51a1.1,1.1,0,0,1-.33.81,1.06,1.06,0,0,1-.82.34,1.11,1.11,0,0,1-.82-.32,1.16,1.16,0,0,1-.31-.83V705.34a1.16,1.16,0,0,1,.32-.82,1.15,1.15,0,0,1,1.63,0,1.12,1.12,0,0,1,.33.82v.84a5,5,0,0,1,1.74-1.62,4.6,4.6,0,0,1,2.39-.66C590.32,703.9,591.76,705.62,591.76,709.08Z" transform="translate(-225 -173.05)"/><path d="M600.94,719.64a.89.89,0,0,1-.33-.7,1.38,1.38,0,0,1,.12-.48l10.06-20.25a1,1,0,0,1,.93-.65,1,1,0,0,1,.68.28.89.89,0,0,1,.31.68,1.18,1.18,0,0,1-.12.53l-10,20.25a1,1,0,0,1-.92.63A1,1,0,0,1,600.94,719.64Z" transform="translate(-225 -173.05)"/><path d="M634.48,701.9a1.27,1.27,0,0,1-.29.8,1,1,0,0,1-.79.38,1.37,1.37,0,0,1-.65-.17,6.45,6.45,0,0,0-3.22-.84,6.36,6.36,0,0,0-3.18.79,5.6,5.6,0,0,0-2.15,2.22,6.87,6.87,0,0,0-.76,3.28,7,7,0,0,0,.79,3.43,5.43,5.43,0,0,0,2.18,2.2,6.48,6.48,0,0,0,3.12.75,6.09,6.09,0,0,0,3.22-.86,1.31,1.31,0,0,1,.62-.14,1,1,0,0,1,.84.4,1.23,1.23,0,0,1,.29.77,1,1,0,0,1-.16.54,1.08,1.08,0,0,1-.42.4,9,9,0,0,1-2.1.84,8.7,8.7,0,0,1-2.29.31,9,9,0,0,1-4.28-1,7.76,7.76,0,0,1-3.12-3,8.85,8.85,0,0,1-1.17-4.61,8.7,8.7,0,0,1,1.12-4.38,8.08,8.08,0,0,1,3.07-3.07,8.65,8.65,0,0,1,4.38-1.12,8.84,8.84,0,0,1,4.37,1.15A1,1,0,0,1,634.48,701.9Z" transform="translate(-225 -173.05)"/><path d="M648,713.83a6.1,6.1,0,0,1-2.29,2.33,6.53,6.53,0,0,1-6.41,0,6.1,6.1,0,0,1-2.29-2.33,6.7,6.7,0,0,1-.84-3.36,6.83,6.83,0,0,1,.84-3.38,6,6,0,0,1,2.29-2.35,6.53,6.53,0,0,1,6.41,0,6,6,0,0,1,2.29,2.35,6.83,6.83,0,0,1,.84,3.38A6.7,6.7,0,0,1,648,713.83Zm-2-5.67a4.08,4.08,0,0,0-1.46-1.59,4.05,4.05,0,0,0-4.11,0,4.08,4.08,0,0,0-1.46,1.59,4.86,4.86,0,0,0-.54,2.31,4.74,4.74,0,0,0,.54,2.28,4,4,0,0,0,1.46,1.57,4,4,0,0,0,4.11,0,4,4,0,0,0,1.46-1.57,4.74,4.74,0,0,0,.54-2.28A4.86,4.86,0,0,0,646,708.16Z" transform="translate(-225 -173.05)"/><path d="M670.12,709.2v6.41a1.16,1.16,0,0,1-.32.83,1.18,1.18,0,0,1-1.64,0,1.1,1.1,0,0,1-.33-.81v-6.39c0-2.09-.87-3.14-2.63-3.14a3.46,3.46,0,0,0-1.7.42,3.05,3.05,0,0,0-1.17,1.14,3.09,3.09,0,0,0-.42,1.58v6.39a1.1,1.1,0,0,1-.33.81,1.07,1.07,0,0,1-.83.34,1.1,1.1,0,0,1-.81-.32,1.16,1.16,0,0,1-.31-.83V709.2a3.88,3.88,0,0,0-.6-2.27,2.26,2.26,0,0,0-2-.85,3.2,3.2,0,0,0-2.34.9,3,3,0,0,0-.93,2.22v6.41a1.13,1.13,0,0,1-.32.81,1.09,1.09,0,0,1-.83.34,1.11,1.11,0,0,1-.82-.32,1.2,1.2,0,0,1-.31-.83V705.34a1.16,1.16,0,0,1,.32-.82,1.11,1.11,0,0,1,.81-.34,1.12,1.12,0,0,1,.83.34,1.16,1.16,0,0,1,.32.82v.84a5.28,5.28,0,0,1,1.67-1.58,4.32,4.32,0,0,1,2.27-.63,3.68,3.68,0,0,1,3.86,2.64,5.2,5.2,0,0,1,1.75-1.83,4.63,4.63,0,0,1,2.6-.81C668.71,704,670.12,705.71,670.12,709.2Z" transform="translate(-225 -173.05)"/><path d="M682.79,704.8a5.67,5.67,0,0,1,2.07,2.31,7.79,7.79,0,0,1,0,6.71,5.83,5.83,0,0,1-2.07,2.32,5.31,5.31,0,0,1-2.91.84,5,5,0,0,1-2.32-.56,5.51,5.51,0,0,1-1.76-1.34v5.33a1.15,1.15,0,0,1-1.95.83,1.13,1.13,0,0,1-.33-.83v-15.1a1.2,1.2,0,0,1,.32-.84,1.06,1.06,0,0,1,.81-.33,1.12,1.12,0,0,1,.83.33,1.16,1.16,0,0,1,.32.84v.7a4.81,4.81,0,0,1,1.68-1.44,4.87,4.87,0,0,1,2.36-.6A5.39,5.39,0,0,1,682.79,704.8Zm-1.23,9.49a3.82,3.82,0,0,0,1.38-1.57,5,5,0,0,0,.5-2.25,5,5,0,0,0-.5-2.24,3.7,3.7,0,0,0-1.38-1.57,3.52,3.52,0,0,0-2-.58,3.71,3.71,0,0,0-2,.56,3.67,3.67,0,0,0-1.38,1.58,5.34,5.34,0,0,0,0,4.51,3.7,3.7,0,0,0,1.38,1.57,3.82,3.82,0,0,0,4,0Z" transform="translate(-225 -173.05)"/><path d="M699.29,704.34a1.18,1.18,0,0,1,.32.85v10.42a1.13,1.13,0,0,1-.32.81,1.2,1.2,0,0,1-1.65,0,1.2,1.2,0,0,1-.31-.83V715a5,5,0,0,1-1.7,1.43,4.83,4.83,0,0,1-2.33.59,5.46,5.46,0,0,1-3-.84,5.78,5.78,0,0,1-2.08-2.34,7.85,7.85,0,0,1,0-6.74,5.75,5.75,0,0,1,2.07-2.34,5.53,5.53,0,0,1,5.27-.32,4.89,4.89,0,0,1,1.74,1.35v-.58a1.24,1.24,0,0,1,.31-.84,1.08,1.08,0,0,1,.82-.33A1.12,1.12,0,0,1,699.29,704.34Zm-3.72,10a3.92,3.92,0,0,0,1.37-1.58,5.5,5.5,0,0,0,0-4.54,4,4,0,0,0-1.37-1.59,3.49,3.49,0,0,0-2-.59,3.57,3.57,0,0,0-2,.57,3.94,3.94,0,0,0-1.37,1.59,5.55,5.55,0,0,0,0,4.56,3.84,3.84,0,0,0,1.37,1.58,3.5,3.5,0,0,0,2,.58A3.56,3.56,0,0,0,695.57,714.31Z" transform="translate(-225 -173.05)"/><path d="M710.34,704.22a1,1,0,0,1,.45.8,1.18,1.18,0,0,1-.29.88,1,1,0,0,1-.74.3,2.4,2.4,0,0,1-.64-.14,2.49,2.49,0,0,0-.8-.17,2.46,2.46,0,0,0-1.45.51,3.8,3.8,0,0,0-1.15,1.42,4.41,4.41,0,0,0-.44,2v5.79a1.1,1.1,0,0,1-.33.81,1.18,1.18,0,0,1-1.64,0,1.16,1.16,0,0,1-.31-.83V705.34a1.12,1.12,0,0,1,.32-.82,1.09,1.09,0,0,1,.8-.34,1.14,1.14,0,0,1,1.16,1.16v1.22a4.52,4.52,0,0,1,1.58-1.91,4.17,4.17,0,0,1,2.4-.75A1.79,1.79,0,0,1,710.34,704.22Z" transform="translate(-225 -173.05)"/><path d="M723.65,704.34a1.18,1.18,0,0,1,.32.85v10.42a1.13,1.13,0,0,1-.32.81,1.09,1.09,0,0,1-.83.34,1.11,1.11,0,0,1-.82-.32,1.16,1.16,0,0,1-.31-.83V715a5,5,0,0,1-1.7,1.43,4.83,4.83,0,0,1-2.33.59,5.41,5.41,0,0,1-3-.84,5.73,5.73,0,0,1-2.09-2.34,7.85,7.85,0,0,1,0-6.74,5.75,5.75,0,0,1,2.07-2.34,5.53,5.53,0,0,1,5.27-.32,4.89,4.89,0,0,1,1.74,1.35v-.58a1.2,1.2,0,0,1,.31-.84,1.08,1.08,0,0,1,.82-.33A1.11,1.11,0,0,1,723.65,704.34Zm-3.72,10a3.82,3.82,0,0,0,1.36-1.58,5.4,5.4,0,0,0,0-4.54,3.91,3.91,0,0,0-1.36-1.59,3.49,3.49,0,0,0-2-.59,3.57,3.57,0,0,0-2,.57,3.94,3.94,0,0,0-1.37,1.59,5.55,5.55,0,0,0,0,4.56,3.84,3.84,0,0,0,1.37,1.58,3.5,3.5,0,0,0,2,.58A3.56,3.56,0,0,0,719.93,714.31Z" transform="translate(-225 -173.05)"/><path d="M730.76,706.42v7.15q0,1.2,1.08,1.2a1.59,1.59,0,0,0,.46-.09,1.93,1.93,0,0,1,.46-.08.66.66,0,0,1,.52.26,1,1,0,0,1-.36,1.54,2.36,2.36,0,0,1-1.29.36,6,6,0,0,1-1.45-.17,2.12,2.12,0,0,1-1.18-.85,3.48,3.48,0,0,1-.52-2.08v-7.24h-1.39a1,1,0,0,1-.75-.3,1,1,0,0,1-.3-.76.94.94,0,0,1,.3-.74,1,1,0,0,1,.75-.29h1.39v-2a1.1,1.1,0,0,1,.33-.81,1.15,1.15,0,0,1,1.63,0,1.09,1.09,0,0,1,.32.81v2h2a1,1,0,0,1,1,1,1,1,0,0,1-.3.75,1.05,1.05,0,0,1-.75.29Z" transform="translate(-225 -173.05)"/><path d="M736.49,702.23a1,1,0,0,1-.3-.81V701a1,1,0,0,1,.32-.82,1.69,1.69,0,0,1,1-.24,1.5,1.5,0,0,1,1,.26,1,1,0,0,1,.3.8v.38a1,1,0,0,1-.31.82,1.64,1.64,0,0,1-1,.24A1.53,1.53,0,0,1,736.49,702.23Zm1.82,14.19a1.09,1.09,0,0,1-.83.34,1,1,0,0,1-.8-.34,1.1,1.1,0,0,1-.33-.81V705.22a1.12,1.12,0,0,1,.33-.82,1.07,1.07,0,0,1,.8-.34,1.13,1.13,0,0,1,1.15,1.16v10.39A1.09,1.09,0,0,1,738.31,716.42Z" transform="translate(-225 -173.05)"/><path d="M752.29,704.36a1,1,0,0,1,.31.71,1.45,1.45,0,0,1-.17.6L747.88,716a1.27,1.27,0,0,1-.41.5,1.22,1.22,0,0,1-1.29.08,1.23,1.23,0,0,1-.49-.58l-4.56-10.37a2,2,0,0,1-.12-.6,1,1,0,0,1,.31-.69,1.11,1.11,0,0,1,.82-.32,1.15,1.15,0,0,1,1.1.72l3.63,8.43,3.62-8.43a1.09,1.09,0,0,1,1-.72A1.06,1.06,0,0,1,752.29,704.36Z" transform="translate(-225 -173.05)"/><path d="M765.63,710.72a1.13,1.13,0,0,1-.79.3h-8.45a4.19,4.19,0,0,0,1.34,2.81,4,4,0,0,0,2.84,1.06,4.34,4.34,0,0,0,1.87-.34,4.51,4.51,0,0,0,1.27-.86,1.36,1.36,0,0,1,.7-.22.91.91,0,0,1,.68.29.92.92,0,0,1,.28.67,1.17,1.17,0,0,1-.48.91,5.51,5.51,0,0,1-1.85,1.18,6.06,6.06,0,0,1-2.35.48,6.87,6.87,0,0,1-3.42-.82A5.69,5.69,0,0,1,755,713.9a6.7,6.7,0,0,1-.8-3.31,7.34,7.34,0,0,1,.82-3.54,6.11,6.11,0,0,1,2.19-2.34,5.64,5.64,0,0,1,5.79,0,5.94,5.94,0,0,1,2.16,2.18A6.12,6.12,0,0,1,766,710,1,1,0,0,1,765.63,710.72Zm-7.84-4a3.75,3.75,0,0,0-1.3,2.34h7.08v-.19a2.94,2.94,0,0,0-1.14-2.09,3.62,3.62,0,0,0-2.32-.81A3.71,3.71,0,0,0,757.79,706.76Z" transform="translate(-225 -173.05)"/><path d="M793.91,709.2v6.41a1.16,1.16,0,0,1-.32.83,1.15,1.15,0,0,1-2-.83v-6.39c0-2.09-.88-3.14-2.64-3.14a3.46,3.46,0,0,0-1.7.42,3.05,3.05,0,0,0-1.17,1.14,3.09,3.09,0,0,0-.42,1.58v6.39a1.1,1.1,0,0,1-.33.81,1.06,1.06,0,0,1-.82.34,1.11,1.11,0,0,1-.82-.32,1.16,1.16,0,0,1-.31-.83V709.2a3.88,3.88,0,0,0-.6-2.27,2.26,2.26,0,0,0-2-.85,3.2,3.2,0,0,0-2.34.9,3,3,0,0,0-.93,2.22v6.41a1.13,1.13,0,0,1-.32.81,1.09,1.09,0,0,1-.83.34,1.11,1.11,0,0,1-.82-.32,1.2,1.2,0,0,1-.31-.83V705.34a1.12,1.12,0,0,1,.33-.82,1.07,1.07,0,0,1,.8-.34,1.12,1.12,0,0,1,.83.34,1.16,1.16,0,0,1,.32.82v.84a5.28,5.28,0,0,1,1.67-1.58,4.32,4.32,0,0,1,2.27-.63,3.68,3.68,0,0,1,3.86,2.64,5.2,5.2,0,0,1,1.75-1.83,4.63,4.63,0,0,1,2.6-.81Q793.91,704,793.91,709.2Z" transform="translate(-225 -173.05)"/><path d="M808,710.72a1.13,1.13,0,0,1-.79.3h-8.45a4.19,4.19,0,0,0,1.34,2.81,4,4,0,0,0,2.84,1.06,4.34,4.34,0,0,0,1.87-.34,4.51,4.51,0,0,0,1.27-.86,1.3,1.3,0,0,1,.7-.22.91.91,0,0,1,.68.29.92.92,0,0,1,.28.67,1.17,1.17,0,0,1-.48.91,5.51,5.51,0,0,1-1.85,1.18,6.06,6.06,0,0,1-2.35.48,6.87,6.87,0,0,1-3.42-.82,5.69,5.69,0,0,1-2.28-2.28,6.7,6.7,0,0,1-.8-3.31,7.34,7.34,0,0,1,.82-3.54,6.11,6.11,0,0,1,2.19-2.34,5.64,5.64,0,0,1,5.79,0,5.94,5.94,0,0,1,2.16,2.18,6.12,6.12,0,0,1,.84,3.12A1,1,0,0,1,808,710.72Zm-7.84-4a3.75,3.75,0,0,0-1.3,2.34h7.08v-.19a2.94,2.94,0,0,0-1.14-2.09,3.62,3.62,0,0,0-2.32-.81A3.71,3.71,0,0,0,800.15,706.76Z" transform="translate(-225 -173.05)"/><path d="M814.4,706.42v7.15q0,1.2,1.08,1.2a1.66,1.66,0,0,0,.46-.09,1.94,1.94,0,0,1,.45-.08.67.67,0,0,1,.53.26,1,1,0,0,1-.36,1.54,2.36,2.36,0,0,1-1.29.36,6,6,0,0,1-1.46-.17,2.09,2.09,0,0,1-1.17-.85,3.41,3.41,0,0,1-.52-2.08v-7.24h-1.39a1,1,0,0,1-1.06-1.06,1,1,0,0,1,.3-.74,1,1,0,0,1,.76-.29h1.39v-2a1.1,1.1,0,0,1,.33-.81,1.15,1.15,0,0,1,1.63,0,1.13,1.13,0,0,1,.32.81v2h2a1,1,0,0,1,1.06,1,1,1,0,0,1-.3.75,1.06,1.06,0,0,1-.76.29Z" transform="translate(-225 -173.05)"/><path d="M831.14,704.34a1.14,1.14,0,0,1,.32.85v10.42a1.09,1.09,0,0,1-.32.81,1.07,1.07,0,0,1-.83.34,1.1,1.1,0,0,1-.81-.32,1.16,1.16,0,0,1-.31-.83V715a5.18,5.18,0,0,1-1.71,1.43,4.83,4.83,0,0,1-2.33.59,5.43,5.43,0,0,1-3-.84,5.8,5.8,0,0,1-2.09-2.34,7.95,7.95,0,0,1,0-6.74,5.85,5.85,0,0,1,2.08-2.34,5.3,5.3,0,0,1,2.9-.84,5.41,5.41,0,0,1,2.37.52,5.08,5.08,0,0,1,1.74,1.35v-.58a1.2,1.2,0,0,1,.31-.84,1.07,1.07,0,0,1,.81-.33A1.09,1.09,0,0,1,831.14,704.34Zm-3.72,10a3.92,3.92,0,0,0,1.37-1.58,5.5,5.5,0,0,0,0-4.54,4,4,0,0,0-1.37-1.59,3.44,3.44,0,0,0-2-.59,3.63,3.63,0,0,0-2,.57,4,4,0,0,0-1.37,1.59,5.55,5.55,0,0,0,0,4.56,3.92,3.92,0,0,0,1.37,1.58,3.56,3.56,0,0,0,2,.58A3.5,3.5,0,0,0,827.42,714.31Z" transform="translate(-225 -173.05)"/><path d="M846.19,704.34a1.18,1.18,0,0,1,.32.85v10.56a6,6,0,0,1-.82,3.25,5,5,0,0,1-2.25,1.94,7.93,7.93,0,0,1-3.19.62,8.85,8.85,0,0,1-2.25-.34,4,4,0,0,1-1.64-.69c-.49-.26-.74-.58-.74-1a1.17,1.17,0,0,1,.09-.39.91.91,0,0,1,.89-.6,1.74,1.74,0,0,1,.67.15,9.14,9.14,0,0,0,3,.74,4.26,4.26,0,0,0,2.94-.92,3.25,3.25,0,0,0,1-2.53v-1.3a4.19,4.19,0,0,1-1.69,1.61A5,5,0,0,1,840,717a5.66,5.66,0,0,1-3-.84,5.86,5.86,0,0,1-2.15-2.34,7.67,7.67,0,0,1,0-6.74,5.84,5.84,0,0,1,2.14-2.34,5.55,5.55,0,0,1,3-.84,5.21,5.21,0,0,1,2.47.6,5.12,5.12,0,0,1,1.78,1.46v-.77a1.24,1.24,0,0,1,.31-.84,1.09,1.09,0,0,1,.82-.33A1.11,1.11,0,0,1,846.19,704.34Zm-3.81,10a3.78,3.78,0,0,0,1.43-1.58,4.92,4.92,0,0,0,.52-2.29,4.85,4.85,0,0,0-.52-2.28,4,4,0,0,0-1.43-1.59,4.06,4.06,0,0,0-4.15,0,4,4,0,0,0-1.43,1.6,5.31,5.31,0,0,0,0,4.54,3.94,3.94,0,0,0,1.43,1.59,3.76,3.76,0,0,0,2.07.58A3.82,3.82,0,0,0,842.38,714.32Z" transform="translate(-225 -173.05)"/><path d="M860.1,710.72a1.17,1.17,0,0,1-.8.3h-8.44a4.14,4.14,0,0,0,1.33,2.81,4,4,0,0,0,2.84,1.06,4.39,4.39,0,0,0,1.88-.34,4.82,4.82,0,0,0,1.27-.86,1.3,1.3,0,0,1,.69-.22,1,1,0,0,1,1,1,1.17,1.17,0,0,1-.48.91,5.56,5.56,0,0,1-1.84,1.18,6.11,6.11,0,0,1-2.36.48,6.92,6.92,0,0,1-3.42-.82,5.69,5.69,0,0,1-2.28-2.28,6.81,6.81,0,0,1-.8-3.31,7.35,7.35,0,0,1,.83-3.54,6.09,6.09,0,0,1,2.18-2.34,5.66,5.66,0,0,1,5.8,0,6.1,6.1,0,0,1,2.16,2.18,6.32,6.32,0,0,1,.84,3.12A1,1,0,0,1,860.1,710.72Zm-7.85-4a3.75,3.75,0,0,0-1.3,2.34H858v-.19a2.94,2.94,0,0,0-1.14-2.09,3.62,3.62,0,0,0-2.31-.81A3.74,3.74,0,0,0,852.25,706.76Z" transform="translate(-225 -173.05)"/><path d="M873.83,709.08v6.53a1.1,1.1,0,0,1-.33.81,1.07,1.07,0,0,1-.83.34,1,1,0,0,1-.8-.34,1.1,1.1,0,0,1-.33-.81V709.1a3.6,3.6,0,0,0-.64-2.25,2.52,2.52,0,0,0-2.11-.84,3.62,3.62,0,0,0-1.75.42,3.24,3.24,0,0,0-1.22,1.13,2.87,2.87,0,0,0-.44,1.54v6.51a1.1,1.1,0,0,1-.33.81,1.07,1.07,0,0,1-.83.34,1.1,1.1,0,0,1-.81-.32,1.16,1.16,0,0,1-.31-.83V705.34a1.16,1.16,0,0,1,.32-.82,1.09,1.09,0,0,1,.8-.34,1.11,1.11,0,0,1,.83.34,1.12,1.12,0,0,1,.33.82v.84a5,5,0,0,1,1.74-1.62,4.6,4.6,0,0,1,2.38-.66C872.38,703.9,873.83,705.62,873.83,709.08Z" transform="translate(-225 -173.05)"/><path d="M888.3,713.83a6.13,6.13,0,0,1-2.3,2.33,6.33,6.33,0,0,1-8.7-2.33,6.7,6.7,0,0,1-.84-3.36,6.83,6.83,0,0,1,.84-3.38,6.11,6.11,0,0,1,2.3-2.35,6.52,6.52,0,0,1,6.4,0,6,6,0,0,1,2.3,2.35,6.83,6.83,0,0,1,.84,3.38A6.7,6.7,0,0,1,888.3,713.83Zm-2-5.67a4,4,0,0,0-1.47-1.59,4,4,0,0,0-4.1,0,3.94,3.94,0,0,0-1.46,1.59,4.75,4.75,0,0,0-.55,2.31,4.63,4.63,0,0,0,.55,2.28,3.89,3.89,0,0,0,1.46,1.57,4,4,0,0,0,4.1,0,4,4,0,0,0,1.47-1.57,4.74,4.74,0,0,0,.54-2.28A4.86,4.86,0,0,0,886.32,708.16Z" transform="translate(-225 -173.05)"/><path d="M910.4,709.2v6.41a1.16,1.16,0,0,1-.31.83,1.11,1.11,0,0,1-.82.32,1.06,1.06,0,0,1-.82-.34,1.1,1.1,0,0,1-.33-.81v-6.39c0-2.09-.88-3.14-2.64-3.14a3.42,3.42,0,0,0-1.69.42,3.05,3.05,0,0,0-1.6,2.72v6.39a1.13,1.13,0,0,1-.32.81,1.09,1.09,0,0,1-.83.34,1.12,1.12,0,0,1-.82-.32,1.2,1.2,0,0,1-.31-.83V709.2a3.88,3.88,0,0,0-.6-2.27,2.25,2.25,0,0,0-2-.85,3.23,3.23,0,0,0-2.34.9,3,3,0,0,0-.92,2.22v6.41a1.1,1.1,0,0,1-.33.81,1.07,1.07,0,0,1-.83.34,1.1,1.1,0,0,1-.81-.32,1.16,1.16,0,0,1-.31-.83V705.34a1.12,1.12,0,0,1,.32-.82,1.09,1.09,0,0,1,.8-.34,1.11,1.11,0,0,1,.83.34,1.12,1.12,0,0,1,.33.82v.84a5.24,5.24,0,0,1,1.66-1.58A4.34,4.34,0,0,1,898,704a3.69,3.69,0,0,1,3.87,2.64,5.11,5.11,0,0,1,1.75-1.83,4.6,4.6,0,0,1,2.59-.81Q910.4,704,910.4,709.2Z" transform="translate(-225 -173.05)"/><path d="M913.82,702.23a1,1,0,0,1-.3-.81V701a1,1,0,0,1,.33-.82,1.64,1.64,0,0,1,1-.24,1.48,1.48,0,0,1,1,.26,1,1,0,0,1,.3.8v.38a1,1,0,0,1-.31.82,1.63,1.63,0,0,1-1,.24A1.54,1.54,0,0,1,913.82,702.23Zm1.82,14.19a1.15,1.15,0,0,1-1.63,0,1.13,1.13,0,0,1-.32-.81V705.22a1.16,1.16,0,0,1,.32-.82,1.15,1.15,0,0,1,1.63,0,1.12,1.12,0,0,1,.33.82v10.39A1.1,1.1,0,0,1,915.64,716.42Z" transform="translate(-225 -173.05)"/><path d="M927.88,704.5q1.26.6,1.26,1.53a1.09,1.09,0,0,1-.26.73.82.82,0,0,1-.67.33,1,1,0,0,1-.49-.1,5.48,5.48,0,0,1-.5-.31,2.15,2.15,0,0,0-.45-.34,3.74,3.74,0,0,0-.82-.24,5.72,5.72,0,0,0-1-.09,4.19,4.19,0,0,0-2.2.57,3.9,3.9,0,0,0-1.49,1.6,4.9,4.9,0,0,0-.53,2.27,4.85,4.85,0,0,0,.52,2.28,3.82,3.82,0,0,0,1.45,1.58,3.91,3.91,0,0,0,2.13.58,4.46,4.46,0,0,0,2-.39,3.38,3.38,0,0,0,.45-.31,3.23,3.23,0,0,1,.42-.29,1,1,0,0,1,.45-.09,1,1,0,0,1,.75.3,1.08,1.08,0,0,1,.28.78,1.31,1.31,0,0,1-.64,1,5.08,5.08,0,0,1-1.7.81,8.07,8.07,0,0,1-2.29.31,6,6,0,0,1-3.22-.85,5.75,5.75,0,0,1-2.15-2.35,7.4,7.4,0,0,1-.75-3.35,7,7,0,0,1,.79-3.35,5.89,5.89,0,0,1,2.21-2.35,6.12,6.12,0,0,1,3.24-.85A7.31,7.31,0,0,1,927.88,704.5Z" transform="translate(-225 -173.05)"/><path d="M930.66,714.14a1.09,1.09,0,0,1,1.05-1,1.09,1.09,0,0,1,.79.36,5.12,5.12,0,0,0,1.55,1.22,4.32,4.32,0,0,0,2,.41,3.24,3.24,0,0,0,1.61-.42,1.37,1.37,0,0,0,.7-1.28,1.38,1.38,0,0,0-.71-1.25,8,8,0,0,0-2.08-.79,14.69,14.69,0,0,1-2.23-.76,4,4,0,0,1-1.5-1.15,3,3,0,0,1-.61-2,3.08,3.08,0,0,1,.61-1.9,4.16,4.16,0,0,1,1.63-1.27,5.44,5.44,0,0,1,2.22-.45,6.32,6.32,0,0,1,2.29.43,4.34,4.34,0,0,1,1.86,1.32,1,1,0,0,1,.29.69,1.05,1.05,0,0,1-.38.75.88.88,0,0,1-.6.21.91.91,0,0,1-.7-.28,3.33,3.33,0,0,0-1.23-.89,4.07,4.07,0,0,0-1.62-.31,3,3,0,0,0-1.55.37,1.34,1.34,0,0,0-.64,1.26,1.42,1.42,0,0,0,.73,1.25,9.78,9.78,0,0,0,2.18.79,12.85,12.85,0,0,1,2.11.72,3.53,3.53,0,0,1,1.41,1.14,3.13,3.13,0,0,1,.58,2,3.08,3.08,0,0,1-.65,1.95,4.11,4.11,0,0,1-1.69,1.28,5.71,5.71,0,0,1-2.22.44,7.35,7.35,0,0,1-2.8-.53,5.2,5.2,0,0,1-2.17-1.68A1.22,1.22,0,0,1,930.66,714.14Z" transform="translate(-225 -173.05)"/><path d="M303.14,386.7a.69.69,0,0,1,.21.5,1,1,0,0,1-.51.8,4.17,4.17,0,0,1-1.25.62,4.37,4.37,0,0,1-1.34.24,5.4,5.4,0,0,1-1.59-.19,6.79,6.79,0,0,1-1.26-.56,6.3,6.3,0,0,0-.82-.39,2.11,2.11,0,0,0-.75-.12,1,1,0,0,0-.36.06,2.26,2.26,0,0,0-.33.13,1.55,1.55,0,0,1-.72.19.68.68,0,0,1-.52-.23.75.75,0,0,1-.21-.52.62.62,0,0,1,.43-.65l1.79-.66a5.05,5.05,0,0,1-2.3-1,5.49,5.49,0,0,1-1.57-2,6.28,6.28,0,0,1-.56-2.64,6.1,6.1,0,0,1,.7-2.93,5.32,5.32,0,0,1,1.92-2.07,5.48,5.48,0,0,1,5.57,0,5.34,5.34,0,0,1,1.93,2.07,6.48,6.48,0,0,1,.16,5.52,5.6,5.6,0,0,1-1.5,2,5,5,0,0,1-2.2,1.05l-1.22.45a2.69,2.69,0,0,1,.73.18c.22.09.48.22.79.38a8.64,8.64,0,0,0,1,.44,2.93,2.93,0,0,0,1,.15,2.17,2.17,0,0,0,.8-.13,2.51,2.51,0,0,0,.64-.35l.29-.23a2.85,2.85,0,0,1,.31-.21.55.55,0,0,1,.28-.07A.67.67,0,0,1,303.14,386.7Zm-9.53-4.29a3.78,3.78,0,0,0,1.33,1.52,3.71,3.71,0,0,0,3.89,0,3.81,3.81,0,0,0,1.34-1.52,5.15,5.15,0,0,0,0-4.34,3.81,3.81,0,0,0-1.34-1.52,3.49,3.49,0,0,0-1.94-.55,3.57,3.57,0,0,0-1.95.54,3.72,3.72,0,0,0-1.33,1.52,5.17,5.17,0,0,0,0,4.35Z" transform="translate(-225 -173.05)"/><path d="M312.7,375.94a.81.81,0,0,1-.2.52.61.61,0,0,1-.52.26,1,1,0,0,1-.44-.11,4.2,4.2,0,0,0-2.14-.56,4.1,4.1,0,0,0-2.12.53,3.64,3.64,0,0,0-1.43,1.48,4.53,4.53,0,0,0-.51,2.18,4.7,4.7,0,0,0,.52,2.29,3.6,3.6,0,0,0,1.46,1.46,4.24,4.24,0,0,0,2.08.51,4.11,4.11,0,0,0,2.14-.58,1,1,0,0,1,.42-.1.66.66,0,0,1,.56.28.79.79,0,0,1,.19.51.65.65,0,0,1-.1.36.7.7,0,0,1-.28.26,6.27,6.27,0,0,1-2.93.77,6,6,0,0,1-2.86-.69,5.19,5.19,0,0,1-2.08-2,6,6,0,0,1-.77-3.07,5.84,5.84,0,0,1,.74-2.92,5.45,5.45,0,0,1,2.05-2.05,5.84,5.84,0,0,1,2.92-.74,5.74,5.74,0,0,1,2.91.77A.67.67,0,0,1,312.7,375.94Z" transform="translate(-225 -173.05)"/><path d="M487.86,319.15a.72.72,0,0,1-.72.74.65.65,0,0,1-.4-.14.85.85,0,0,1-.3-.37l-1-2.36H480.5l-1,2.37a.68.68,0,0,1-.27.37.64.64,0,0,1-.4.13.7.7,0,0,1-.52-.18.69.69,0,0,1-.17-.48,1.93,1.93,0,0,1,0-.25l4.08-9.89a.87.87,0,0,1,.31-.39.68.68,0,0,1,.46-.11.73.73,0,0,1,.43.13.68.68,0,0,1,.27.37l4.07,9.76A1,1,0,0,1,487.86,319.15Zm-6.75-3.58h3.73L483,311.09Z" transform="translate(-225 -173.05)"/><path d="M488.66,318.1a.66.66,0,0,1,.34-.55.67.67,0,0,1,.37-.11.74.74,0,0,1,.53.24,3.55,3.55,0,0,0,1,.82,3,3,0,0,0,1.32.27,2.33,2.33,0,0,0,1.07-.28,1,1,0,0,0,0-1.69,5.3,5.3,0,0,0-1.38-.53,10.71,10.71,0,0,1-1.49-.5,2.69,2.69,0,0,1-1-.77,2.23,2.23,0,0,1,0-2.58,2.58,2.58,0,0,1,1.09-.85,3.6,3.6,0,0,1,1.48-.31,4.36,4.36,0,0,1,1.53.29,2.93,2.93,0,0,1,1.24.88.76.76,0,0,1,.19.47.69.69,0,0,1-.26.49.55.55,0,0,1-.4.15.6.6,0,0,1-.46-.2,2.37,2.37,0,0,0-.83-.59,2.67,2.67,0,0,0-1.08-.21,2.07,2.07,0,0,0-1,.25,1,1,0,0,0,.07,1.67,5.65,5.65,0,0,0,1.44.53,8.81,8.81,0,0,1,1.41.48,2.51,2.51,0,0,1,.95.76,2.17,2.17,0,0,1,.38,1.32,2.06,2.06,0,0,1-.43,1.31,2.82,2.82,0,0,1-1.13.84,3.69,3.69,0,0,1-1.48.3,4.93,4.93,0,0,1-1.86-.35,3.52,3.52,0,0,1-1.45-1.12A.8.8,0,0,1,488.66,318.1Z" transform="translate(-225 -173.05)"/><path d="M496.3,318.1a.65.65,0,0,1,.33-.55.67.67,0,0,1,.37-.11.74.74,0,0,1,.53.24,3.55,3.55,0,0,0,1,.82,3,3,0,0,0,1.32.27,2.29,2.29,0,0,0,1.07-.28,1,1,0,0,0,0-1.69,5.3,5.3,0,0,0-1.38-.53,11.19,11.19,0,0,1-1.49-.5,2.69,2.69,0,0,1-1-.77,2.23,2.23,0,0,1,0-2.58,2.65,2.65,0,0,1,1.09-.85,3.63,3.63,0,0,1,1.48-.31,4.36,4.36,0,0,1,1.53.29,2.93,2.93,0,0,1,1.24.88.71.71,0,0,1,.19.47.69.69,0,0,1-.26.49.55.55,0,0,1-.4.15.6.6,0,0,1-.46-.2,2.33,2.33,0,0,0-.82-.59,2.74,2.74,0,0,0-1.08-.21,2.11,2.11,0,0,0-1,.25,1,1,0,0,0,.07,1.67,5.75,5.75,0,0,0,1.45.53,9,9,0,0,1,1.4.48,2.51,2.51,0,0,1,1,.76,2.17,2.17,0,0,1,.38,1.32,2.06,2.06,0,0,1-.43,1.31,2.75,2.75,0,0,1-1.13.84,3.69,3.69,0,0,1-1.48.3,4.93,4.93,0,0,1-1.86-.35,3.52,3.52,0,0,1-1.45-1.12A.78.78,0,0,1,496.3,318.1Z" transform="translate(-225 -173.05)"/><path d="M511.67,315.82a.78.78,0,0,1-.53.2h-5.63a2.81,2.81,0,0,0,.89,1.87,2.72,2.72,0,0,0,1.9.7,2.93,2.93,0,0,0,1.24-.22,3,3,0,0,0,.85-.58,1,1,0,0,1,.47-.14.58.58,0,0,1,.45.19.65.65,0,0,1,.19.45.82.82,0,0,1-.32.61,3.66,3.66,0,0,1-1.24.78,4.07,4.07,0,0,1-1.56.32,4.63,4.63,0,0,1-2.28-.54,3.77,3.77,0,0,1-1.52-1.52,4.49,4.49,0,0,1-.54-2.21,4.84,4.84,0,0,1,.55-2.36,4,4,0,0,1,1.46-1.56,3.72,3.72,0,0,1,3.86,0,4,4,0,0,1,1.44,1.46,4.17,4.17,0,0,1,.56,2.08A.7.7,0,0,1,511.67,315.82Zm-5.23-2.64a2.4,2.4,0,0,0-.86,1.56h4.72v-.13a2,2,0,0,0-.76-1.39,2.39,2.39,0,0,0-1.55-.55A2.45,2.45,0,0,0,506.44,313.18Z" transform="translate(-225 -173.05)"/><path d="M526.09,314.8v4.27a.74.74,0,0,1-.21.55.7.7,0,0,1-.54.22.75.75,0,0,1-.56-.22.77.77,0,0,1-.21-.55v-4.25c0-1.4-.59-2.1-1.76-2.1a2.26,2.26,0,0,0-1.13.28,2,2,0,0,0-.78.76,2,2,0,0,0-.28,1.06v4.25a.78.78,0,0,1-.22.55.72.72,0,0,1-.55.22.71.71,0,0,1-.55-.22.77.77,0,0,1-.2-.55V314.8a2.62,2.62,0,0,0-.4-1.51,1.51,1.51,0,0,0-1.33-.57,2.14,2.14,0,0,0-1.56.6,2,2,0,0,0-.62,1.48v4.27a.77.77,0,0,1-.21.55.75.75,0,0,1-.56.22.7.7,0,0,1-.54-.22.74.74,0,0,1-.21-.55v-6.85a.73.73,0,0,1,.22-.54.69.69,0,0,1,.53-.22.75.75,0,0,1,.56.22.76.76,0,0,1,.21.54v.56a3.58,3.58,0,0,1,1.11-1,2.82,2.82,0,0,1,1.52-.43,2.45,2.45,0,0,1,2.57,1.76,3.43,3.43,0,0,1,1.17-1.21,3,3,0,0,1,1.73-.55C525.15,311.31,526.09,312.47,526.09,314.8Z" transform="translate(-225 -173.05)"/><path d="M534.54,311.82a4,4,0,0,1,1.38,1.56,4.8,4.8,0,0,1,.5,2.24,4.9,4.9,0,0,1-.5,2.25,3.92,3.92,0,0,1-1.38,1.57,3.59,3.59,0,0,1-1.94.56,3.31,3.31,0,0,1-1.55-.37,3.6,3.6,0,0,1-1.17-.91v.46a.74.74,0,0,1-.22.55.71.71,0,0,1-.55.22.72.72,0,0,1-.53-.21.75.75,0,0,1-.22-.56V308.77a.74.74,0,0,1,.21-.55.7.7,0,0,1,.54-.22.71.71,0,0,1,.55.22.74.74,0,0,1,.22.55v3.9a3.31,3.31,0,0,1,1.12-1,3.11,3.11,0,0,1,1.57-.42A3.64,3.64,0,0,1,534.54,311.82Zm-.82,6.38a2.67,2.67,0,0,0,.92-1.07,3.44,3.44,0,0,0,.33-1.51,3.38,3.38,0,0,0-.33-1.51,2.55,2.55,0,0,0-.92-1.05,2.48,2.48,0,0,0-2.67,0,2.51,2.51,0,0,0-.92,1,3.67,3.67,0,0,0,0,3,2.63,2.63,0,0,0,.92,1.06,2.48,2.48,0,0,0,2.67,0Z" transform="translate(-225 -173.05)"/><path d="M539.61,319.62a.74.74,0,0,1-.55.22.69.69,0,0,1-.53-.22.74.74,0,0,1-.22-.55v-10.3a.75.75,0,0,1,.23-.55.77.77,0,0,1,1.08,0,.77.77,0,0,1,.21.55v10.3A.74.74,0,0,1,539.61,319.62Z" transform="translate(-225 -173.05)"/><path d="M548.78,311.6a.73.73,0,0,1,.22.54v6.92a3.84,3.84,0,0,1-1.1,3,4.22,4.22,0,0,1-2.92,1,6.42,6.42,0,0,1-1.16-.11,3.65,3.65,0,0,1-1-.31c-.39-.18-.59-.42-.59-.73a1,1,0,0,1,0-.21,1.09,1.09,0,0,1,.27-.42.65.65,0,0,1,.4-.14.6.6,0,0,1,.24.05c.33.15.63.26.88.35a3,3,0,0,0,.9.13,2.22,2.22,0,0,0,2.48-2.55v-.32a2.87,2.87,0,0,1-1.11.9,3.72,3.72,0,0,1-1.56.32,2.58,2.58,0,0,1-2.07-.85,3.21,3.21,0,0,1-.75-2.22v-4.79a.77.77,0,0,1,.21-.55.73.73,0,0,1,.54-.21.75.75,0,0,1,.56.22.76.76,0,0,1,.21.54v4.39a2.26,2.26,0,0,0,.47,1.56,1.81,1.81,0,0,0,1.4.5,2.1,2.1,0,0,0,1.51-.57,2,2,0,0,0,.59-1.49v-4.39a.77.77,0,0,1,.21-.55.73.73,0,0,1,.54-.21A.71.71,0,0,1,548.78,311.6Z" transform="translate(-225 -173.05)"/><path d="M657.18,314.73a2.76,2.76,0,0,1,.57,1.81,2.94,2.94,0,0,1-1,2.54,4.12,4.12,0,0,1-2.52.76h-4.11a.75.75,0,0,1-.77-.77v-9.66a.75.75,0,0,1,.77-.77h4.11a3.12,3.12,0,0,1,2.22.72,2.75,2.75,0,0,1,.76,2.08,2.63,2.63,0,0,1-.37,1.37,2.42,2.42,0,0,1-1.07.92A3.06,3.06,0,0,1,657.18,314.73Zm-2.06-4.19a1.54,1.54,0,0,0-1.14-.4h-3v3.12H654a1.59,1.59,0,0,0,1.09-.42,1.55,1.55,0,0,0,.43-1.16A1.51,1.51,0,0,0,655.12,310.54Zm.47,7.37a1.71,1.71,0,0,0,.53-1.37c0-1.18-.67-1.77-2-1.77H651v3.6h3.23A2,2,0,0,0,655.59,317.91Z" transform="translate(-225 -173.05)"/><path d="M659.58,310.15a.66.66,0,0,1-.2-.53v-.26a.62.62,0,0,1,.22-.54,1.09,1.09,0,0,1,.66-.16,1,1,0,0,1,.65.16.65.65,0,0,1,.2.54v.26a.65.65,0,0,1-.21.54,1,1,0,0,1-.65.16A1.08,1.08,0,0,1,659.58,310.15Zm1.22,9.47a.72.72,0,0,1-.55.22.73.73,0,0,1-.54-.22.77.77,0,0,1-.21-.55v-6.93a.76.76,0,0,1,.21-.54.73.73,0,0,1,.54-.22.72.72,0,0,1,.55.22.77.77,0,0,1,.22.54v6.93A.78.78,0,0,1,660.8,319.62Z" transform="translate(-225 -173.05)"/><path d="M670.36,314.72v4.35a.74.74,0,0,1-.22.55.71.71,0,0,1-.55.22.69.69,0,0,1-.53-.22.74.74,0,0,1-.22-.55v-4.33a2.42,2.42,0,0,0-.43-1.51,1.68,1.68,0,0,0-1.41-.56,2.49,2.49,0,0,0-1.16.28,2.2,2.2,0,0,0-.82.75,2,2,0,0,0-.29,1v4.33a.74.74,0,0,1-.22.55.72.72,0,0,1-.55.22.69.69,0,0,1-.54-.22.74.74,0,0,1-.21-.55v-6.85a.76.76,0,0,1,.21-.54.73.73,0,0,1,.54-.22.72.72,0,0,1,.55.22.73.73,0,0,1,.22.54v.56a3.56,3.56,0,0,1,1.16-1.08,3.07,3.07,0,0,1,1.59-.44C669.4,311.26,670.36,312.42,670.36,314.72Z" transform="translate(-225 -173.05)"/><path d="M679.78,314.72v4.35a.77.77,0,0,1-.21.55.74.74,0,0,1-.55.22.7.7,0,0,1-.54-.22.78.78,0,0,1-.22-.55v-4.33a2.42,2.42,0,0,0-.43-1.51,1.68,1.68,0,0,0-1.41-.56,2.52,2.52,0,0,0-1.16.28,2.25,2.25,0,0,0-.81.75,1.91,1.91,0,0,0-.3,1v4.33a.77.77,0,0,1-.21.55.75.75,0,0,1-.56.22.7.7,0,0,1-.54-.22.74.74,0,0,1-.21-.55v-6.85a.73.73,0,0,1,.22-.54.69.69,0,0,1,.53-.22.75.75,0,0,1,.56.22.76.76,0,0,1,.21.54v.56a3.67,3.67,0,0,1,1.16-1.08,3.13,3.13,0,0,1,1.59-.44C678.82,311.26,679.78,312.42,679.78,314.72Z" transform="translate(-225 -173.05)"/><path d="M682.06,310.15a.66.66,0,0,1-.2-.53v-.26a.62.62,0,0,1,.22-.54,1.09,1.09,0,0,1,.66-.16,1,1,0,0,1,.65.16.65.65,0,0,1,.2.54v.26a.65.65,0,0,1-.21.54,1,1,0,0,1-.65.16A1.08,1.08,0,0,1,682.06,310.15Zm1.22,9.47a.79.79,0,0,1-1.09,0,.77.77,0,0,1-.21-.55v-6.93a.76.76,0,0,1,.21-.54.79.79,0,0,1,1.09,0,.77.77,0,0,1,.22.54v6.93A.78.78,0,0,1,683.28,319.62Z" transform="translate(-225 -173.05)"/><path d="M692.84,314.72v4.35a.74.74,0,0,1-.22.55.71.71,0,0,1-.55.22.69.69,0,0,1-.53-.22.74.74,0,0,1-.22-.55v-4.33a2.42,2.42,0,0,0-.43-1.51,1.68,1.68,0,0,0-1.41-.56,2.49,2.49,0,0,0-1.16.28,2.2,2.2,0,0,0-.82.75,2,2,0,0,0-.29,1v4.33a.74.74,0,0,1-.22.55.72.72,0,0,1-.55.22.69.69,0,0,1-.54-.22.74.74,0,0,1-.21-.55v-6.85a.76.76,0,0,1,.21-.54.73.73,0,0,1,.54-.22.72.72,0,0,1,.55.22.73.73,0,0,1,.22.54v.56a3.46,3.46,0,0,1,1.16-1.08,3.07,3.07,0,0,1,1.59-.44C691.88,311.26,692.84,312.42,692.84,314.72Z" transform="translate(-225 -173.05)"/><path d="M702.67,311.56a.74.74,0,0,1,.22.57v7a4.09,4.09,0,0,1-.55,2.17,3.28,3.28,0,0,1-1.5,1.28,5.19,5.19,0,0,1-2.13.42,6,6,0,0,1-1.49-.22,2.62,2.62,0,0,1-1.1-.47c-.33-.17-.5-.38-.5-.64a.72.72,0,0,1,.66-.65,1.29,1.29,0,0,1,.45.09,6,6,0,0,0,2,.5,2.84,2.84,0,0,0,2-.62,2.17,2.17,0,0,0,.68-1.69v-.86a2.8,2.8,0,0,1-1.13,1.07,3.35,3.35,0,0,1-1.67.45,3.82,3.82,0,0,1-2-.56,3.86,3.86,0,0,1-1.43-1.56,5.13,5.13,0,0,1,0-4.5,4,4,0,0,1,1.42-1.56,3.77,3.77,0,0,1,2-.56,3.58,3.58,0,0,1,1.64.4,3.66,3.66,0,0,1,1.19,1v-.51a.78.78,0,0,1,.21-.56.69.69,0,0,1,.54-.23A.76.76,0,0,1,702.67,311.56Zm-2.53,6.66a2.64,2.64,0,0,0,1-1.06,3.59,3.59,0,0,0,0-3.05,2.62,2.62,0,0,0-1-1.05,2.54,2.54,0,0,0-1.4-.39,2.47,2.47,0,0,0-1.37.39,2.51,2.51,0,0,0-1,1.06,3.43,3.43,0,0,0,0,3,2.52,2.52,0,0,0,2.32,1.45A2.62,2.62,0,0,0,700.14,318.22Z" transform="translate(-225 -173.05)"/><path class="cls-9" d="M798.21,319.15a.68.68,0,0,1-.22.53.69.69,0,0,1-.5.21.68.68,0,0,1-.41-.14.91.91,0,0,1-.29-.37l-1-2.36h-4.94l-1,2.37a.72.72,0,0,1-.26.37.67.67,0,0,1-.41.13.69.69,0,0,1-.51-.18.65.65,0,0,1-.18-.48,1.93,1.93,0,0,1,0-.25l4.08-9.89a.89.89,0,0,1,.32-.39.64.64,0,0,1,.45-.11.71.71,0,0,1,.43.13.75.75,0,0,1,.28.37l4.06,9.76A1,1,0,0,1,798.21,319.15Zm-6.75-3.58h3.72l-1.87-4.48Z" transform="translate(-225 -173.05)"/><path class="cls-9" d="M806.79,314.72v4.35a.78.78,0,0,1-.22.55.74.74,0,0,1-.55.22.7.7,0,0,1-.54-.22.78.78,0,0,1-.22-.55v-4.33a2.42,2.42,0,0,0-.43-1.51,1.67,1.67,0,0,0-1.41-.56,2.52,2.52,0,0,0-1.16.28,2.25,2.25,0,0,0-.81.75,1.91,1.91,0,0,0-.3,1v4.33a.77.77,0,0,1-.21.55.75.75,0,0,1-.56.22.7.7,0,0,1-.54-.22.74.74,0,0,1-.21-.55v-6.85a.77.77,0,0,1,.22-.54.69.69,0,0,1,.53-.22.75.75,0,0,1,.56.22.76.76,0,0,1,.21.54v.56a3.67,3.67,0,0,1,1.16-1.08,3.13,3.13,0,0,1,1.59-.44C805.82,311.26,806.79,312.42,806.79,314.72Z" transform="translate(-225 -173.05)"/><path class="cls-9" d="M816.21,314.72v4.35a.74.74,0,0,1-.22.55.72.72,0,0,1-.55.22.73.73,0,0,1-.54-.22.77.77,0,0,1-.21-.55v-4.33a2.48,2.48,0,0,0-.43-1.51,1.68,1.68,0,0,0-1.41-.56,2.49,2.49,0,0,0-1.16.28,2.2,2.2,0,0,0-.82.75,1.9,1.9,0,0,0-.29,1v4.33a.78.78,0,0,1-.22.55.72.72,0,0,1-.55.22.71.71,0,0,1-.55-.22.73.73,0,0,1-.2-.55v-6.85a.76.76,0,0,1,.21-.54.79.79,0,0,1,1.09,0,.77.77,0,0,1,.22.54v.56a3.46,3.46,0,0,1,1.16-1.08,3.07,3.07,0,0,1,1.59-.44C815.25,311.26,816.21,312.42,816.21,314.72Z" transform="translate(-225 -173.05)"/><path class="cls-9" d="M825.86,317.89a4.14,4.14,0,0,1-1.53,1.55,4.25,4.25,0,0,1-2.14.56,4.18,4.18,0,0,1-2.13-.56,4,4,0,0,1-1.53-1.55,4.41,4.41,0,0,1-.56-2.24,4.51,4.51,0,0,1,.56-2.26,4.05,4.05,0,0,1,1.53-1.57,4.18,4.18,0,0,1,2.13-.56,4.25,4.25,0,0,1,2.14.56,4.19,4.19,0,0,1,1.53,1.57,4.62,4.62,0,0,1,.56,2.26A4.51,4.51,0,0,1,825.86,317.89Zm-1.32-3.79a2.69,2.69,0,0,0-1-1.05,2.66,2.66,0,0,0-2.74,0,2.66,2.66,0,0,0-1,1.05,3.28,3.28,0,0,0-.36,1.55,3.19,3.19,0,0,0,.36,1.52,2.66,2.66,0,0,0,1,1.05,2.72,2.72,0,0,0,2.74,0,2.69,2.69,0,0,0,1-1.05,3.19,3.19,0,0,0,.36-1.52A3.28,3.28,0,0,0,824.54,314.1Z" transform="translate(-225 -173.05)"/><path class="cls-9" d="M830.45,312.94v4.77c0,.54.24.8.72.8a1.53,1.53,0,0,0,.3-.05,1.1,1.1,0,0,1,.31-.06.45.45,0,0,1,.35.18.68.68,0,0,1,.14.44.69.69,0,0,1-.38.58,1.63,1.63,0,0,1-.87.24,4.08,4.08,0,0,1-1-.11,1.48,1.48,0,0,1-.79-.57,2.28,2.28,0,0,1-.34-1.38v-4.84H828a.71.71,0,0,1-.5-1.2.72.72,0,0,1,.5-.19h.93v-1.34a.77.77,0,0,1,.21-.55.75.75,0,0,1,.56-.22.69.69,0,0,1,.53.22.74.74,0,0,1,.22.55v1.34h1.33a.69.69,0,0,1,.5.2.71.71,0,0,1,.2.51.66.66,0,0,1-.2.49.68.68,0,0,1-.5.19Z" transform="translate(-225 -173.05)"/><path class="cls-9" d="M841.61,311.56a.77.77,0,0,1,.21.57v6.94a.77.77,0,0,1-.21.55.74.74,0,0,1-.55.22.71.71,0,0,1-.55-.22.74.74,0,0,1-.21-.55v-.41a3.35,3.35,0,0,1-1.13.95,3.21,3.21,0,0,1-1.55.39,3.65,3.65,0,0,1-2-.56,3.77,3.77,0,0,1-1.39-1.56,5.22,5.22,0,0,1,0-4.5,3.87,3.87,0,0,1,1.38-1.56,3.57,3.57,0,0,1,1.94-.56,3.48,3.48,0,0,1,1.57.36,3.12,3.12,0,0,1,1.16.89v-.38a.78.78,0,0,1,.21-.56.72.72,0,0,1,.55-.23A.78.78,0,0,1,841.61,311.56Zm-2.48,6.65a2.62,2.62,0,0,0,.91-1.06,3.62,3.62,0,0,0,0-3,2.72,2.72,0,0,0-.91-1.07,2.37,2.37,0,0,0-1.34-.39,2.34,2.34,0,0,0-1.33.39,2.55,2.55,0,0,0-.92,1.05,3.77,3.77,0,0,0,0,3,2.64,2.64,0,0,0,.92,1.06,2.41,2.41,0,0,0,1.33.38A2.44,2.44,0,0,0,839.13,318.21Z" transform="translate(-225 -173.05)"/><path class="cls-9" d="M846.35,312.94v4.77c0,.54.24.8.72.8a1.5,1.5,0,0,0,.31-.05,1,1,0,0,1,.3-.06.42.42,0,0,1,.35.18.63.63,0,0,1,.15.44.68.68,0,0,1-.39.58,1.57,1.57,0,0,1-.86.24,4.17,4.17,0,0,1-1-.11,1.49,1.49,0,0,1-.78-.57,2.28,2.28,0,0,1-.35-1.38v-4.84h-.93a.65.65,0,0,1-.5-.2.73.73,0,0,1,0-1,.72.72,0,0,1,.5-.19h.93v-1.34a.74.74,0,0,1,.22-.55.72.72,0,0,1,.55-.22.73.73,0,0,1,.54.22.77.77,0,0,1,.21.55v1.34h1.33a.69.69,0,0,1,.5.2.67.67,0,0,1,.2.51.63.63,0,0,1-.2.49.68.68,0,0,1-.5.19Z" transform="translate(-225 -173.05)"/><path class="cls-9" d="M850.17,310.15a.66.66,0,0,1-.2-.53v-.26a.62.62,0,0,1,.21-.54,1.12,1.12,0,0,1,.67-.16,1,1,0,0,1,.65.16.69.69,0,0,1,.2.54v.26a.65.65,0,0,1-.21.54,1.07,1.07,0,0,1-.66.16A1,1,0,0,1,850.17,310.15Zm1.21,9.47a.71.71,0,0,1-.55.22.69.69,0,0,1-.53-.22.74.74,0,0,1-.22-.55v-6.93a.73.73,0,0,1,.22-.54.69.69,0,0,1,.53-.22.71.71,0,0,1,.55.22.73.73,0,0,1,.22.54v6.93A.74.74,0,0,1,851.38,319.62Z" transform="translate(-225 -173.05)"/><path class="cls-9" d="M861.17,317.89a4.07,4.07,0,0,1-1.53,1.55,4.35,4.35,0,0,1-4.27,0,4,4,0,0,1-1.53-1.55,4.51,4.51,0,0,1-.56-2.24,4.62,4.62,0,0,1,.56-2.26,4.05,4.05,0,0,1,1.53-1.57,4.35,4.35,0,0,1,4.27,0,4.12,4.12,0,0,1,1.53,1.57,4.62,4.62,0,0,1,.56,2.26A4.51,4.51,0,0,1,861.17,317.89Zm-1.32-3.79a2.69,2.69,0,0,0-1-1.05,2.64,2.64,0,0,0-2.73,0,2.69,2.69,0,0,0-1,1.05,3.28,3.28,0,0,0-.36,1.55,3.19,3.19,0,0,0,.36,1.52,2.69,2.69,0,0,0,1,1.05,2.7,2.7,0,0,0,2.73,0,2.69,2.69,0,0,0,1-1.05,3.19,3.19,0,0,0,.36-1.52A3.28,3.28,0,0,0,859.85,314.1Z" transform="translate(-225 -173.05)"/><path class="cls-9" d="M870.64,314.72v4.35a.74.74,0,0,1-.22.55.71.71,0,0,1-.55.22.69.69,0,0,1-.53-.22.74.74,0,0,1-.22-.55v-4.33a2.42,2.42,0,0,0-.43-1.51,1.68,1.68,0,0,0-1.41-.56,2.49,2.49,0,0,0-1.16.28,2.2,2.2,0,0,0-.82.75,2,2,0,0,0-.29,1v4.33a.74.74,0,0,1-.22.55.72.72,0,0,1-.55.22.69.69,0,0,1-.54-.22.74.74,0,0,1-.21-.55v-6.85a.76.76,0,0,1,.21-.54.73.73,0,0,1,.54-.22.72.72,0,0,1,.55.22.73.73,0,0,1,.22.54v.56a3.56,3.56,0,0,1,1.16-1.08,3.07,3.07,0,0,1,1.59-.44C869.68,311.26,870.64,312.42,870.64,314.72Z" transform="translate(-225 -173.05)"/><path d="M533.57,518.84a.7.7,0,0,1,.21.54.66.66,0,0,1-.21.52.81.81,0,0,1-.55.2h-2.85v9a.75.75,0,0,1-.23.55.82.82,0,0,1-.59.22.79.79,0,0,1-.58-.22.71.71,0,0,1-.23-.55v-9H525.7a.81.81,0,0,1-.55-.2.73.73,0,0,1-.21-.54.69.69,0,0,1,.21-.52.81.81,0,0,1,.55-.2H533A.81.81,0,0,1,533.57,518.84Z" transform="translate(-225 -173.05)"/><path d="M541.18,521.56a.74.74,0,0,1,.22.57v6.94a.74.74,0,0,1-.22.55.71.71,0,0,1-.55.22.7.7,0,0,1-.54-.22.74.74,0,0,1-.21-.55v-.41a3.49,3.49,0,0,1-1.14,1,3.19,3.19,0,0,1-1.55.39,3.64,3.64,0,0,1-2-.56,3.79,3.79,0,0,1-1.4-1.56,5.31,5.31,0,0,1,0-4.5,4,4,0,0,1,1.39-1.56,3.62,3.62,0,0,1,3.51-.2,3.21,3.21,0,0,1,1.16.89v-.38a.78.78,0,0,1,.21-.56.71.71,0,0,1,.54-.23A.75.75,0,0,1,541.18,521.56Zm-2.48,6.65a2.64,2.64,0,0,0,.92-1.06,3.72,3.72,0,0,0,0-3,2.74,2.74,0,0,0-.92-1.07,2.34,2.34,0,0,0-1.33-.39,2.37,2.37,0,0,0-1.34.39,2.53,2.53,0,0,0-.91,1.05,3.67,3.67,0,0,0,0,3,2.62,2.62,0,0,0,.91,1.06,2.44,2.44,0,0,0,1.34.38A2.41,2.41,0,0,0,538.7,528.21Z" transform="translate(-225 -173.05)"/><path d="M549.93,529.1a.76.76,0,0,1-.24.56.77.77,0,0,1-.53.23.75.75,0,0,1-.62-.34l-2.15-2.7-2.11,2.7a.62.62,0,0,1-.27.24.68.68,0,0,1-.34.08.76.76,0,0,1-.5-.2.58.58,0,0,1-.23-.47.72.72,0,0,1,.17-.48l2.4-3-2.46-3.11a.66.66,0,0,1-.16-.44.75.75,0,0,1,.23-.55.77.77,0,0,1,1.16.1l2.19,2.77,2.07-2.76a.72.72,0,0,1,.6-.33.69.69,0,0,1,.52.2.65.65,0,0,1,.2.47.71.71,0,0,1-.17.5l-2.37,3,2.43,3.09A.6.6,0,0,1,549.93,529.1Z" transform="translate(-225 -173.05)"/><path d="M558.73,527.89a4.07,4.07,0,0,1-1.53,1.55,4.35,4.35,0,0,1-4.27,0,4,4,0,0,1-1.53-1.55,4.51,4.51,0,0,1-.56-2.24,4.62,4.62,0,0,1,.56-2.26,4.05,4.05,0,0,1,1.53-1.57,4.35,4.35,0,0,1,4.27,0,4.12,4.12,0,0,1,1.53,1.57,4.62,4.62,0,0,1,.56,2.26A4.51,4.51,0,0,1,558.73,527.89Zm-1.32-3.79a2.69,2.69,0,0,0-1-1.05,2.64,2.64,0,0,0-2.73,0,2.69,2.69,0,0,0-1,1.05,3.28,3.28,0,0,0-.36,1.55,3.19,3.19,0,0,0,.36,1.52,2.76,2.76,0,0,0,1,1.05,2.7,2.7,0,0,0,2.73,0,2.76,2.76,0,0,0,1-1.05,3.19,3.19,0,0,0,.36-1.52A3.28,3.28,0,0,0,557.41,524.1Z" transform="translate(-225 -173.05)"/><path d="M568.2,524.72v4.35a.74.74,0,0,1-.22.55.71.71,0,0,1-.55.22.69.69,0,0,1-.53-.22.74.74,0,0,1-.22-.55v-4.33a2.42,2.42,0,0,0-.43-1.51,1.68,1.68,0,0,0-1.41-.56,2.49,2.49,0,0,0-1.16.28,2.2,2.2,0,0,0-.82.75,2,2,0,0,0-.29,1v4.33a.74.74,0,0,1-.22.55.72.72,0,0,1-.55.22.69.69,0,0,1-.54-.22.74.74,0,0,1-.21-.55v-6.85a.76.76,0,0,1,.21-.54.73.73,0,0,1,.54-.22.72.72,0,0,1,.55.22.73.73,0,0,1,.22.54v.56a3.56,3.56,0,0,1,1.16-1.08,3.07,3.07,0,0,1,1.59-.44C567.24,521.26,568.2,522.42,568.2,524.72Z" transform="translate(-225 -173.05)"/><path d="M577.85,527.89a4.07,4.07,0,0,1-1.53,1.55,4.35,4.35,0,0,1-4.27,0,4,4,0,0,1-1.53-1.55,4.51,4.51,0,0,1-.56-2.24,4.62,4.62,0,0,1,.56-2.26,4.05,4.05,0,0,1,1.53-1.57,4.35,4.35,0,0,1,4.27,0,4.12,4.12,0,0,1,1.53,1.57,4.62,4.62,0,0,1,.56,2.26A4.51,4.51,0,0,1,577.85,527.89Zm-1.32-3.79a2.69,2.69,0,0,0-1-1.05,2.64,2.64,0,0,0-2.73,0,2.69,2.69,0,0,0-1,1.05,3.28,3.28,0,0,0-.36,1.55,3.19,3.19,0,0,0,.36,1.52,2.76,2.76,0,0,0,1,1.05,2.7,2.7,0,0,0,2.73,0,2.76,2.76,0,0,0,1-1.05,3.19,3.19,0,0,0,.36-1.52A3.28,3.28,0,0,0,576.53,524.1Z" transform="translate(-225 -173.05)"/><path d="M592.58,524.8v4.27a.77.77,0,0,1-.2.55.71.71,0,0,1-.55.22.72.72,0,0,1-.55-.22.78.78,0,0,1-.22-.55v-4.25c0-1.4-.58-2.1-1.76-2.1a2.22,2.22,0,0,0-1.12.28,2.06,2.06,0,0,0-.79.76,2.12,2.12,0,0,0-.28,1.06v4.25a.77.77,0,0,1-.21.55.75.75,0,0,1-.56.22.7.7,0,0,1-.54-.22.74.74,0,0,1-.21-.55V524.8a2.55,2.55,0,0,0-.4-1.51,1.51,1.51,0,0,0-1.33-.57,2.14,2.14,0,0,0-1.56.6,2,2,0,0,0-.61,1.48v4.27a.74.74,0,0,1-.22.55.72.72,0,0,1-.55.22.69.69,0,0,1-.54-.22.74.74,0,0,1-.21-.55v-6.85a.76.76,0,0,1,.21-.54.73.73,0,0,1,.54-.22.72.72,0,0,1,.55.22.73.73,0,0,1,.22.54v.56a3.47,3.47,0,0,1,1.11-1,2.79,2.79,0,0,1,1.51-.43,2.47,2.47,0,0,1,2.58,1.76,3.27,3.27,0,0,1,1.17-1.21,3,3,0,0,1,1.72-.55Q592.59,521.31,592.58,524.8Z" transform="translate(-225 -173.05)"/><path d="M594.86,520.15a.66.66,0,0,1-.2-.53v-.26a.62.62,0,0,1,.22-.54,1.09,1.09,0,0,1,.66-.16,1,1,0,0,1,.65.16.67.67,0,0,1,.2.54v.26a.65.65,0,0,1-.21.54,1,1,0,0,1-.65.16A1.08,1.08,0,0,1,594.86,520.15Zm1.22,9.47a.79.79,0,0,1-1.09,0,.77.77,0,0,1-.21-.55v-6.93a.76.76,0,0,1,.21-.54.79.79,0,0,1,1.09,0,.77.77,0,0,1,.22.54v6.93A.78.78,0,0,1,596.08,529.62Z" transform="translate(-225 -173.05)"/><path d="M604.24,521.66c.56.27.84.61.84,1a.76.76,0,0,1-.18.49.54.54,0,0,1-.44.21.75.75,0,0,1-.33-.06,2.7,2.7,0,0,1-.33-.21,1.8,1.8,0,0,0-.3-.22,1.82,1.82,0,0,0-.55-.16,3,3,0,0,0-.64-.07,2.78,2.78,0,0,0-1.47.39,2.53,2.53,0,0,0-1,1.06,3.17,3.17,0,0,0-.35,1.51,3.27,3.27,0,0,0,.34,1.52,2.61,2.61,0,0,0,1,1.06,2.69,2.69,0,0,0,1.42.38,3.07,3.07,0,0,0,1.35-.25l.3-.21a1.54,1.54,0,0,1,.28-.19.56.56,0,0,1,.3-.07.65.65,0,0,1,.5.2.77.77,0,0,1,.18.52.89.89,0,0,1-.42.67,3.56,3.56,0,0,1-1.14.53,5.32,5.32,0,0,1-1.52.21,4,4,0,0,1-2.15-.57,3.81,3.81,0,0,1-1.43-1.57,4.81,4.81,0,0,1-.5-2.23,4.73,4.73,0,0,1,.52-2.23,4,4,0,0,1,1.48-1.57,4,4,0,0,1,2.16-.57A5,5,0,0,1,604.24,521.66Z" transform="translate(-225 -173.05)"/><path d="M524.83,539.14a.8.8,0,0,1-.19.52.63.63,0,0,1-.53.26,1,1,0,0,1-.43-.11,4.22,4.22,0,0,0-2.14-.56,4.1,4.1,0,0,0-2.12.53,3.67,3.67,0,0,0-1.44,1.48,4.53,4.53,0,0,0-.51,2.18,4.7,4.7,0,0,0,.53,2.29,3.54,3.54,0,0,0,1.46,1.46,4.24,4.24,0,0,0,2.08.51,4.11,4.11,0,0,0,2.14-.58,1,1,0,0,1,.42-.1.69.69,0,0,1,.56.28.85.85,0,0,1,.19.51.66.66,0,0,1-.11.36.64.64,0,0,1-.28.26,6.27,6.27,0,0,1-2.92.77,6,6,0,0,1-2.86-.69,5.19,5.19,0,0,1-2.08-2,5.89,5.89,0,0,1-.78-3.07,5.75,5.75,0,0,1,.75-2.92,5.38,5.38,0,0,1,2-2,5.84,5.84,0,0,1,2.92-.74,5.76,5.76,0,0,1,2.91.77A.68.68,0,0,1,524.83,539.14Z" transform="translate(-225 -173.05)"/><path d="M527.9,548.82a.76.76,0,0,1-.54.22.74.74,0,0,1-.75-.77V538a.74.74,0,0,1,.22-.55.78.78,0,0,1,.55-.22.75.75,0,0,1,.75.77v10.3A.75.75,0,0,1,527.9,548.82Z" transform="translate(-225 -173.05)"/><path d="M537.88,540.76a.78.78,0,0,1,.22.57v6.94a.78.78,0,0,1-.22.55.76.76,0,0,1-.55.22.71.71,0,0,1-.55-.22.77.77,0,0,1-.2-.55v-.41a3.49,3.49,0,0,1-1.14.95,3.21,3.21,0,0,1-1.55.39,3.65,3.65,0,0,1-2-.56,3.84,3.84,0,0,1-1.39-1.56,5.31,5.31,0,0,1,0-4.5A4,4,0,0,1,531.9,541a3.59,3.59,0,0,1,1.94-.56,3.52,3.52,0,0,1,1.58.36,3.29,3.29,0,0,1,1.16.89v-.38a.82.82,0,0,1,.2-.56.72.72,0,0,1,.55-.23A.76.76,0,0,1,537.88,540.76Zm-2.48,6.65a2.62,2.62,0,0,0,.91-1.06,3.62,3.62,0,0,0,0-3,2.72,2.72,0,0,0-.91-1.07,2.48,2.48,0,0,0-2.67,0,2.53,2.53,0,0,0-.91,1,3.67,3.67,0,0,0,0,3,2.62,2.62,0,0,0,.91,1.06,2.54,2.54,0,0,0,2.67,0Z" transform="translate(-225 -173.05)"/><path d="M539.73,547.3a.65.65,0,0,1,.33-.55.67.67,0,0,1,.37-.11.74.74,0,0,1,.53.24,3.55,3.55,0,0,0,1,.82,3,3,0,0,0,1.32.27,2.26,2.26,0,0,0,1.07-.28,1,1,0,0,0,0-1.69,5.54,5.54,0,0,0-1.39-.53,11.7,11.7,0,0,1-1.49-.5,2.77,2.77,0,0,1-1-.77,2.28,2.28,0,0,1,0-2.58,2.71,2.71,0,0,1,1.09-.85,3.67,3.67,0,0,1,1.48-.31,4.36,4.36,0,0,1,1.53.29,2.87,2.87,0,0,1,1.24.88.71.71,0,0,1,.19.47.67.67,0,0,1-.25.49.57.57,0,0,1-.4.15.6.6,0,0,1-.47-.2,2.33,2.33,0,0,0-.82-.59,2.74,2.74,0,0,0-1.08-.21,2,2,0,0,0-1,.25.89.89,0,0,0-.43.84.93.93,0,0,0,.49.83,5.91,5.91,0,0,0,1.45.53,9.56,9.56,0,0,1,1.41.48,2.55,2.55,0,0,1,.94.76,2.11,2.11,0,0,1,.38,1.32,2.06,2.06,0,0,1-.43,1.31,2.79,2.79,0,0,1-1.12.84,3.74,3.74,0,0,1-1.49.3,4.93,4.93,0,0,1-1.86-.35,3.58,3.58,0,0,1-1.45-1.12A.87.87,0,0,1,539.73,547.3Z" transform="translate(-225 -173.05)"/><path d="M547.36,547.3a.73.73,0,0,1,.7-.66.72.72,0,0,1,.53.24,3.68,3.68,0,0,0,1,.82,3,3,0,0,0,1.32.27,2.34,2.34,0,0,0,1.08-.28.91.91,0,0,0,.46-.86A.92.92,0,0,0,552,546a5.54,5.54,0,0,0-1.39-.53,11,11,0,0,1-1.48-.5,2.62,2.62,0,0,1-1-.77,2.23,2.23,0,0,1,0-2.58,2.62,2.62,0,0,1,1.08-.85,3.67,3.67,0,0,1,1.48-.31,4.28,4.28,0,0,1,1.53.29,2.87,2.87,0,0,1,1.24.88.71.71,0,0,1,.19.47.67.67,0,0,1-.25.49.57.57,0,0,1-.4.15.62.62,0,0,1-.47-.2,2.24,2.24,0,0,0-.82-.59,2.67,2.67,0,0,0-1.08-.21,2.07,2.07,0,0,0-1,.25.91.91,0,0,0-.43.84,1,1,0,0,0,.49.83,5.91,5.91,0,0,0,1.45.53,8.81,8.81,0,0,1,1.41.48,2.47,2.47,0,0,1,.94.76,2.11,2.11,0,0,1,.39,1.32,2.07,2.07,0,0,1-.44,1.31,2.72,2.72,0,0,1-1.12.84,3.73,3.73,0,0,1-1.48.3,4.94,4.94,0,0,1-1.87-.35,3.58,3.58,0,0,1-1.45-1.12A.87.87,0,0,1,547.36,547.3Z" transform="translate(-225 -173.05)"/><path d="M555.62,539.35a.66.66,0,0,1-.2-.53v-.26a.62.62,0,0,1,.22-.54,1.09,1.09,0,0,1,.66-.16,1,1,0,0,1,.65.16.65.65,0,0,1,.2.54v.26a.65.65,0,0,1-.21.54,1,1,0,0,1-.65.16A1.08,1.08,0,0,1,555.62,539.35Zm1.22,9.47a.76.76,0,0,1-.55.22.74.74,0,0,1-.75-.77v-6.93a.76.76,0,0,1,.21-.54.73.73,0,0,1,.54-.22.72.72,0,0,1,.55.22.77.77,0,0,1,.22.54v6.93A.78.78,0,0,1,556.84,548.82Z" transform="translate(-225 -173.05)"/><path d="M562.06,538.9a1.2,1.2,0,0,0-.25.78v1.12h1.58a.7.7,0,0,1,.52.2.65.65,0,0,1,.2.5.63.63,0,0,1-.2.5.69.69,0,0,1-.52.19h-1.58v6.08a.74.74,0,0,1-.22.55.76.76,0,0,1-.55.22.74.74,0,0,1-.75-.77v-6.08h-1a.73.73,0,0,1-.52-.19.67.67,0,0,1-.2-.5.69.69,0,0,1,.2-.5.73.73,0,0,1,.52-.2h1v-1.12a2.29,2.29,0,0,1,.72-1.78,2.86,2.86,0,0,1,2-.67,2.26,2.26,0,0,1,1,.2.65.65,0,0,1,.42.6.76.76,0,0,1-.19.51.59.59,0,0,1-.44.2l-.35-.07a2.5,2.5,0,0,0-.61-.09A.89.89,0,0,0,562.06,538.9Zm3.44.45a.63.63,0,0,1-.2-.53v-.26a.62.62,0,0,1,.21-.54,1.12,1.12,0,0,1,.67-.16,1,1,0,0,1,.64.16.65.65,0,0,1,.2.54v.26a.67.67,0,0,1-.2.54,1.07,1.07,0,0,1-.66.16A1,1,0,0,1,565.5,539.35Zm1.21,9.47a.76.76,0,0,1-.55.22.74.74,0,0,1-.75-.77v-6.93a.76.76,0,0,1,.21-.54.73.73,0,0,1,.54-.22.72.72,0,0,1,.55.22.73.73,0,0,1,.22.54v6.93A.74.74,0,0,1,566.71,548.82Z" transform="translate(-225 -173.05)"/><path d="M574.87,540.86c.56.27.84.61.84,1a.81.81,0,0,1-.17.49.57.57,0,0,1-.45.21.75.75,0,0,1-.33-.06,2.7,2.7,0,0,1-.33-.21,1.45,1.45,0,0,0-.3-.22,1.82,1.82,0,0,0-.55-.16,3,3,0,0,0-.64-.07,2.78,2.78,0,0,0-1.47.39,2.6,2.6,0,0,0-1,1.06,3.5,3.5,0,0,0,0,3,2.61,2.61,0,0,0,1,1.06,2.72,2.72,0,0,0,1.42.38,3,3,0,0,0,1.35-.25l.3-.21a1.54,1.54,0,0,1,.28-.19.56.56,0,0,1,.3-.07.65.65,0,0,1,.5.2.77.77,0,0,1,.19.52.91.91,0,0,1-.43.67,3.61,3.61,0,0,1-1.13.53,5.44,5.44,0,0,1-1.53.21,4,4,0,0,1-2.15-.57,3.88,3.88,0,0,1-1.43-1.57,4.94,4.94,0,0,1-.5-2.23,4.62,4.62,0,0,1,.53-2.23,3.91,3.91,0,0,1,1.47-1.57,4.1,4.1,0,0,1,2.16-.57A5,5,0,0,1,574.87,540.86Z" transform="translate(-225 -173.05)"/><path d="M584.7,540.76a.77.77,0,0,1,.21.57v6.94a.77.77,0,0,1-.21.55.79.79,0,0,1-.56.22.7.7,0,0,1-.54-.22.74.74,0,0,1-.21-.55v-.41a3.45,3.45,0,0,1-1.13.95,3.22,3.22,0,0,1-1.56.39,3.64,3.64,0,0,1-2-.56,3.77,3.77,0,0,1-1.39-1.56,5.22,5.22,0,0,1,0-4.5,3.87,3.87,0,0,1,1.38-1.56,3.57,3.57,0,0,1,1.94-.56,3.48,3.48,0,0,1,1.57.36,3.21,3.21,0,0,1,1.16.89v-.38a.78.78,0,0,1,.21-.56.71.71,0,0,1,.54-.23A.79.79,0,0,1,584.7,540.76Zm-2.48,6.65a2.62,2.62,0,0,0,.91-1.06,3.62,3.62,0,0,0,0-3,2.72,2.72,0,0,0-.91-1.07,2.5,2.5,0,0,0-2.68,0,2.53,2.53,0,0,0-.91,1,3.67,3.67,0,0,0,0,3,2.62,2.62,0,0,0,.91,1.06,2.55,2.55,0,0,0,2.68,0Z" transform="translate(-225 -173.05)"/><path d="M589.44,542.14v4.77c0,.54.24.8.72.8a1.42,1.42,0,0,0,.3-.05,1.1,1.1,0,0,1,.31-.06.44.44,0,0,1,.35.18.63.63,0,0,1,.14.44.67.67,0,0,1-.38.58,1.59,1.59,0,0,1-.86.24,4.11,4.11,0,0,1-1-.11,1.48,1.48,0,0,1-.79-.57,2.28,2.28,0,0,1-.34-1.38v-4.84H587a.71.71,0,0,1-.5-1.2.72.72,0,0,1,.5-.19h.93v-1.34a.75.75,0,0,1,.22-.55.71.71,0,0,1,.55-.22.69.69,0,0,1,.53.22.75.75,0,0,1,.22.55v1.34h1.33a.69.69,0,0,1,.5.2.67.67,0,0,1,.2.51.63.63,0,0,1-.2.49.68.68,0,0,1-.5.19Z" transform="translate(-225 -173.05)"/><path d="M593.26,539.35a.63.63,0,0,1-.2-.53v-.26a.62.62,0,0,1,.21-.54,1.12,1.12,0,0,1,.67-.16,1,1,0,0,1,.64.16.65.65,0,0,1,.2.54v.26a.67.67,0,0,1-.2.54,1.07,1.07,0,0,1-.66.16A1,1,0,0,1,593.26,539.35Zm1.21,9.47a.76.76,0,0,1-.55.22.74.74,0,0,1-.75-.77v-6.93a.76.76,0,0,1,.21-.54.73.73,0,0,1,.54-.22.72.72,0,0,1,.55.22.73.73,0,0,1,.22.54v6.93A.74.74,0,0,1,594.47,548.82Z" transform="translate(-225 -173.05)"/><path d="M604.26,547.09a4.14,4.14,0,0,1-1.53,1.55,4.25,4.25,0,0,1-2.14.56,4.18,4.18,0,0,1-2.13-.56,4,4,0,0,1-1.53-1.55,4.41,4.41,0,0,1-.56-2.24,4.51,4.51,0,0,1,.56-2.26,4.05,4.05,0,0,1,1.53-1.57,4.18,4.18,0,0,1,2.13-.56,4.25,4.25,0,0,1,2.14.56,4.19,4.19,0,0,1,1.53,1.57,4.62,4.62,0,0,1,.56,2.26A4.51,4.51,0,0,1,604.26,547.09Zm-1.32-3.79a2.69,2.69,0,0,0-1-1,2.66,2.66,0,0,0-2.74,0,2.66,2.66,0,0,0-1,1,3.28,3.28,0,0,0-.36,1.55,3.19,3.19,0,0,0,.36,1.52,2.66,2.66,0,0,0,1,1,2.72,2.72,0,0,0,2.74,0,2.69,2.69,0,0,0,1-1,3.19,3.19,0,0,0,.36-1.52A3.28,3.28,0,0,0,602.94,543.3Z" transform="translate(-225 -173.05)"/><path d="M613.73,543.92v4.35a.74.74,0,0,1-.22.55.76.76,0,0,1-.55.22.74.74,0,0,1-.75-.77v-4.33a2.48,2.48,0,0,0-.43-1.51,1.68,1.68,0,0,0-1.41-.56,2.34,2.34,0,0,0-1.16.28,2.2,2.2,0,0,0-.82.75,1.9,1.9,0,0,0-.29,1v4.33a.78.78,0,0,1-.22.55.76.76,0,0,1-.55.22.71.71,0,0,1-.55-.22.77.77,0,0,1-.2-.55v-6.85a.76.76,0,0,1,.21-.54.79.79,0,0,1,1.09,0,.77.77,0,0,1,.22.54V542a3.46,3.46,0,0,1,1.16-1.08,3.07,3.07,0,0,1,1.59-.44C612.77,540.46,613.73,541.62,613.73,543.92Z" transform="translate(-225 -173.05)"/><path class="cls-9" d="M744.06,519.39a4.59,4.59,0,0,1,1.62,2,7.69,7.69,0,0,1,0,5.66,4.56,4.56,0,0,1-1.62,2,4.42,4.42,0,0,1-2.57.74h-3.94a.75.75,0,0,1-.76-.77v-9.66a.75.75,0,0,1,.22-.55.73.73,0,0,1,.54-.22h3.94A4.36,4.36,0,0,1,744.06,519.39Zm-.28,7.82a5.08,5.08,0,0,0,.81-3,5,5,0,0,0-.82-3,2.79,2.79,0,0,0-2.44-1.17h-3v8.26h3A2.81,2.81,0,0,0,743.78,527.21Z" transform="translate(-225 -173.05)"/><path class="cls-9" d="M748.07,520.15a.66.66,0,0,1-.2-.53v-.26a.62.62,0,0,1,.22-.54,1.07,1.07,0,0,1,.66-.16,1,1,0,0,1,.65.16.7.7,0,0,1,.2.54v.26a.65.65,0,0,1-.21.54,1,1,0,0,1-.65.16A1.08,1.08,0,0,1,748.07,520.15Zm1.22,9.47a.74.74,0,0,1-.55.22.7.7,0,0,1-.54-.22.78.78,0,0,1-.22-.55v-6.93a.77.77,0,0,1,.22-.54.7.7,0,0,1,.54-.22.74.74,0,0,1,.55.22.76.76,0,0,1,.21.54v6.93A.77.77,0,0,1,749.29,529.62Z" transform="translate(-225 -173.05)"/><path class="cls-9" d="M754.5,519.7a1.25,1.25,0,0,0-.24.78v1.12h1.58a.72.72,0,0,1,.52.2.69.69,0,0,1,.2.5.67.67,0,0,1-.2.5.71.71,0,0,1-.52.19h-1.58v6.08a.78.78,0,0,1-.22.55.72.72,0,0,1-.55.22.73.73,0,0,1-.54-.22.77.77,0,0,1-.21-.55V523h-1a.72.72,0,0,1-.51-.19.64.64,0,0,1-.21-.5.66.66,0,0,1,.21-.5.73.73,0,0,1,.51-.2h1v-1.12a2.29,2.29,0,0,1,.72-1.78,2.84,2.84,0,0,1,2-.67,2.26,2.26,0,0,1,1,.2.65.65,0,0,1,.42.6.75.75,0,0,1-.19.51.59.59,0,0,1-.44.2l-.35-.07a2.57,2.57,0,0,0-.61-.09A.92.92,0,0,0,754.5,519.7Zm6.24,0a1.25,1.25,0,0,0-.24.78v1.12h1.58a.72.72,0,0,1,.52.2.69.69,0,0,1,.2.5.67.67,0,0,1-.2.5.71.71,0,0,1-.52.19H760.5v6.08a.78.78,0,0,1-.22.55.72.72,0,0,1-.55.22.73.73,0,0,1-.54-.22.77.77,0,0,1-.21-.55V523h-1a.72.72,0,0,1-.51-.19.64.64,0,0,1-.21-.5.66.66,0,0,1,.21-.5.73.73,0,0,1,.51-.2h1v-1.12a2.29,2.29,0,0,1,.72-1.78,2.84,2.84,0,0,1,2-.67,2.26,2.26,0,0,1,1,.2.64.64,0,0,1,.41.6.74.74,0,0,1-.18.51.59.59,0,0,1-.44.2l-.35-.07a2.57,2.57,0,0,0-.61-.09A.92.92,0,0,0,760.74,519.7Z" transform="translate(-225 -173.05)"/><path class="cls-9" d="M771.3,525.82a.79.79,0,0,1-.53.2h-5.63a2.8,2.8,0,0,0,.88,1.87,2.72,2.72,0,0,0,1.9.7,3,3,0,0,0,1.25-.22,3.12,3.12,0,0,0,.85-.58.94.94,0,0,1,.46-.14.62.62,0,0,1,.46.19.64.64,0,0,1,.18.45.82.82,0,0,1-.32.61,3.71,3.71,0,0,1-1.23.78A4.12,4.12,0,0,1,768,530a4.69,4.69,0,0,1-2.28-.54,3.83,3.83,0,0,1-1.52-1.52,4.49,4.49,0,0,1-.54-2.21,4.82,4.82,0,0,1,.56-2.36,3.91,3.91,0,0,1,1.45-1.56,3.74,3.74,0,0,1,3.87,0,4.11,4.11,0,0,1,1.44,1.46,4.17,4.17,0,0,1,.56,2.08A.7.7,0,0,1,771.3,525.82Zm-5.24-2.64a2.49,2.49,0,0,0-.86,1.56h4.72v-.13a1.94,1.94,0,0,0-.76-1.39,2.37,2.37,0,0,0-1.54-.55A2.48,2.48,0,0,0,766.06,523.18Z" transform="translate(-225 -173.05)"/><path class="cls-9" d="M778.19,521.48a.65.65,0,0,1,.31.54.8.8,0,0,1-.2.58.7.7,0,0,1-.49.2,1.33,1.33,0,0,1-.43-.1,2,2,0,0,0-.53-.11,1.65,1.65,0,0,0-1,.35,2.58,2.58,0,0,0-.77.94,3,3,0,0,0-.29,1.34v3.85a.78.78,0,0,1-.22.55.72.72,0,0,1-.55.22.71.71,0,0,1-.55-.22.77.77,0,0,1-.2-.55v-6.85a.76.76,0,0,1,.21-.54.79.79,0,0,1,1.09,0,.77.77,0,0,1,.22.54V523a3,3,0,0,1,1-1.27,2.82,2.82,0,0,1,1.6-.51A1.23,1.23,0,0,1,778.19,521.48Z" transform="translate(-225 -173.05)"/><path class="cls-9" d="M786.67,525.82a.78.78,0,0,1-.53.2h-5.63a2.81,2.81,0,0,0,.89,1.87,2.72,2.72,0,0,0,1.9.7,2.93,2.93,0,0,0,1.24-.22,3,3,0,0,0,.85-.58,1,1,0,0,1,.47-.14.58.58,0,0,1,.45.19.65.65,0,0,1,.19.45.82.82,0,0,1-.32.61,3.66,3.66,0,0,1-1.24.78,4.07,4.07,0,0,1-1.56.32,4.63,4.63,0,0,1-2.28-.54,3.77,3.77,0,0,1-1.52-1.52,4.49,4.49,0,0,1-.54-2.21,4.81,4.81,0,0,1,.55-2.36,4,4,0,0,1,1.46-1.56,3.72,3.72,0,0,1,3.86,0,4,4,0,0,1,1.44,1.46,4.17,4.17,0,0,1,.56,2.08A.7.7,0,0,1,786.67,525.82Zm-5.23-2.64a2.4,2.4,0,0,0-.86,1.56h4.72v-.13a2,2,0,0,0-.76-1.39,2.39,2.39,0,0,0-1.55-.55A2.45,2.45,0,0,0,781.44,523.18Z" transform="translate(-225 -173.05)"/><path class="cls-9" d="M795.82,524.72v4.35a.77.77,0,0,1-.21.55.74.74,0,0,1-.55.22.7.7,0,0,1-.54-.22.78.78,0,0,1-.22-.55v-4.33a2.42,2.42,0,0,0-.43-1.51,1.67,1.67,0,0,0-1.41-.56,2.52,2.52,0,0,0-1.16.28,2.25,2.25,0,0,0-.81.75,1.91,1.91,0,0,0-.3,1v4.33a.77.77,0,0,1-.21.55.75.75,0,0,1-.56.22.7.7,0,0,1-.54-.22.74.74,0,0,1-.21-.55v-6.85a.73.73,0,0,1,.22-.54.69.69,0,0,1,.53-.22.75.75,0,0,1,.56.22.76.76,0,0,1,.21.54v.56a3.67,3.67,0,0,1,1.16-1.08,3.13,3.13,0,0,1,1.59-.44C794.86,521.26,795.82,522.42,795.82,524.72Z" transform="translate(-225 -173.05)"/><path class="cls-9" d="M800.37,522.94v4.77c0,.54.24.8.72.8a1.53,1.53,0,0,0,.3,0,1.1,1.1,0,0,1,.31-.06.45.45,0,0,1,.35.18.68.68,0,0,1,.14.44.69.69,0,0,1-.38.58,1.63,1.63,0,0,1-.87.24,4.08,4.08,0,0,1-1-.11,1.48,1.48,0,0,1-.79-.57,2.28,2.28,0,0,1-.34-1.38v-4.84h-.93a.71.71,0,0,1-.5-1.2.72.72,0,0,1,.5-.19h.93v-1.34a.77.77,0,0,1,.21-.55.75.75,0,0,1,.56-.22.69.69,0,0,1,.53.22.74.74,0,0,1,.22.55v1.34h1.33a.69.69,0,0,1,.5.2.69.69,0,0,1,.2.51.66.66,0,0,1-.2.49.68.68,0,0,1-.5.19Z" transform="translate(-225 -173.05)"/><path class="cls-9" d="M804.18,520.15a.66.66,0,0,1-.2-.53v-.26a.62.62,0,0,1,.22-.54,1.09,1.09,0,0,1,.66-.16,1,1,0,0,1,.65.16.67.67,0,0,1,.2.54v.26a.65.65,0,0,1-.21.54,1,1,0,0,1-.65.16A1.08,1.08,0,0,1,804.18,520.15Zm1.22,9.47a.79.79,0,0,1-1.09,0,.77.77,0,0,1-.21-.55v-6.93a.76.76,0,0,1,.21-.54.79.79,0,0,1,1.09,0,.77.77,0,0,1,.22.54v6.93A.78.78,0,0,1,805.4,529.62Z" transform="translate(-225 -173.05)"/><path class="cls-9" d="M815.16,521.56a.78.78,0,0,1,.22.57v6.94a.78.78,0,0,1-.22.55.72.72,0,0,1-.55.22.71.71,0,0,1-.55-.22.77.77,0,0,1-.2-.55v-.41a3.49,3.49,0,0,1-1.14,1,3.21,3.21,0,0,1-1.55.39,3.65,3.65,0,0,1-2-.56,3.84,3.84,0,0,1-1.39-1.56,5.31,5.31,0,0,1,0-4.5,4,4,0,0,1,1.38-1.56,3.59,3.59,0,0,1,1.94-.56,3.52,3.52,0,0,1,1.58.36,3.29,3.29,0,0,1,1.16.89v-.38a.82.82,0,0,1,.2-.56.72.72,0,0,1,.55-.23A.76.76,0,0,1,815.16,521.56Zm-2.48,6.65a2.62,2.62,0,0,0,.91-1.06,3.62,3.62,0,0,0,0-3,2.72,2.72,0,0,0-.91-1.07,2.48,2.48,0,0,0-2.67,0,2.46,2.46,0,0,0-.91,1.05,3.67,3.67,0,0,0,0,3,2.55,2.55,0,0,0,.91,1.06,2.54,2.54,0,0,0,2.67,0Z" transform="translate(-225 -173.05)"/><path class="cls-9" d="M819.06,529.62a.74.74,0,0,1-.55.22.69.69,0,0,1-.53-.22.74.74,0,0,1-.22-.55v-10.3a.75.75,0,0,1,.77-.77.69.69,0,0,1,.53.22.74.74,0,0,1,.22.55v10.3A.74.74,0,0,1,819.06,529.62Z" transform="translate(-225 -173.05)"/><path class="cls-9" d="M744.1,540.76a.74.74,0,0,1,.22.57v6.94a.75.75,0,0,1-.77.77.7.7,0,0,1-.54-.22.74.74,0,0,1-.21-.55v-.41a3.49,3.49,0,0,1-1.14.95,3.19,3.19,0,0,1-1.55.39,3.64,3.64,0,0,1-2-.56,3.79,3.79,0,0,1-1.4-1.56,5.31,5.31,0,0,1,0-4.5,4,4,0,0,1,1.39-1.56,3.62,3.62,0,0,1,3.51-.2,3.29,3.29,0,0,1,1.16.89v-.38a.78.78,0,0,1,.21-.56.71.71,0,0,1,.54-.23A.75.75,0,0,1,744.1,540.76Zm-2.48,6.65a2.64,2.64,0,0,0,.92-1.06,3.72,3.72,0,0,0,0-3,2.74,2.74,0,0,0-.92-1.07,2.34,2.34,0,0,0-1.33-.39,2.37,2.37,0,0,0-1.34.39,2.53,2.53,0,0,0-.91,1,3.67,3.67,0,0,0,0,3,2.62,2.62,0,0,0,.91,1.06,2.44,2.44,0,0,0,1.34.38A2.41,2.41,0,0,0,741.62,547.41Z" transform="translate(-225 -173.05)"/><path class="cls-9" d="M752.75,541a3.9,3.9,0,0,1,1.39,1.56,4.92,4.92,0,0,1,.5,2.24,5,5,0,0,1-.5,2.25,3.87,3.87,0,0,1-1.39,1.57,3.54,3.54,0,0,1-1.93.56,3.32,3.32,0,0,1-1.56-.37,3.56,3.56,0,0,1-1.16-.91v.46a.78.78,0,0,1-.22.55.72.72,0,0,1-.55.22.76.76,0,0,1-.54-.21.78.78,0,0,1-.21-.56V538a.74.74,0,0,1,.21-.55.67.67,0,0,1,.54-.22.76.76,0,0,1,.55.22.78.78,0,0,1,.22.55v3.9a3.22,3.22,0,0,1,1.12-1,3.11,3.11,0,0,1,1.57-.42A3.59,3.59,0,0,1,752.75,541Zm-.81,6.38a2.67,2.67,0,0,0,.92-1.07,3.72,3.72,0,0,0,0-3,2.55,2.55,0,0,0-.92-1,2.38,2.38,0,0,0-1.33-.39,2.42,2.42,0,0,0-1.35.39,2.58,2.58,0,0,0-.92,1,3.77,3.77,0,0,0,0,3,2.71,2.71,0,0,0,.92,1.06,2.42,2.42,0,0,0,1.35.39A2.38,2.38,0,0,0,751.94,547.4Z" transform="translate(-225 -173.05)"/><path class="cls-9" d="M763.19,540.88a.73.73,0,0,1,.22.54v4.26a3.2,3.2,0,0,1-3.52,3.5,3.45,3.45,0,0,1-2.58-.92,3.53,3.53,0,0,1-.91-2.58v-4.26a.73.73,0,0,1,.22-.54.69.69,0,0,1,.53-.22.75.75,0,0,1,.56.22.76.76,0,0,1,.21.54v4.26c0,1.4.66,2.1,2,2.1a2,2,0,0,0,1.49-.53,2.18,2.18,0,0,0,.51-1.57v-4.26a.76.76,0,0,1,.21-.54.73.73,0,0,1,.54-.22A.71.71,0,0,1,763.19,540.88Z" transform="translate(-225 -173.05)"/><path class="cls-9" d="M772.83,543.92v4.35a.77.77,0,0,1-.21.55.79.79,0,0,1-.56.22.75.75,0,0,1-.75-.77v-4.33a2.42,2.42,0,0,0-.43-1.51,1.68,1.68,0,0,0-1.41-.56,2.4,2.4,0,0,0-1.16.28,2.17,2.17,0,0,0-.81.75,1.91,1.91,0,0,0-.3,1v4.33a.75.75,0,0,1-.77.77.7.7,0,0,1-.54-.22.74.74,0,0,1-.21-.55v-6.85a.73.73,0,0,1,.22-.54.69.69,0,0,1,.53-.22.71.71,0,0,1,.55.22.73.73,0,0,1,.22.54V542a3.56,3.56,0,0,1,1.16-1.08,3.13,3.13,0,0,1,1.59-.44C771.87,540.46,772.83,541.62,772.83,543.92Z" transform="translate(-225 -173.05)"/><path class="cls-9" d="M782.46,537.42a.74.74,0,0,1,.21.55v10.3a.77.77,0,0,1-.21.55.79.79,0,0,1-.56.22.7.7,0,0,1-.54-.22.74.74,0,0,1-.21-.55v-.45a3.38,3.38,0,0,1-2.69,1.38,3.59,3.59,0,0,1-2-.56,3.93,3.93,0,0,1-1.4-1.56,5.22,5.22,0,0,1,0-4.5,3.87,3.87,0,0,1,1.38-1.56,3.57,3.57,0,0,1,1.94-.56,3.44,3.44,0,0,1,1.56.36,3.35,3.35,0,0,1,1.17.91V538a.74.74,0,0,1,.21-.55.7.7,0,0,1,.54-.22A.75.75,0,0,1,782.46,537.42Zm-2.48,10a2.62,2.62,0,0,0,.91-1.06,3.64,3.64,0,0,0,0-3,2.56,2.56,0,0,0-.91-1.06,2.5,2.5,0,0,0-2.68,0,2.56,2.56,0,0,0-.91,1.06,3.64,3.64,0,0,0,0,3,2.62,2.62,0,0,0,.91,1.06,2.55,2.55,0,0,0,2.68,0Z" transform="translate(-225 -173.05)"/><path class="cls-9" d="M792.28,540.76a.78.78,0,0,1,.22.57v6.94a.78.78,0,0,1-.22.55.76.76,0,0,1-.55.22.71.71,0,0,1-.55-.22.73.73,0,0,1-.2-.55v-.41a3.49,3.49,0,0,1-1.14.95,3.21,3.21,0,0,1-1.55.39,3.65,3.65,0,0,1-2-.56,3.84,3.84,0,0,1-1.39-1.56,5.31,5.31,0,0,1,0-4.5A4,4,0,0,1,786.3,541a3.59,3.59,0,0,1,1.94-.56,3.55,3.55,0,0,1,1.58.36,3.29,3.29,0,0,1,1.16.89v-.38a.77.77,0,0,1,.2-.56.72.72,0,0,1,.55-.23A.76.76,0,0,1,792.28,540.76Zm-2.48,6.65a2.62,2.62,0,0,0,.91-1.06,3.62,3.62,0,0,0,0-3,2.72,2.72,0,0,0-.91-1.07,2.37,2.37,0,0,0-1.34-.39,2.34,2.34,0,0,0-1.33.39,2.46,2.46,0,0,0-.91,1,3.67,3.67,0,0,0,0,3,2.55,2.55,0,0,0,.91,1.06,2.41,2.41,0,0,0,1.33.38A2.44,2.44,0,0,0,789.8,547.41Z" transform="translate(-225 -173.05)"/><path class="cls-9" d="M801.9,543.92v4.35a.77.77,0,0,1-.21.55.78.78,0,0,1-.55.22.74.74,0,0,1-.54-.22.78.78,0,0,1-.22-.55v-4.33a2.42,2.42,0,0,0-.43-1.51,1.67,1.67,0,0,0-1.41-.56,2.4,2.4,0,0,0-1.16.28,2.25,2.25,0,0,0-.81.75,1.91,1.91,0,0,0-.3,1v4.33a.77.77,0,0,1-.21.55.79.79,0,0,1-.56.22.7.7,0,0,1-.54-.22.74.74,0,0,1-.21-.55v-6.85a.73.73,0,0,1,.22-.54.69.69,0,0,1,.53-.22.75.75,0,0,1,.56.22.76.76,0,0,1,.21.54V542a3.67,3.67,0,0,1,1.16-1.08,3.13,3.13,0,0,1,1.59-.44C800.94,540.46,801.9,541.62,801.9,543.92Z" transform="translate(-225 -173.05)"/><path class="cls-9" d="M809.93,540.86c.56.27.84.61.84,1a.76.76,0,0,1-.18.49.55.55,0,0,1-.45.21.73.73,0,0,1-.32-.06,2.7,2.7,0,0,1-.33-.21,2,2,0,0,0-.31-.22,1.66,1.66,0,0,0-.54-.16,3,3,0,0,0-.64-.07,2.78,2.78,0,0,0-1.47.39,2.53,2.53,0,0,0-1,1.06,3.18,3.18,0,0,0-.36,1.51,3.27,3.27,0,0,0,.35,1.52,2.61,2.61,0,0,0,1,1.06,2.69,2.69,0,0,0,1.42.38,3,3,0,0,0,1.34-.25l.31-.21a1.26,1.26,0,0,1,.28-.19.54.54,0,0,1,.29-.07.66.66,0,0,1,.51.2.77.77,0,0,1,.18.52.89.89,0,0,1-.42.67,3.67,3.67,0,0,1-1.14.53,5.34,5.34,0,0,1-1.53.21,4,4,0,0,1-2.14-.57,3.75,3.75,0,0,1-1.43-1.57,4.82,4.82,0,0,1-.51-2.23,4.74,4.74,0,0,1,.53-2.23,4,4,0,0,1,1.47-1.57,4.1,4.1,0,0,1,2.16-.57A5,5,0,0,1,809.93,540.86Z" transform="translate(-225 -173.05)"/><path class="cls-9" d="M819.52,545a.79.79,0,0,1-.53.2h-5.63a2.77,2.77,0,0,0,.89,1.87,2.71,2.71,0,0,0,1.89.7,3,3,0,0,0,1.25-.22,3.12,3.12,0,0,0,.85-.58.94.94,0,0,1,.46-.14.6.6,0,0,1,.46.19.64.64,0,0,1,.18.45.79.79,0,0,1-.32.61,3.71,3.71,0,0,1-1.23.78,4.08,4.08,0,0,1-1.57.32,4.69,4.69,0,0,1-2.28-.54,3.9,3.9,0,0,1-1.52-1.52,4.6,4.6,0,0,1-.53-2.21,4.84,4.84,0,0,1,.55-2.36A3.93,3.93,0,0,1,813.9,541a3.72,3.72,0,0,1,3.86,0,4,4,0,0,1,1.44,1.46,4.17,4.17,0,0,1,.56,2.08A.7.7,0,0,1,819.52,545Zm-5.23-2.64a2.45,2.45,0,0,0-.87,1.56h4.72v-.13a1.9,1.9,0,0,0-.76-1.39,2.35,2.35,0,0,0-1.54-.55A2.43,2.43,0,0,0,814.29,542.38Z" transform="translate(-225 -173.05)"/><path class="cls-9" d="M931.84,309.1a3.18,3.18,0,0,1,1.14,1.24,3.46,3.46,0,0,1,.43,1.72,3.63,3.63,0,0,1-.43,1.75,3.31,3.31,0,0,1-1.14,1.26,2.83,2.83,0,0,1-1.57.47h-3v3.53a.76.76,0,0,1-.2.55.69.69,0,0,1-.53.22.67.67,0,0,1-.54-.22.77.77,0,0,1-.2-.55v-9.66a.75.75,0,0,1,.23-.55.73.73,0,0,1,.54-.22h3.71A2.82,2.82,0,0,1,931.84,309.1Zm-.77,4.7a2,2,0,0,0,.59-.74,2.39,2.39,0,0,0,.21-1,2.12,2.12,0,0,0-.47-1.38,1.42,1.42,0,0,0-1.13-.57h-3v4h3A1.26,1.26,0,0,0,931.07,313.8Z" transform="translate(-225 -173.05)"/><path class="cls-9" d="M942.19,314.8v4.27a.77.77,0,0,1-.21.55.75.75,0,0,1-.56.22.69.69,0,0,1-.53-.22.74.74,0,0,1-.22-.55V314.8c0-1.39-.58-2.08-1.76-2.08a2.18,2.18,0,0,0-1.57.6,2,2,0,0,0-.62,1.48v4.27a.74.74,0,0,1-.22.55.71.71,0,0,1-.55.22.7.7,0,0,1-.54-.22.74.74,0,0,1-.21-.55v-10.3a.74.74,0,0,1,.22-.55A.69.69,0,0,1,936,308a.71.71,0,0,1,.55.22.74.74,0,0,1,.22.55v4.05a3.49,3.49,0,0,1,1.12-1.07,2.92,2.92,0,0,1,1.54-.44Q942.19,311.31,942.19,314.8Z" transform="translate(-225 -173.05)"/><path class="cls-9" d="M951.18,311.6a.76.76,0,0,1,.21.54v6.92a3.84,3.84,0,0,1-1.1,3,4.21,4.21,0,0,1-2.91,1,6.45,6.45,0,0,1-1.17-.11,3.65,3.65,0,0,1-1-.31c-.39-.18-.59-.42-.59-.73a1,1,0,0,1,0-.21,1,1,0,0,1,.28-.42.63.63,0,0,1,.4-.14.69.69,0,0,1,.24.05c.33.15.62.26.88.35a2.93,2.93,0,0,0,.89.13,2.22,2.22,0,0,0,2.48-2.55v-.32a2.87,2.87,0,0,1-1.11.9,3.65,3.65,0,0,1-1.56.32,2.58,2.58,0,0,1-2.07-.85,3.21,3.21,0,0,1-.75-2.22v-4.79a.77.77,0,0,1,.21-.55.81.81,0,0,1,1.1,0,.76.76,0,0,1,.21.54v4.39a2.26,2.26,0,0,0,.47,1.56,1.85,1.85,0,0,0,1.41.5,2.09,2.09,0,0,0,1.5-.57,2,2,0,0,0,.59-1.49v-4.39a.77.77,0,0,1,.21-.55.73.73,0,0,1,.54-.21A.75.75,0,0,1,951.18,311.6Z" transform="translate(-225 -173.05)"/><path class="cls-9" d="M955.07,319.62a.73.73,0,0,1-.54.22.72.72,0,0,1-.54-.22.77.77,0,0,1-.21-.55v-10.3a.75.75,0,0,1,.76-.77.7.7,0,0,1,.54.22.78.78,0,0,1,.22.55v10.3A.75.75,0,0,1,955.07,319.62Z" transform="translate(-225 -173.05)"/><path class="cls-9" d="M964.91,317.89a4,4,0,0,1-1.53,1.55,4.18,4.18,0,0,1-2.13.56,4.25,4.25,0,0,1-2.14-.56,4.14,4.14,0,0,1-1.53-1.55,4.51,4.51,0,0,1-.56-2.24,4.62,4.62,0,0,1,.56-2.26,4.19,4.19,0,0,1,1.53-1.57,4.25,4.25,0,0,1,2.14-.56,4.18,4.18,0,0,1,2.13.56,4.05,4.05,0,0,1,1.53,1.57,4.51,4.51,0,0,1,.56,2.26A4.41,4.41,0,0,1,964.91,317.89Zm-1.32-3.79a2.66,2.66,0,0,0-1-1.05,2.66,2.66,0,0,0-2.74,0,2.69,2.69,0,0,0-1,1.05,3.28,3.28,0,0,0-.36,1.55,3.19,3.19,0,0,0,.36,1.52,2.69,2.69,0,0,0,1,1.05,2.72,2.72,0,0,0,2.74,0,2.66,2.66,0,0,0,1-1.05,3.19,3.19,0,0,0,.36-1.52A3.28,3.28,0,0,0,963.59,314.1Z" transform="translate(-225 -173.05)"/><path class="cls-9" d="M974.79,311.56a.74.74,0,0,1,.22.57v7a4.09,4.09,0,0,1-.55,2.17,3.28,3.28,0,0,1-1.5,1.28,5.19,5.19,0,0,1-2.13.42,5.9,5.9,0,0,1-1.49-.22,2.68,2.68,0,0,1-1.1-.47c-.33-.17-.5-.38-.5-.64a.8.8,0,0,1,.07-.25.59.59,0,0,1,.59-.4,1.29,1.29,0,0,1,.45.09,6,6,0,0,0,2,.5,2.84,2.84,0,0,0,2-.62,2.17,2.17,0,0,0,.68-1.69v-.86a2.8,2.8,0,0,1-1.13,1.07,3.35,3.35,0,0,1-1.67.45,3.82,3.82,0,0,1-2-.56,3.86,3.86,0,0,1-1.43-1.56,5.13,5.13,0,0,1,0-4.5,4,4,0,0,1,1.42-1.56,3.77,3.77,0,0,1,2-.56,3.58,3.58,0,0,1,1.64.4,3.66,3.66,0,0,1,1.19,1v-.51a.78.78,0,0,1,.21-.56.69.69,0,0,1,.54-.23A.76.76,0,0,1,974.79,311.56Zm-2.53,6.66a2.64,2.64,0,0,0,1-1.06,3.59,3.59,0,0,0,0-3.05,2.62,2.62,0,0,0-1-1.05,2.54,2.54,0,0,0-1.4-.39,2.47,2.47,0,0,0-1.37.39,2.57,2.57,0,0,0-1,1.06,3.43,3.43,0,0,0,0,3,2.6,2.6,0,0,0,1,1.07,2.54,2.54,0,0,0,1.37.38A2.62,2.62,0,0,0,972.26,318.22Z" transform="translate(-225 -173.05)"/><path class="cls-9" d="M984.06,315.82a.77.77,0,0,1-.52.2H977.9a2.81,2.81,0,0,0,.89,1.87,2.72,2.72,0,0,0,1.9.7,3,3,0,0,0,1.25-.22,2.93,2.93,0,0,0,.84-.58,1,1,0,0,1,.47-.14.58.58,0,0,1,.45.19.61.61,0,0,1,.19.45.82.82,0,0,1-.32.61,3.71,3.71,0,0,1-1.23.78,4.16,4.16,0,0,1-1.57.32,4.63,4.63,0,0,1-2.28-.54,3.77,3.77,0,0,1-1.52-1.52,4.49,4.49,0,0,1-.54-2.21,5,5,0,0,1,.55-2.36,4,4,0,0,1,1.46-1.56,3.72,3.72,0,0,1,3.86,0,4,4,0,0,1,1.44,1.46,4.07,4.07,0,0,1,.56,2.08A.7.7,0,0,1,984.06,315.82Zm-5.23-2.64a2.44,2.44,0,0,0-.86,1.56h4.72v-.13a2,2,0,0,0-.76-1.39,2.39,2.39,0,0,0-1.55-.55A2.47,2.47,0,0,0,978.83,313.18Z" transform="translate(-225 -173.05)"/><path class="cls-9" d="M993.22,314.72v4.35a.78.78,0,0,1-.22.55.79.79,0,0,1-1.09,0,.77.77,0,0,1-.21-.55v-4.33a2.42,2.42,0,0,0-.44-1.51,1.65,1.65,0,0,0-1.4-.56,2.46,2.46,0,0,0-1.16.28,2.2,2.2,0,0,0-.82.75,1.91,1.91,0,0,0-.3,1v4.33a.77.77,0,0,1-.21.55.74.74,0,0,1-.55.22.71.71,0,0,1-.55-.22.74.74,0,0,1-.21-.55v-6.85a.77.77,0,0,1,.22-.54.7.7,0,0,1,.54-.22.74.74,0,0,1,.55.22.76.76,0,0,1,.21.54v.56a3.67,3.67,0,0,1,1.16-1.08,3.13,3.13,0,0,1,1.6-.44C992.26,311.26,993.22,312.42,993.22,314.72Z" transform="translate(-225 -173.05)"/><path class="cls-9" d="M1002.2,311.6a.77.77,0,0,1,.22.54v6.92a3.81,3.81,0,0,1-1.11,3,4.19,4.19,0,0,1-2.91,1,6.53,6.53,0,0,1-1.17-.11,3.56,3.56,0,0,1-.94-.31c-.4-.18-.59-.42-.59-.73a1,1,0,0,1,0-.21.9.9,0,0,1,.27-.42.65.65,0,0,1,.4-.14.69.69,0,0,1,.24.05c.33.15.62.26.88.35a3,3,0,0,0,.9.13,2.22,2.22,0,0,0,2.48-2.55v-.32a2.83,2.83,0,0,1-1.12.9,3.65,3.65,0,0,1-1.56.32,2.61,2.61,0,0,1-2.07-.85,3.25,3.25,0,0,1-.74-2.22v-4.79a.77.77,0,0,1,.21-.55.72.72,0,0,1,.54-.21.72.72,0,0,1,.55.22.73.73,0,0,1,.22.54v4.39a2.25,2.25,0,0,0,.46,1.56,1.85,1.85,0,0,0,1.41.5,2.06,2.06,0,0,0,1.5-.57,2,2,0,0,0,.6-1.49v-4.39a.76.76,0,0,1,.2-.55.74.74,0,0,1,.55-.21A.72.72,0,0,1,1002.2,311.6Z" transform="translate(-225 -173.05)"/></g></svg>