<svg xmlns="http://www.w3.org/2000/svg" xmlns:xlink="http://www.w3.org/1999/xlink" viewBox="0 0 1029.23 400.5"><defs><style>.cls-1{opacity:0.7;}.cls-2{fill:red;}.cls-3{fill:#ff7f00;}.cls-4{fill:#ff0;}.cls-5{fill:lime;}.cls-6{fill:blue;}.cls-7{fill:#333;}.cls-8{fill:#fff;}.cls-9{fill:none;stroke:#fff;stroke-miterlimit:10;}.cls-10{fill:url(#linear-gradient);}.cls-11{fill:url(#linear-gradient-2);}.cls-12{fill:url(#linear-gradient-3);}.cls-13{fill:#26af64;}.cls-14{fill:url(#linear-gradient-4);}.cls-15{fill:#129fdb;}.cls-16{fill:#006fb6;}.cls-17{fill:#4e5c64;}.cls-17,.cls-18{isolation:isolate;}.cls-18{opacity:0.05;}.cls-19{fill:url(#linear-gradient-5);}</style><linearGradient id="linear-gradient" x1="1113.62" y1="221.15" x2="1125.89" y2="230.74" gradientUnits="userSpaceOnUse"><stop offset="0.21" stop-color="#035421"/><stop offset="0.27" stop-color="#08622b"/><stop offset="0.43" stop-color="#158344"/><stop offset="0.59" stop-color="#1e9b56"/><stop offset="0.73" stop-color="#24aa60"/><stop offset="0.85" stop-color="#26af64"/></linearGradient><linearGradient id="linear-gradient-2" x1="1102.57" y1="231.98" x2="1105.55" y2="248.88" gradientUnits="userSpaceOnUse"><stop offset="0.1" stop-color="#035421"/><stop offset="0.44" stop-color="#26af64"/></linearGradient><linearGradient id="linear-gradient-3" x1="1080.63" y1="224.05" x2="1096.4" y2="233.52" gradientUnits="userSpaceOnUse"><stop offset="0.62" stop-color="#26af64"/><stop offset="1" stop-color="#035421"/></linearGradient><linearGradient id="linear-gradient-4" x1="1073.64" y1="240.38" x2="1084.58" y2="246.95" gradientUnits="userSpaceOnUse"><stop offset="0.15" stop-color="#26af64"/><stop offset="0.24" stop-color="#23a75e"/><stop offset="0.37" stop-color="#1a8f4d"/><stop offset="0.54" stop-color="#0b6a31"/><stop offset="0.62" stop-color="#035421"/></linearGradient><linearGradient id="linear-gradient-5" x1="2.48" y1="768.33" x2="2.48" y2="768.33" gradientTransform="matrix(721.09, 0, 0, -482.94, -719.19, 371382.56)" gradientUnits="userSpaceOnUse"><stop offset="0" stop-color="#cbced0"/><stop offset="1" stop-color="#84838b"/></linearGradient></defs><title>dag_16s</title><g id="circle1"><g class="cls-1"><circle class="cls-2" cx="117.96" cy="244.5" r="67.5"/></g><g class="cls-1"><circle class="cls-2" cx="57.96" cy="242.5" r="41.5"/></g></g><g id="circle2"><g class="cls-1"><circle class="cls-3" cx="226.46" cy="245" r="77"/></g><g class="cls-1"><circle class="cls-3" cx="295.46" cy="242" r="40"/></g><g class="cls-1"><circle class="cls-3" cx="359.46" cy="243" r="43"/></g></g><g id="circle4"><g class="cls-1"><circle class="cls-4" cx="463.96" cy="244.5" r="87.5"/></g></g><g id="circle5"><g class="cls-1"><circle class="cls-5" cx="627.46" cy="242" r="96"/></g></g><g id="circle6"><g class="cls-1"><circle class="cls-6" cx="754.96" cy="240.5" r="75.5"/></g></g><g id="bar"><rect class="cls-7" x="22.46" y="227" width="798" height="30"/><path class="cls-8" d="M1028,404v28H232V404h796m2-2H230v32h800V402Z" transform="translate(-208.54 -176)"/><line class="cls-8" x1="351.46" y1="242.5" x2="451.46" y2="242.5"/><line class="cls-9" x1="351.46" y1="242.5" x2="450.38" y2="242.5"/><polygon class="cls-8" points="447.06 246.59 446.38 245.86 450 242.5 446.38 239.14 447.06 238.41 451.46 242.5 447.06 246.59"/></g><g id="text"><path d="M218.63,276.84a1.11,1.11,0,0,1,.32.82,1.07,1.07,0,0,1-.32.79,1.14,1.14,0,0,1-.83.31h-8.11a1.09,1.09,0,0,1-.83-.34,1.13,1.13,0,0,1-.32-.81v-14.5a1.1,1.1,0,0,1,.33-.81,1.16,1.16,0,0,1,.87-.34,1.11,1.11,0,0,1,.82.34,1,1,0,0,1,.35.81v13.42h6.89A1.14,1.14,0,0,1,218.63,276.84Z" transform="translate(-208.54 -176)"/><path d="M221.46,264.23a1,1,0,0,1-.3-.81V263a1,1,0,0,1,.32-.82,1.69,1.69,0,0,1,1-.24,1.48,1.48,0,0,1,1,.26,1,1,0,0,1,.3.8v.38a1,1,0,0,1-.31.82,1.63,1.63,0,0,1-1,.24A1.54,1.54,0,0,1,221.46,264.23Zm1.82,14.19a1.15,1.15,0,0,1-1.63,0,1.13,1.13,0,0,1-.32-.81V267.22a1.16,1.16,0,0,1,.32-.82,1.15,1.15,0,0,1,1.63,0,1.12,1.12,0,0,1,.33.82v10.39A1.1,1.1,0,0,1,223.28,278.42Z" transform="translate(-208.54 -176)"/><path d="M230.3,268.42v7.15q0,1.2,1.08,1.2a1.59,1.59,0,0,0,.46-.09,1.93,1.93,0,0,1,.46-.08.66.66,0,0,1,.52.26,1,1,0,0,1-.36,1.54,2.36,2.36,0,0,1-1.29.36,6,6,0,0,1-1.45-.17,2.12,2.12,0,0,1-1.18-.85,3.48,3.48,0,0,1-.52-2.08v-7.24h-1.39a1,1,0,0,1-.75-.3,1,1,0,0,1-.3-.76,1,1,0,0,1,.3-.74,1,1,0,0,1,.75-.29H228v-2a1.1,1.1,0,0,1,.33-.81,1.07,1.07,0,0,1,.83-.34,1.05,1.05,0,0,1,.8.34,1.09,1.09,0,0,1,.32.81v2h2a1,1,0,0,1,1,1.05,1,1,0,0,1-.3.75,1.05,1.05,0,0,1-.75.29Z" transform="translate(-208.54 -176)"/><path d="M239.42,268.42v7.15q0,1.2,1.08,1.2a1.59,1.59,0,0,0,.46-.09,1.93,1.93,0,0,1,.46-.08.66.66,0,0,1,.52.26,1,1,0,0,1-.36,1.54,2.36,2.36,0,0,1-1.29.36,6,6,0,0,1-1.45-.17,2.12,2.12,0,0,1-1.18-.85,3.48,3.48,0,0,1-.52-2.08v-7.24h-1.39a1,1,0,0,1-.75-.3,1,1,0,0,1-.3-.76,1,1,0,0,1,.3-.74,1,1,0,0,1,.75-.29h1.39v-2a1.1,1.1,0,0,1,.33-.81,1.07,1.07,0,0,1,.83-.34,1.05,1.05,0,0,1,.8.34,1.09,1.09,0,0,1,.32.81v2h2a1,1,0,0,1,1.05,1.05,1,1,0,0,1-.3.75,1.05,1.05,0,0,1-.75.29Z" transform="translate(-208.54 -176)"/><path d="M255.7,272.72a1.17,1.17,0,0,1-.8.3h-8.44a4.14,4.14,0,0,0,1.33,2.81,4,4,0,0,0,2.84,1.06,4.34,4.34,0,0,0,1.87-.34,4.71,4.71,0,0,0,1.28-.86,1.3,1.3,0,0,1,.69-.22,1,1,0,0,1,1,1,1.17,1.17,0,0,1-.48.91,5.51,5.51,0,0,1-1.85,1.18,6,6,0,0,1-2.35.48,6.92,6.92,0,0,1-3.42-.82,5.69,5.69,0,0,1-2.28-2.28,6.81,6.81,0,0,1-.8-3.31,7.23,7.23,0,0,1,.83-3.54,6.09,6.09,0,0,1,2.18-2.34,5.66,5.66,0,0,1,5.8,0,6.1,6.1,0,0,1,2.16,2.18,6.32,6.32,0,0,1,.84,3.12A1,1,0,0,1,255.7,272.72Zm-7.85-4a3.75,3.75,0,0,0-1.3,2.34h7.08v-.19a2.94,2.94,0,0,0-1.14-2.09,3.62,3.62,0,0,0-2.31-.81A3.72,3.72,0,0,0,247.85,268.76Z" transform="translate(-208.54 -176)"/><path d="M266,266.22a1,1,0,0,1,.46.8,1.19,1.19,0,0,1-.3.88,1,1,0,0,1-.74.3,2.4,2.4,0,0,1-.64-.14,2.49,2.49,0,0,0-.8-.17,2.46,2.46,0,0,0-1.45.51,3.89,3.89,0,0,0-1.15,1.42,4.41,4.41,0,0,0-.44,2v5.79a1.1,1.1,0,0,1-.33.81,1.07,1.07,0,0,1-.83.34,1.1,1.1,0,0,1-.81-.32,1.16,1.16,0,0,1-.31-.83V267.34a1.12,1.12,0,0,1,.32-.82,1.09,1.09,0,0,1,.8-.34,1.11,1.11,0,0,1,.83.34,1.12,1.12,0,0,1,.33.82v1.22a4.59,4.59,0,0,1,1.58-1.91,4.17,4.17,0,0,1,2.4-.75A1.77,1.77,0,0,1,266,266.22Z" transform="translate(-208.54 -176)"/><path d="M279.35,266.34a1.18,1.18,0,0,1,.32.85v10.42a1.13,1.13,0,0,1-.32.81,1.09,1.09,0,0,1-.83.34,1.11,1.11,0,0,1-.82-.32,1.2,1.2,0,0,1-.31-.83V277a5,5,0,0,1-1.7,1.43,4.83,4.83,0,0,1-2.33.59,5.41,5.41,0,0,1-3-.84,5.73,5.73,0,0,1-2.09-2.34,7.85,7.85,0,0,1,0-6.74,5.75,5.75,0,0,1,2.07-2.34,5.53,5.53,0,0,1,5.27-.32,4.89,4.89,0,0,1,1.74,1.35v-.58a1.24,1.24,0,0,1,.31-.84,1.08,1.08,0,0,1,.82-.33A1.11,1.11,0,0,1,279.35,266.34Zm-3.72,10a3.92,3.92,0,0,0,1.37-1.58,5.5,5.5,0,0,0,0-4.54,4,4,0,0,0-1.37-1.59,3.47,3.47,0,0,0-2-.59,3.57,3.57,0,0,0-2,.57,4,4,0,0,0-1.37,1.59,5.55,5.55,0,0,0,0,4.56,3.92,3.92,0,0,0,1.37,1.58,3.76,3.76,0,0,0,4,0Z" transform="translate(-208.54 -176)"/><path d="M286.46,268.42v7.15q0,1.2,1.08,1.2a1.59,1.59,0,0,0,.46-.09,1.93,1.93,0,0,1,.46-.08.66.66,0,0,1,.52.26,1,1,0,0,1-.36,1.54,2.36,2.36,0,0,1-1.29.36,6,6,0,0,1-1.45-.17,2.12,2.12,0,0,1-1.18-.85,3.48,3.48,0,0,1-.52-2.08v-7.24h-1.39a1,1,0,0,1-.75-.3,1,1,0,0,1-.3-.76,1,1,0,0,1,.3-.74,1,1,0,0,1,.75-.29h1.39v-2a1.1,1.1,0,0,1,.33-.81,1.07,1.07,0,0,1,.83-.34,1.05,1.05,0,0,1,.8.34,1.09,1.09,0,0,1,.32.81v2h2a1,1,0,0,1,1.05,1.05,1,1,0,0,1-.3.75,1.05,1.05,0,0,1-.75.29Z" transform="translate(-208.54 -176)"/><path d="M302.36,266.52a1.12,1.12,0,0,1,.33.82v6.38a5.27,5.27,0,1,1-10.51,0v-6.38a1.12,1.12,0,0,1,.32-.82,1.09,1.09,0,0,1,.8-.34,1.11,1.11,0,0,1,.83.34,1.12,1.12,0,0,1,.33.82v6.38c0,2.1,1,3.14,3,3.14a3,3,0,0,0,2.23-.79,3.26,3.26,0,0,0,.77-2.35v-6.38a1.16,1.16,0,0,1,.32-.82,1.15,1.15,0,0,1,1.63,0Z" transform="translate(-208.54 -176)"/><path d="M313.44,266.22a1,1,0,0,1,.46.8,1.23,1.23,0,0,1-.3.88,1,1,0,0,1-.74.3,2.4,2.4,0,0,1-.64-.14,2.49,2.49,0,0,0-.8-.17,2.46,2.46,0,0,0-1.45.51,3.8,3.8,0,0,0-1.15,1.42,4.41,4.41,0,0,0-.44,2v5.79a1.1,1.1,0,0,1-.33.81,1.18,1.18,0,0,1-1.64,0,1.16,1.16,0,0,1-.31-.83V267.34a1.12,1.12,0,0,1,.32-.82,1.09,1.09,0,0,1,.8-.34,1.14,1.14,0,0,1,1.16,1.16v1.22a4.52,4.52,0,0,1,1.58-1.91,4.17,4.17,0,0,1,2.4-.75A1.81,1.81,0,0,1,313.44,266.22Z" transform="translate(-208.54 -176)"/><path d="M326.16,272.72a1.15,1.15,0,0,1-.79.3h-8.45a4.18,4.18,0,0,0,1.33,2.81,4.08,4.08,0,0,0,2.85,1.06,4.37,4.37,0,0,0,1.87-.34,4.66,4.66,0,0,0,1.27-.86,1.3,1.3,0,0,1,.7-.22.91.91,0,0,1,.68.29,1,1,0,0,1,.28.67,1.17,1.17,0,0,1-.48.91,5.61,5.61,0,0,1-1.85,1.18,6.06,6.06,0,0,1-2.35.48,6.87,6.87,0,0,1-3.42-.82,5.56,5.56,0,0,1-2.28-2.28,6.71,6.71,0,0,1-.81-3.31,7.35,7.35,0,0,1,.83-3.54,6.09,6.09,0,0,1,2.18-2.34,5.66,5.66,0,0,1,5.8,0,5.94,5.94,0,0,1,2.16,2.18,6.32,6.32,0,0,1,.84,3.12A1,1,0,0,1,326.16,272.72Zm-7.85-4A3.74,3.74,0,0,0,317,271.1h7.08v-.19a2.94,2.94,0,0,0-1.14-2.09,3.66,3.66,0,0,0-2.32-.81A3.74,3.74,0,0,0,318.31,268.76Z" transform="translate(-208.54 -176)"/><path d="M231.94,307.31a7.79,7.79,0,0,1-2.57-1.6,1.26,1.26,0,0,1-.51-1,1.11,1.11,0,0,1,.34-.78,1.07,1.07,0,0,1,.79-.35,1,1,0,0,1,.7.26,6.54,6.54,0,0,0,2,1.31,6,6,0,0,0,2.31.42,4.55,4.55,0,0,0,2.56-.69,2.05,2.05,0,0,0,1-1.76,2.24,2.24,0,0,0-1-1.93,9.61,9.61,0,0,0-3.11-1.14,8.27,8.27,0,0,1-3.8-1.65,4,4,0,0,1-1.33-3.2,4.2,4.2,0,0,1,.74-2.48,4.76,4.76,0,0,1,2.06-1.64,7.3,7.3,0,0,1,3-.58,8.17,8.17,0,0,1,2.81.48,5.83,5.83,0,0,1,2.13,1.27,1.39,1.39,0,0,1,.56,1,1.06,1.06,0,0,1-.33.77,1,1,0,0,1-.78.34.83.83,0,0,1-.55-.19,5,5,0,0,0-1.73-1.06,5.72,5.72,0,0,0-2.11-.43,4.44,4.44,0,0,0-2.56.66,2.14,2.14,0,0,0,0,3.54,9,9,0,0,0,2.82,1.05,15.91,15.91,0,0,1,3.06,1,4.26,4.26,0,0,1,1.84,1.54,4.62,4.62,0,0,1,.65,2.57,4.1,4.1,0,0,1-.78,2.47A5.13,5.13,0,0,1,238,307.2a7.14,7.14,0,0,1-2.95.6A8.87,8.87,0,0,1,231.94,307.31Z" transform="translate(-208.54 -176)"/><path d="M254.3,301.52a1.13,1.13,0,0,1-.79.3h-8.45a4.19,4.19,0,0,0,1.34,2.81,4,4,0,0,0,2.84,1.06,4.34,4.34,0,0,0,1.87-.34,4.51,4.51,0,0,0,1.27-.86,1.33,1.33,0,0,1,.7-.22.91.91,0,0,1,.68.29.92.92,0,0,1,.28.67,1.17,1.17,0,0,1-.48.91,5.51,5.51,0,0,1-1.85,1.18,6.06,6.06,0,0,1-2.35.48,6.87,6.87,0,0,1-3.42-.82,5.69,5.69,0,0,1-2.28-2.28,6.7,6.7,0,0,1-.8-3.31,7.34,7.34,0,0,1,.82-3.54,6.11,6.11,0,0,1,2.19-2.34,5.64,5.64,0,0,1,5.79,0,5.94,5.94,0,0,1,2.16,2.18,6.12,6.12,0,0,1,.84,3.12A1,1,0,0,1,254.3,301.52Zm-7.84-4a3.75,3.75,0,0,0-1.3,2.34h7.08v-.19a2.94,2.94,0,0,0-1.14-2.09,3.62,3.62,0,0,0-2.32-.81A3.71,3.71,0,0,0,246.46,297.56Z" transform="translate(-208.54 -176)"/><path d="M268.43,295.14a1.18,1.18,0,0,1,.32.85v10.42a1.13,1.13,0,0,1-.32.81,1.09,1.09,0,0,1-.83.34,1.11,1.11,0,0,1-.82-.32,1.2,1.2,0,0,1-.31-.83v-.63a5,5,0,0,1-1.7,1.43,4.83,4.83,0,0,1-2.33.59,5.41,5.41,0,0,1-3-.84,5.73,5.73,0,0,1-2.09-2.34,7.85,7.85,0,0,1,0-6.74,5.75,5.75,0,0,1,2.07-2.34,5.53,5.53,0,0,1,5.27-.32,4.89,4.89,0,0,1,1.74,1.35V296a1.24,1.24,0,0,1,.31-.84,1.08,1.08,0,0,1,.82-.33A1.11,1.11,0,0,1,268.43,295.14Zm-3.72,10a3.92,3.92,0,0,0,1.37-1.58,5.5,5.5,0,0,0,0-4.54,4,4,0,0,0-1.37-1.59,3.47,3.47,0,0,0-2-.59,3.57,3.57,0,0,0-2,.57,4,4,0,0,0-1.37,1.59,5.55,5.55,0,0,0,0,4.56,3.92,3.92,0,0,0,1.37,1.58,3.76,3.76,0,0,0,4,0Z" transform="translate(-208.54 -176)"/><path d="M279.48,295a1,1,0,0,1,.46.8,1.19,1.19,0,0,1-.3.88,1,1,0,0,1-.74.3,2.4,2.4,0,0,1-.64-.14,2.49,2.49,0,0,0-.8-.17,2.46,2.46,0,0,0-1.45.51,3.89,3.89,0,0,0-1.15,1.42,4.41,4.41,0,0,0-.44,2v5.79a1.1,1.1,0,0,1-.33.81,1.07,1.07,0,0,1-.83.34,1.1,1.1,0,0,1-.81-.32,1.16,1.16,0,0,1-.31-.83V296.14a1.12,1.12,0,0,1,.32-.82,1.09,1.09,0,0,1,.8-.34,1.11,1.11,0,0,1,.83.34,1.12,1.12,0,0,1,.33.82v1.22a4.59,4.59,0,0,1,1.58-1.91,4.17,4.17,0,0,1,2.4-.75A1.77,1.77,0,0,1,279.48,295Z" transform="translate(-208.54 -176)"/><path d="M290.15,295.3q1.26.6,1.26,1.53a1.1,1.1,0,0,1-.27.73.82.82,0,0,1-.67.33,1,1,0,0,1-.49-.1,5.62,5.62,0,0,1-.49-.31,2.6,2.6,0,0,0-.46-.34,3.63,3.63,0,0,0-.81-.24,5.91,5.91,0,0,0-1-.09,4.23,4.23,0,0,0-2.21.57,4,4,0,0,0-1.49,1.6,4.9,4.9,0,0,0-.53,2.27,4.85,4.85,0,0,0,.52,2.28,3.92,3.92,0,0,0,3.59,2.16,4.44,4.44,0,0,0,2-.39,3.35,3.35,0,0,0,.46-.31,3.23,3.23,0,0,1,.42-.29,1.12,1.12,0,0,1,1.2.21,1.12,1.12,0,0,1,.27.78,1.32,1.32,0,0,1-.63,1,5.14,5.14,0,0,1-1.71.81,8,8,0,0,1-2.29.31,6,6,0,0,1-3.21-.85,5.68,5.68,0,0,1-2.15-2.35,7.27,7.27,0,0,1-.76-3.35,7.17,7.17,0,0,1,.79-3.35,6,6,0,0,1,2.21-2.35,6.17,6.17,0,0,1,3.24-.85A7.33,7.33,0,0,1,290.15,295.3Z" transform="translate(-208.54 -176)"/><path d="M304.34,300v6.41a1.13,1.13,0,0,1-1.15,1.15,1,1,0,0,1-.8-.34,1.1,1.1,0,0,1-.33-.81V300q0-3.12-2.64-3.12a3.27,3.27,0,0,0-2.35.9,3,3,0,0,0-.93,2.22v6.41a1.1,1.1,0,0,1-.33.81,1.07,1.07,0,0,1-.83.34,1.1,1.1,0,0,1-.81-.32,1.16,1.16,0,0,1-.31-.83V291a1.09,1.09,0,0,1,.32-.81,1.05,1.05,0,0,1,.8-.34,1.07,1.07,0,0,1,.83.34,1.1,1.1,0,0,1,.33.81V297a5.15,5.15,0,0,1,1.68-1.59,4.32,4.32,0,0,1,2.3-.66C302.94,294.77,304.34,296.51,304.34,300Z" transform="translate(-208.54 -176)"/><path d="M237.6,527.09a6.92,6.92,0,0,1,2.42,3,11.42,11.42,0,0,1,0,8.5,6.84,6.84,0,0,1-2.42,3,6.57,6.57,0,0,1-3.87,1.12h-5.9a1.14,1.14,0,0,1-1.15-1.15v-14.5a1.14,1.14,0,0,1,1.15-1.15h5.9A6.57,6.57,0,0,1,237.6,527.09Zm-.43,11.72a7.59,7.59,0,0,0,1.22-4.45,7.49,7.49,0,0,0-1.24-4.44,4.17,4.17,0,0,0-3.66-1.75h-4.44v12.38h4.44A4.2,4.2,0,0,0,237.17,538.81Z" transform="translate(-208.54 -176)"/><path d="M254.85,539.83a6.1,6.1,0,0,1-2.29,2.33,6.53,6.53,0,0,1-6.41,0,6.17,6.17,0,0,1-2.29-2.33,6.7,6.7,0,0,1-.84-3.36,6.83,6.83,0,0,1,.84-3.38,6.09,6.09,0,0,1,2.29-2.35,6.53,6.53,0,0,1,6.41,0,6,6,0,0,1,2.29,2.35,6.83,6.83,0,0,1,.84,3.38A6.7,6.7,0,0,1,254.85,539.83Zm-2-5.67a4,4,0,0,0-1.46-1.59,3.92,3.92,0,0,0-2-.56,3.87,3.87,0,0,0-2.05.56,4,4,0,0,0-1.47,1.59,4.86,4.86,0,0,0-.54,2.31,4.74,4.74,0,0,0,.54,2.28,4,4,0,0,0,1.47,1.57,3.79,3.79,0,0,0,2.05.57,3.84,3.84,0,0,0,2-.57,4,4,0,0,0,1.46-1.57,4.74,4.74,0,0,0,.54-2.28A4.86,4.86,0,0,0,252.87,534.16Z" transform="translate(-208.54 -176)"/><path d="M273.8,530.39a1.1,1.1,0,0,1,.33.83,1.69,1.69,0,0,1-.1.45L270.36,542a1.11,1.11,0,0,1-.48.58,1.22,1.22,0,0,1-.72.14,1.18,1.18,0,0,1-1-.72l-2.49-6.53L263.37,542a1.18,1.18,0,0,1-.4.52,1.22,1.22,0,0,1-.58.2,1.08,1.08,0,0,1-.71-.16,1,1,0,0,1-.47-.56l-3.72-10.37a1.63,1.63,0,0,1-.07-.45,1.19,1.19,0,0,1,.31-.82,1.08,1.08,0,0,1,.82-.34,1,1,0,0,1,1.06.72l2.85,8.09,2.28-6a1.06,1.06,0,0,1,1.06-.72,1,1,0,0,1,1,.72l2.33,5.88,2.81-8a1.05,1.05,0,0,1,1.1-.72A1,1,0,0,1,273.8,530.39Z" transform="translate(-208.54 -176)"/><path d="M287.33,535.08v6.53a1.1,1.1,0,0,1-.33.81,1.07,1.07,0,0,1-.83.34,1,1,0,0,1-.8-.34,1.1,1.1,0,0,1-.33-.81V535.1a3.6,3.6,0,0,0-.64-2.25,2.52,2.52,0,0,0-2.11-.84,3.65,3.65,0,0,0-1.75.42,3.17,3.17,0,0,0-1.22,1.13,2.79,2.79,0,0,0-.44,1.54v6.51a1.1,1.1,0,0,1-.33.81,1.06,1.06,0,0,1-.82.34,1.11,1.11,0,0,1-.82-.32,1.16,1.16,0,0,1-.31-.83V531.34a1.16,1.16,0,0,1,.32-.82,1.15,1.15,0,0,1,1.63,0,1.12,1.12,0,0,1,.33.82v.84a5,5,0,0,1,1.74-1.62,4.6,4.6,0,0,1,2.38-.66C285.89,529.9,287.33,531.62,287.33,535.08Z" transform="translate(-208.54 -176)"/><path d="M292.87,542.42a1.11,1.11,0,0,1-.82.34,1,1,0,0,1-.8-.34,1.1,1.1,0,0,1-.33-.81V526.15a1.11,1.11,0,0,1,.34-.81,1.09,1.09,0,0,1,.82-.34,1,1,0,0,1,.8.34,1.09,1.09,0,0,1,.32.81v15.46A1.1,1.1,0,0,1,292.87,542.42Z" transform="translate(-208.54 -176)"/><path d="M307.63,539.83a6.17,6.17,0,0,1-2.29,2.33,6.53,6.53,0,0,1-6.41,0,6.1,6.1,0,0,1-2.29-2.33,6.7,6.7,0,0,1-.84-3.36,6.83,6.83,0,0,1,.84-3.38,6,6,0,0,1,2.29-2.35,6.53,6.53,0,0,1,6.41,0,6.09,6.09,0,0,1,2.29,2.35,6.83,6.83,0,0,1,.84,3.38A6.7,6.7,0,0,1,307.63,539.83Zm-2-5.67a4.08,4.08,0,0,0-1.46-1.59,4.05,4.05,0,0,0-4.11,0,4,4,0,0,0-1.46,1.59,4.86,4.86,0,0,0-.54,2.31,4.74,4.74,0,0,0,.54,2.28,4,4,0,0,0,1.46,1.57,4,4,0,0,0,4.11,0,4,4,0,0,0,1.46-1.57,4.74,4.74,0,0,0,.54-2.28A4.86,4.86,0,0,0,305.65,534.16Z" transform="translate(-208.54 -176)"/><path d="M322.14,530.34a1.18,1.18,0,0,1,.32.85v10.42a1.13,1.13,0,0,1-.32.81,1.2,1.2,0,0,1-1.65,0,1.16,1.16,0,0,1-.31-.83V541a5.14,5.14,0,0,1-1.7,1.43,4.83,4.83,0,0,1-2.33.59,5.46,5.46,0,0,1-3-.84,5.78,5.78,0,0,1-2.08-2.34,7.85,7.85,0,0,1,0-6.74,5.75,5.75,0,0,1,2.07-2.34,5.31,5.31,0,0,1,2.91-.84,5.39,5.39,0,0,1,2.36.52,4.89,4.89,0,0,1,1.74,1.35v-.58a1.2,1.2,0,0,1,.31-.84,1.08,1.08,0,0,1,.82-.33A1.12,1.12,0,0,1,322.14,530.34Zm-3.72,10a3.82,3.82,0,0,0,1.36-1.58,5.4,5.4,0,0,0,0-4.54,3.91,3.91,0,0,0-1.36-1.59,3.49,3.49,0,0,0-2-.59,3.57,3.57,0,0,0-2,.57,3.94,3.94,0,0,0-1.37,1.59,5.55,5.55,0,0,0,0,4.56,3.84,3.84,0,0,0,1.37,1.58,3.5,3.5,0,0,0,2,.58A3.56,3.56,0,0,0,318.42,540.31Z" transform="translate(-208.54 -176)"/><path d="M336.87,525.32a1.13,1.13,0,0,1,.33.83v15.46a1.1,1.1,0,0,1-.33.81,1.07,1.07,0,0,1-.83.34,1.1,1.1,0,0,1-.81-.32,1.16,1.16,0,0,1-.31-.83v-.67a4.92,4.92,0,0,1-1.7,1.46,4.74,4.74,0,0,1-2.34.6,5.4,5.4,0,0,1-2.95-.84,6,6,0,0,1-2.09-2.34,7.3,7.3,0,0,1-.76-3.37,7.42,7.42,0,0,1,.75-3.37,5.85,5.85,0,0,1,2.08-2.34,5.49,5.49,0,0,1,5.25-.32,5.18,5.18,0,0,1,1.76,1.37v-5.64a1.16,1.16,0,0,1,.31-.83A1.1,1.1,0,0,1,336,525,1.13,1.13,0,0,1,336.87,525.32Zm-3.72,15a3.84,3.84,0,0,0,1.37-1.58,5.53,5.53,0,0,0,0-4.55,3.9,3.9,0,0,0-1.37-1.6,3.57,3.57,0,0,0-2-.57,3.63,3.63,0,0,0-2,.57,3.88,3.88,0,0,0-1.36,1.6,5.43,5.43,0,0,0,0,4.55,3.82,3.82,0,0,0,1.36,1.58,3.56,3.56,0,0,0,2,.58A3.5,3.5,0,0,0,333.15,540.31Z" transform="translate(-208.54 -176)"/><path d="M356.59,526.64a5,5,0,0,1,1.71,1.86,5.33,5.33,0,0,1,.64,2.6,5.42,5.42,0,0,1-.64,2.61,5,5,0,0,1-1.71,1.9,4.3,4.3,0,0,1-2.35.69h-4.52v5.31a1.12,1.12,0,0,1-.31.81,1,1,0,0,1-.79.34,1,1,0,0,1-.8-.32,1.19,1.19,0,0,1-.3-.83v-14.5a1.14,1.14,0,0,1,1.15-1.15h5.57A4.37,4.37,0,0,1,356.59,526.64Zm-1.15,7.06a2.89,2.89,0,0,0,.87-1.12,3.41,3.41,0,0,0,.33-1.48,3.16,3.16,0,0,0-.71-2.08,2.13,2.13,0,0,0-1.69-.85h-4.52v6h4.52A2,2,0,0,0,355.44,533.7Z" transform="translate(-208.54 -176)"/><path d="M371.7,530.52a1.16,1.16,0,0,1,.32.82v6.38a4.8,4.8,0,0,1-5.28,5.26,5.19,5.19,0,0,1-3.86-1.38,5.25,5.25,0,0,1-1.37-3.88v-6.38a1.16,1.16,0,0,1,.32-.82,1.15,1.15,0,0,1,1.63,0,1.12,1.12,0,0,1,.33.82v6.38c0,2.1,1,3.14,2.95,3.14a3,3,0,0,0,2.23-.79,3.26,3.26,0,0,0,.77-2.35v-6.38a1.16,1.16,0,0,1,.32-.82,1.11,1.11,0,0,1,.81-.34A1.14,1.14,0,0,1,371.7,530.52Z" transform="translate(-208.54 -176)"/><path d="M384.69,530.74a5.86,5.86,0,0,1,2.08,2.32,7.41,7.41,0,0,1,.75,3.36,7.54,7.54,0,0,1-.75,3.39,5.81,5.81,0,0,1-2.08,2.35,5.3,5.3,0,0,1-2.9.84,5,5,0,0,1-2.33-.55,5.53,5.53,0,0,1-1.75-1.37v.7a1.1,1.1,0,0,1-.33.81,1.06,1.06,0,0,1-.82.34,1.1,1.1,0,0,1-.81-.33,1.12,1.12,0,0,1-.32-.82V526.15a1.16,1.16,0,0,1,.31-.83,1.11,1.11,0,0,1,.82-.32,1.06,1.06,0,0,1,.82.34,1.1,1.1,0,0,1,.33.81V532a4.74,4.74,0,0,1,1.68-1.49,4.64,4.64,0,0,1,2.35-.62A5.37,5.37,0,0,1,384.69,530.74Zm-1.22,9.56a4,4,0,0,0,1.38-1.61,5.11,5.11,0,0,0,.49-2.27,5,5,0,0,0-.49-2.25,4,4,0,0,0-1.38-1.59,3.81,3.81,0,0,0-4,0,3.93,3.93,0,0,0-1.38,1.58,5,5,0,0,0-.49,2.26,5.09,5.09,0,0,0,.49,2.28,3.92,3.92,0,0,0,1.38,1.6,3.7,3.7,0,0,0,4,0Z" transform="translate(-208.54 -176)"/><path d="M392.3,542.42a1.09,1.09,0,0,1-.82.34,1.05,1.05,0,0,1-.8-.34,1.09,1.09,0,0,1-.32-.81V526.15a1.14,1.14,0,0,1,1.15-1.15,1,1,0,0,1,.8.34,1.1,1.1,0,0,1,.33.81v15.46A1.11,1.11,0,0,1,392.3,542.42Z" transform="translate(-208.54 -176)"/><path d="M396.25,528.23a1,1,0,0,1-.3-.81V527a1,1,0,0,1,.32-.82,1.69,1.69,0,0,1,1-.24,1.5,1.5,0,0,1,1,.26,1,1,0,0,1,.3.8v.38a1,1,0,0,1-.31.82,1.64,1.64,0,0,1-1,.24A1.53,1.53,0,0,1,396.25,528.23Zm1.82,14.19a1.07,1.07,0,0,1-.83.34,1.05,1.05,0,0,1-.8-.34,1.09,1.09,0,0,1-.32-.81V531.22a1.12,1.12,0,0,1,.32-.82,1.09,1.09,0,0,1,.8-.34,1.11,1.11,0,0,1,.83.34,1.12,1.12,0,0,1,.33.82v10.39A1.1,1.1,0,0,1,398.07,542.42Z" transform="translate(-208.54 -176)"/><path d="M410.31,530.5q1.26.6,1.26,1.53a1.14,1.14,0,0,1-.26.73.83.83,0,0,1-.67.33,1,1,0,0,1-.5-.1,5.62,5.62,0,0,1-.49-.31,2.46,2.46,0,0,0-.45-.34,3.92,3.92,0,0,0-.82-.24,5.72,5.72,0,0,0-1-.09,4.25,4.25,0,0,0-2.21.57,4,4,0,0,0-1.49,1.6,4.89,4.89,0,0,0-.52,2.27,5,5,0,0,0,.51,2.28,3.92,3.92,0,0,0,3.59,2.16,4.51,4.51,0,0,0,2-.39,3.38,3.38,0,0,0,.45-.31,3.23,3.23,0,0,1,.42-.29,1,1,0,0,1,.45-.09,1,1,0,0,1,.75.3,1.08,1.08,0,0,1,.28.78,1.31,1.31,0,0,1-.64,1,5.08,5.08,0,0,1-1.7.81A8.07,8.07,0,0,1,407,543a6,6,0,0,1-3.22-.85,5.75,5.75,0,0,1-2.15-2.35,7.4,7.4,0,0,1-.75-3.35,7,7,0,0,1,.79-3.35,5.89,5.89,0,0,1,2.21-2.35,6.12,6.12,0,0,1,3.24-.85A7.31,7.31,0,0,1,410.31,530.5Z" transform="translate(-208.54 -176)"/><path d="M303.51,555.89a7,7,0,0,1,2.43,3,11.55,11.55,0,0,1,0,8.5,6.93,6.93,0,0,1-2.43,3,6.56,6.56,0,0,1-3.86,1.12h-5.91a1.16,1.16,0,0,1-1.15-1.15v-14.5a1.16,1.16,0,0,1,1.15-1.15h5.91A6.56,6.56,0,0,1,303.51,555.89Zm-.43,11.72a8.68,8.68,0,0,0,0-8.89,4.2,4.2,0,0,0-3.66-1.75H295v12.38h4.44A4.2,4.2,0,0,0,303.08,567.61Z" transform="translate(-208.54 -176)"/><path d="M320.54,559.14a1.14,1.14,0,0,1,.32.85v10.42a1.16,1.16,0,0,1-2,.83,1.16,1.16,0,0,1-.32-.83v-.63a5,5,0,0,1-1.7,1.43,4.83,4.83,0,0,1-2.33.59,5.43,5.43,0,0,1-3-.84,5.73,5.73,0,0,1-2.09-2.34,7.85,7.85,0,0,1,0-6.74,5.78,5.78,0,0,1,2.08-2.34,5.28,5.28,0,0,1,2.9-.84,5.33,5.33,0,0,1,2.36.52,4.89,4.89,0,0,1,1.74,1.35V560a1.2,1.2,0,0,1,.32-.84,1.06,1.06,0,0,1,.81-.33A1.11,1.11,0,0,1,320.54,559.14Zm-3.72,10a3.92,3.92,0,0,0,1.37-1.58,5.5,5.5,0,0,0,0-4.54,4,4,0,0,0-1.37-1.59,3.44,3.44,0,0,0-2-.59,3.61,3.61,0,0,0-2,.57,4,4,0,0,0-1.37,1.59,5.55,5.55,0,0,0,0,4.56,3.92,3.92,0,0,0,1.37,1.58,3.76,3.76,0,0,0,4,0Z" transform="translate(-208.54 -176)"/><path d="M327.66,561.21v7.16q0,1.2,1.08,1.2a1.6,1.6,0,0,0,.45-.09,2,2,0,0,1,.46-.08.68.68,0,0,1,.53.26,1.06,1.06,0,0,1,.21.68,1,1,0,0,1-.57.86,2.42,2.42,0,0,1-1.3.36,6,6,0,0,1-1.45-.17,2.15,2.15,0,0,1-1.18-.85,3.48,3.48,0,0,1-.51-2.08v-7.25H324a1,1,0,0,1-.75-.29,1,1,0,0,1-.3-.76,1,1,0,0,1,.3-.74,1,1,0,0,1,.75-.29h1.4v-2a1.13,1.13,0,0,1,.32-.82,1.12,1.12,0,0,1,.83-.33,1.06,1.06,0,0,1,.8.33,1.14,1.14,0,0,1,.33.82v2h2a1,1,0,0,1,1.05,1,1,1,0,0,1-.3.75,1,1,0,0,1-.75.28Z" transform="translate(-208.54 -176)"/><path d="M344.4,559.14a1.18,1.18,0,0,1,.32.85v10.42a1.13,1.13,0,0,1-.32.81,1.2,1.2,0,0,1-1.65,0,1.16,1.16,0,0,1-.31-.83v-.63a5.14,5.14,0,0,1-1.7,1.43,4.83,4.83,0,0,1-2.33.59,5.46,5.46,0,0,1-3-.84,5.78,5.78,0,0,1-2.08-2.34,7.85,7.85,0,0,1,0-6.74,5.75,5.75,0,0,1,2.07-2.34,5.31,5.31,0,0,1,2.91-.84,5.39,5.39,0,0,1,2.36.52,4.89,4.89,0,0,1,1.74,1.35V560a1.2,1.2,0,0,1,.31-.84,1.08,1.08,0,0,1,.82-.33A1.12,1.12,0,0,1,344.4,559.14Zm-3.72,10a3.82,3.82,0,0,0,1.36-1.58,5.4,5.4,0,0,0,0-4.54,3.91,3.91,0,0,0-1.36-1.59,3.49,3.49,0,0,0-2-.59,3.57,3.57,0,0,0-2,.57A3.87,3.87,0,0,0,335.3,563a5.55,5.55,0,0,0,0,4.56,3.84,3.84,0,0,0,1.37,1.58,3.5,3.5,0,0,0,2,.58A3.56,3.56,0,0,0,340.68,569.11Z" transform="translate(-208.54 -176)"/><path d="M444.58,280a1.07,1.07,0,0,1,.32.76,1.57,1.57,0,0,1-.77,1.2,6.42,6.42,0,0,1-1.87.94,6.59,6.59,0,0,1-2,.36,8.13,8.13,0,0,1-2.37-.29,10,10,0,0,1-1.9-.84,9.9,9.9,0,0,0-1.22-.59,3.23,3.23,0,0,0-1.13-.18,1.91,1.91,0,0,0-.54.08,4.25,4.25,0,0,0-.49.21,2.5,2.5,0,0,1-1.08.29,1,1,0,0,1-.78-.35,1.1,1.1,0,0,1-.33-.78,1,1,0,0,1,.65-1l2.69-1a7.5,7.5,0,0,1-3.46-1.54,8.18,8.18,0,0,1-2.35-3,9.38,9.38,0,0,1-.84-4,9.16,9.16,0,0,1,1.05-4.39,8,8,0,0,1,2.89-3.11,8.22,8.22,0,0,1,8.35,0,8,8,0,0,1,2.89,3.11,9.16,9.16,0,0,1,1.05,4.39,9.28,9.28,0,0,1-.81,3.89,8.17,8.17,0,0,1-2.24,3,7.51,7.51,0,0,1-3.31,1.59l-1.83.67a4,4,0,0,1,1.09.28,13,13,0,0,1,1.19.56,13.18,13.18,0,0,0,1.51.66,4.44,4.44,0,0,0,1.44.23,3.51,3.51,0,0,0,1.2-.19,4.1,4.1,0,0,0,1-.53l.45-.35a2.83,2.83,0,0,1,.45-.31.94.94,0,0,1,.42-.11A1,1,0,0,1,444.58,280Zm-14.3-6.43a5.58,5.58,0,0,0,2,2.28,5.53,5.53,0,0,0,5.83,0,5.55,5.55,0,0,0,2-2.28,7.7,7.7,0,0,0,0-6.5,5.55,5.55,0,0,0-2-2.28,5.56,5.56,0,0,0-5.83,0,5.52,5.52,0,0,0-2,2.26,7.76,7.76,0,0,0,0,6.53Z" transform="translate(-208.54 -176)"/><path d="M458.92,263.9a1.27,1.27,0,0,1-.29.8,1,1,0,0,1-.79.38,1.37,1.37,0,0,1-.65-.17,6.45,6.45,0,0,0-3.22-.84,6.36,6.36,0,0,0-3.18.79,5.6,5.6,0,0,0-2.15,2.22,6.87,6.87,0,0,0-.76,3.28,7,7,0,0,0,.79,3.43,5.43,5.43,0,0,0,2.18,2.2,6.48,6.48,0,0,0,3.12.75,6.09,6.09,0,0,0,3.22-.86,1.31,1.31,0,0,1,.62-.14,1,1,0,0,1,.84.4,1.23,1.23,0,0,1,.29.77,1,1,0,0,1-.16.54,1.08,1.08,0,0,1-.42.4,9,9,0,0,1-2.1.84A8.7,8.7,0,0,1,454,279a9,9,0,0,1-4.28-1,7.76,7.76,0,0,1-3.12-3,8.85,8.85,0,0,1-1.17-4.61,8.7,8.7,0,0,1,1.12-4.38,8.08,8.08,0,0,1,3.07-3.07,8.65,8.65,0,0,1,4.38-1.12,8.84,8.84,0,0,1,4.37,1.15A1,1,0,0,1,458.92,263.9Z" transform="translate(-208.54 -176)"/><path d="M479.06,266.34a1.15,1.15,0,0,1,.33.85v10.42a1.1,1.1,0,0,1-.33.81,1.06,1.06,0,0,1-.82.34,1.11,1.11,0,0,1-.82-.32,1.16,1.16,0,0,1-.31-.83V277a5.18,5.18,0,0,1-1.71,1.43,4.79,4.79,0,0,1-2.32.59,5.46,5.46,0,0,1-3-.84,5.8,5.8,0,0,1-2.09-2.34,7.95,7.95,0,0,1,0-6.74,5.85,5.85,0,0,1,2.08-2.34,5.3,5.3,0,0,1,2.9-.84,5.41,5.41,0,0,1,2.37.52,4.89,4.89,0,0,1,1.74,1.35v-.58a1.2,1.2,0,0,1,.31-.84,1.2,1.2,0,0,1,1.64,0Zm-3.72,10a3.84,3.84,0,0,0,1.37-1.58,5.5,5.5,0,0,0,0-4.54,3.94,3.94,0,0,0-1.37-1.59,3.44,3.44,0,0,0-2-.59,3.57,3.57,0,0,0-2,.57,3.94,3.94,0,0,0-1.37,1.59,5.55,5.55,0,0,0,0,4.56,3.84,3.84,0,0,0,1.37,1.58,3.74,3.74,0,0,0,4,0Z" transform="translate(-208.54 -176)"/><path d="M493.5,271.08v6.53a1.13,1.13,0,0,1-.32.81,1.1,1.1,0,0,1-.83.34,1.07,1.07,0,0,1-.81-.34,1.13,1.13,0,0,1-.32-.81V271.1a3.6,3.6,0,0,0-.65-2.25,2.49,2.49,0,0,0-2.11-.84,3.61,3.61,0,0,0-1.74.42,3.1,3.1,0,0,0-1.22,1.13,2.8,2.8,0,0,0-.45,1.54v6.51a1.13,1.13,0,0,1-.32.81,1.09,1.09,0,0,1-.83.34,1.11,1.11,0,0,1-.82-.32,1.2,1.2,0,0,1-.31-.83V267.34a1.12,1.12,0,0,1,.33-.82,1.07,1.07,0,0,1,.8-.34,1.12,1.12,0,0,1,.83.34,1.16,1.16,0,0,1,.32.82v.84a5.23,5.23,0,0,1,1.74-1.62,4.63,4.63,0,0,1,2.39-.66C492.06,265.9,493.5,267.62,493.5,271.08Z" transform="translate(-208.54 -176)"/><path d="M507.94,261.32a1.16,1.16,0,0,1,.32.83v15.46a1.13,1.13,0,0,1-.32.81,1.2,1.2,0,0,1-1.65,0,1.16,1.16,0,0,1-.31-.83v-.67a4.88,4.88,0,0,1-1.69,1.46,4.8,4.8,0,0,1-2.34.6,5.37,5.37,0,0,1-2.95-.84,5.87,5.87,0,0,1-2.09-2.34,7.81,7.81,0,0,1,0-6.74,5.75,5.75,0,0,1,2.07-2.34,5.51,5.51,0,0,1,5.26-.32,5.14,5.14,0,0,1,1.75,1.37v-5.64a1.16,1.16,0,0,1,.31-.83,1.11,1.11,0,0,1,.82-.32A1.16,1.16,0,0,1,507.94,261.32Zm-3.72,15a3.9,3.9,0,0,0,1.36-1.58,5.43,5.43,0,0,0,0-4.55,4,4,0,0,0-1.36-1.6,3.63,3.63,0,0,0-2-.57,3.57,3.57,0,0,0-2,.57,3.9,3.9,0,0,0-1.37,1.6,5.53,5.53,0,0,0,0,4.55,3.84,3.84,0,0,0,1.37,1.58,3.5,3.5,0,0,0,2,.58A3.56,3.56,0,0,0,504.22,276.31Z" transform="translate(-208.54 -176)"/><path d="M379.84,306.53a1.09,1.09,0,0,1-1.08,1.1,1,1,0,0,1-.61-.2,1.43,1.43,0,0,1-.45-.57l-1.49-3.52H368.8l-1.47,3.55a1.07,1.07,0,0,1-.39.55,1.06,1.06,0,0,1-.62.19,1,1,0,0,1-.76-.26,1,1,0,0,1-.27-.72,3.65,3.65,0,0,1,0-.39l6.12-14.83a1.39,1.39,0,0,1,.47-.59,1,1,0,0,1,.68-.15,1.13,1.13,0,0,1,.65.19,1,1,0,0,1,.41.55l6.09,14.64A1.44,1.44,0,0,1,379.84,306.53Zm-10.13-5.38h5.59l-2.81-6.72Z" transform="translate(-208.54 -176)"/><path d="M393,290.12a1.12,1.12,0,0,1,.32.83v15.46a1.16,1.16,0,0,1-2,.83,1.16,1.16,0,0,1-.32-.83v-.67a4.88,4.88,0,0,1-1.69,1.46,4.8,4.8,0,0,1-2.34.6,5.37,5.37,0,0,1-2.95-.84,5.87,5.87,0,0,1-2.09-2.34,7.3,7.3,0,0,1-.77-3.37,7.43,7.43,0,0,1,.76-3.37,5.78,5.78,0,0,1,2.08-2.34,5.49,5.49,0,0,1,5.25-.32,5,5,0,0,1,1.75,1.37V291a1.16,1.16,0,0,1,.32-.83,1.08,1.08,0,0,1,.81-.32A1.15,1.15,0,0,1,393,290.12Zm-3.72,15a3.92,3.92,0,0,0,1.37-1.58,5.53,5.53,0,0,0,0-4.55,4,4,0,0,0-1.37-1.6,3.81,3.81,0,0,0-4,0,4,4,0,0,0-1.37,1.6,5.53,5.53,0,0,0,0,4.55,3.92,3.92,0,0,0,1.37,1.58,3.76,3.76,0,0,0,4,0Z" transform="translate(-208.54 -176)"/><path d="M407.74,295.14a1.18,1.18,0,0,1,.32.85v10.42a1.13,1.13,0,0,1-.32.81,1.2,1.2,0,0,1-1.65,0,1.16,1.16,0,0,1-.31-.83v-.63a5.14,5.14,0,0,1-1.7,1.43,4.83,4.83,0,0,1-2.33.59,5.46,5.46,0,0,1-3-.84,5.78,5.78,0,0,1-2.08-2.34,7.85,7.85,0,0,1,0-6.74,5.75,5.75,0,0,1,2.07-2.34,5.31,5.31,0,0,1,2.91-.84,5.39,5.39,0,0,1,2.36.52,4.89,4.89,0,0,1,1.74,1.35V296a1.2,1.2,0,0,1,.31-.84,1.08,1.08,0,0,1,.82-.33A1.12,1.12,0,0,1,407.74,295.14Zm-3.72,10a3.82,3.82,0,0,0,1.36-1.58,5.4,5.4,0,0,0,0-4.54A3.91,3.91,0,0,0,404,297.4a3.49,3.49,0,0,0-2-.59,3.57,3.57,0,0,0-2,.57,3.94,3.94,0,0,0-1.37,1.59,5.55,5.55,0,0,0,0,4.56,3.84,3.84,0,0,0,1.37,1.58,3.5,3.5,0,0,0,2,.58A3.56,3.56,0,0,0,404,305.11Z" transform="translate(-208.54 -176)"/><path d="M420.71,295.6a5.67,5.67,0,0,1,2.07,2.31,7.79,7.79,0,0,1,0,6.71,5.83,5.83,0,0,1-2.07,2.32,5.31,5.31,0,0,1-2.91.84,5,5,0,0,1-2.32-.56,5.51,5.51,0,0,1-1.76-1.34v5.33a1.15,1.15,0,0,1-2,.83,1.13,1.13,0,0,1-.33-.83v-15.1a1.2,1.2,0,0,1,.32-.84,1.06,1.06,0,0,1,.81-.33,1.12,1.12,0,0,1,.83.33,1.16,1.16,0,0,1,.32.84v.7a4.81,4.81,0,0,1,1.68-1.44,4.87,4.87,0,0,1,2.36-.6A5.39,5.39,0,0,1,420.71,295.6Zm-1.23,9.49a3.82,3.82,0,0,0,1.38-1.57,5,5,0,0,0,.5-2.25,5,5,0,0,0-.5-2.24,3.7,3.7,0,0,0-1.38-1.57,3.52,3.52,0,0,0-2-.58,3.71,3.71,0,0,0-2,.56A3.67,3.67,0,0,0,414.1,299a5.34,5.34,0,0,0,0,4.51,3.7,3.7,0,0,0,1.38,1.57,3.82,3.82,0,0,0,4,0Z" transform="translate(-208.54 -176)"/><path d="M429.59,297.22v7.15q0,1.2,1.08,1.2a1.6,1.6,0,0,0,.45-.09,2.1,2.1,0,0,1,.46-.08.68.68,0,0,1,.53.26,1.06,1.06,0,0,1,.21.68,1,1,0,0,1-.57.86,2.42,2.42,0,0,1-1.3.36,6,6,0,0,1-1.45-.17,2.15,2.15,0,0,1-1.18-.85,3.48,3.48,0,0,1-.51-2.08v-7.24h-1.39a1,1,0,0,1-.76-.3,1,1,0,0,1-.3-.76,1,1,0,0,1,.3-.74,1,1,0,0,1,.76-.29h1.39v-2a1.13,1.13,0,0,1,.32-.81,1.09,1.09,0,0,1,.83-.34,1,1,0,0,1,.8.34,1.1,1.1,0,0,1,.33.81v2h2a1,1,0,0,1,.76.3,1,1,0,0,1,.3.75,1,1,0,0,1-.3.75,1.07,1.07,0,0,1-.76.29Z" transform="translate(-208.54 -176)"/><path d="M445.86,301.52a1.15,1.15,0,0,1-.79.3h-8.45a4.18,4.18,0,0,0,1.33,2.81,4.08,4.08,0,0,0,2.85,1.06,4.37,4.37,0,0,0,1.87-.34,4.66,4.66,0,0,0,1.27-.86,1.3,1.3,0,0,1,.7-.22.91.91,0,0,1,.68.29,1,1,0,0,1,.28.67,1.17,1.17,0,0,1-.48.91,5.61,5.61,0,0,1-1.85,1.18,6.06,6.06,0,0,1-2.35.48,6.87,6.87,0,0,1-3.42-.82,5.56,5.56,0,0,1-2.28-2.28,6.71,6.71,0,0,1-.81-3.31,7.35,7.35,0,0,1,.83-3.54,6.09,6.09,0,0,1,2.18-2.34,5.66,5.66,0,0,1,5.8,0,5.94,5.94,0,0,1,2.16,2.18,6.32,6.32,0,0,1,.84,3.12A1,1,0,0,1,445.86,301.52Zm-7.85-4a3.74,3.74,0,0,0-1.29,2.34h7.08v-.19a2.94,2.94,0,0,0-1.14-2.09,3.64,3.64,0,0,0-2.32-.81A3.74,3.74,0,0,0,438,297.56Z" transform="translate(-208.54 -176)"/><path d="M456.2,295a1,1,0,0,1,.46.8,1.19,1.19,0,0,1-.3.88,1,1,0,0,1-.73.3,2.45,2.45,0,0,1-.65-.14,2.49,2.49,0,0,0-.79-.17,2.44,2.44,0,0,0-1.45.51,3.82,3.82,0,0,0-1.16,1.42,4.55,4.55,0,0,0-.44,2v5.79a1.13,1.13,0,0,1-.32.81,1.2,1.2,0,0,1-1.65,0,1.16,1.16,0,0,1-.31-.83V296.14a1.16,1.16,0,0,1,.32-.82A1.11,1.11,0,0,1,450,295a1.14,1.14,0,0,1,.83.34,1.16,1.16,0,0,1,.32.82v1.22a4.59,4.59,0,0,1,1.58-1.91,4.21,4.21,0,0,1,2.4-.75A1.77,1.77,0,0,1,456.2,295Z" transform="translate(-208.54 -176)"/><path d="M477.43,291.06a1,1,0,0,1,.33.8,1,1,0,0,1-.33.8,1.19,1.19,0,0,1-.83.28h-4.27v13.47a1,1,0,0,1-.35.81,1.18,1.18,0,0,1-.87.34,1.2,1.2,0,0,1-.88-.34,1.08,1.08,0,0,1-.35-.81V292.94h-4.24a1.16,1.16,0,0,1-.83-.3,1,1,0,0,1-.33-.8,1,1,0,0,1,.33-.78,1.16,1.16,0,0,1,.83-.3h11A1.16,1.16,0,0,1,477.43,291.06Z" transform="translate(-208.54 -176)"/><path d="M486.13,295a1,1,0,0,1,.46.8,1.19,1.19,0,0,1-.3.88,1,1,0,0,1-.73.3,2.45,2.45,0,0,1-.65-.14,2.18,2.18,0,0,0-2.25.34,3.89,3.89,0,0,0-1.15,1.42,4.55,4.55,0,0,0-.44,2v5.79a1.1,1.1,0,0,1-.33.81,1.06,1.06,0,0,1-.82.34,1.11,1.11,0,0,1-.82-.32,1.16,1.16,0,0,1-.31-.83V296.14a1.16,1.16,0,0,1,.32-.82,1.15,1.15,0,0,1,1.63,0,1.12,1.12,0,0,1,.33.82v1.22a4.59,4.59,0,0,1,1.58-1.91,4.21,4.21,0,0,1,2.4-.75A1.77,1.77,0,0,1,486.13,295Z" transform="translate(-208.54 -176)"/><path d="M488.71,293a1,1,0,0,1-.3-.81v-.38a1,1,0,0,1,.33-.82,1.64,1.64,0,0,1,1-.24,1.48,1.48,0,0,1,1,.26,1,1,0,0,1,.3.8v.38a1,1,0,0,1-.31.82,1.63,1.63,0,0,1-1,.24A1.54,1.54,0,0,1,488.71,293Zm1.83,14.19a1.1,1.1,0,0,1-.83.34,1.07,1.07,0,0,1-.81-.34,1.13,1.13,0,0,1-.32-.81V296a1.16,1.16,0,0,1,.32-.82,1.11,1.11,0,0,1,.81-.34,1.14,1.14,0,0,1,.83.34,1.16,1.16,0,0,1,.32.82v10.39A1.13,1.13,0,0,1,490.54,307.22Z" transform="translate(-208.54 -176)"/><path d="M512.77,300v6.41a1.16,1.16,0,0,1-.31.83,1.2,1.2,0,0,1-1.65,0,1.13,1.13,0,0,1-.32-.81V300c0-2.09-.88-3.14-2.64-3.14a3.42,3.42,0,0,0-1.69.42,3,3,0,0,0-1.18,1.14,3.09,3.09,0,0,0-.42,1.58v6.39a1.13,1.13,0,0,1-1.15,1.15,1.11,1.11,0,0,1-.82-.32,1.2,1.2,0,0,1-.31-.83V300a3.88,3.88,0,0,0-.6-2.27,2.25,2.25,0,0,0-2-.85,3.23,3.23,0,0,0-2.34.9,3,3,0,0,0-.92,2.22v6.41a1.1,1.1,0,0,1-.33.81,1.07,1.07,0,0,1-.83.34,1.1,1.1,0,0,1-.81-.32,1.16,1.16,0,0,1-.31-.83V296.14a1.12,1.12,0,0,1,.32-.82,1.09,1.09,0,0,1,.8-.34,1.11,1.11,0,0,1,.83.34,1.12,1.12,0,0,1,.33.82V297a5.24,5.24,0,0,1,1.66-1.58,4.34,4.34,0,0,1,2.27-.63,3.69,3.69,0,0,1,3.87,2.64,5.11,5.11,0,0,1,1.75-1.83,4.6,4.6,0,0,1,2.59-.81Q512.77,294.77,512.77,300Z" transform="translate(-208.54 -176)"/><path d="M534.8,300v6.41a1.16,1.16,0,0,1-.31.83,1.11,1.11,0,0,1-.82.32,1.06,1.06,0,0,1-.82-.34,1.1,1.1,0,0,1-.33-.81V300c0-2.09-.88-3.14-2.64-3.14a3.42,3.42,0,0,0-1.69.42,3.05,3.05,0,0,0-1.6,2.72v6.39a1.16,1.16,0,0,1-2,.83,1.16,1.16,0,0,1-.32-.83V300a3.88,3.88,0,0,0-.6-2.27,2.25,2.25,0,0,0-2-.85,3.23,3.23,0,0,0-2.34.9,3,3,0,0,0-.92,2.22v6.41a1.1,1.1,0,0,1-.33.81,1.06,1.06,0,0,1-.82.34,1.11,1.11,0,0,1-.82-.32,1.16,1.16,0,0,1-.31-.83V296.14a1.16,1.16,0,0,1,.32-.82,1.15,1.15,0,0,1,1.63,0,1.12,1.12,0,0,1,.33.82V297a5.17,5.17,0,0,1,1.67-1.58,4.28,4.28,0,0,1,2.26-.63,3.68,3.68,0,0,1,3.87,2.64,5.11,5.11,0,0,1,1.75-1.83,4.63,4.63,0,0,1,2.59-.81Q534.8,294.77,534.8,300Z" transform="translate(-208.54 -176)"/><path d="M538.22,293a1,1,0,0,1-.3-.81v-.38a1,1,0,0,1,.33-.82,1.64,1.64,0,0,1,1-.24,1.48,1.48,0,0,1,1,.26,1,1,0,0,1,.3.8v.38a1,1,0,0,1-.31.82,1.6,1.6,0,0,1-1,.24A1.54,1.54,0,0,1,538.22,293Zm1.83,14.19a1.1,1.1,0,0,1-.83.34,1,1,0,0,1-.8-.34,1.1,1.1,0,0,1-.33-.81V296a1.12,1.12,0,0,1,.33-.82,1.07,1.07,0,0,1,.8-.34,1.14,1.14,0,0,1,.83.34,1.16,1.16,0,0,1,.32.82v10.39A1.13,1.13,0,0,1,540.05,307.22Z" transform="translate(-208.54 -176)"/><path d="M554.39,299.88v6.53a1.1,1.1,0,0,1-.33.81,1.07,1.07,0,0,1-.83.34,1.05,1.05,0,0,1-.8-.34,1.09,1.09,0,0,1-.32-.81V299.9a3.6,3.6,0,0,0-.65-2.25,2.5,2.5,0,0,0-2.11-.84,3.61,3.61,0,0,0-1.74.42,3.2,3.2,0,0,0-1.23,1.13,2.87,2.87,0,0,0-.44,1.54v6.51a1.1,1.1,0,0,1-.33.81,1.06,1.06,0,0,1-.82.34,1.11,1.11,0,0,1-.82-.32,1.16,1.16,0,0,1-.31-.83V296.14a1.16,1.16,0,0,1,.32-.82,1.15,1.15,0,0,1,1.63,0,1.12,1.12,0,0,1,.33.82V297a5,5,0,0,1,1.74-1.62,4.6,4.6,0,0,1,2.39-.66C553,294.7,554.39,296.42,554.39,299.88Z" transform="translate(-208.54 -176)"/><path d="M569.13,295.14a1.15,1.15,0,0,1,.33.85v10.56a6,6,0,0,1-.83,3.25,5,5,0,0,1-2.24,1.94,8,8,0,0,1-3.2.62A8.78,8.78,0,0,1,561,312a3.9,3.9,0,0,1-1.64-.69q-.75-.39-.75-1a1,1,0,0,1,.1-.39.9.9,0,0,1,.89-.6,1.78,1.78,0,0,1,.67.15,9.14,9.14,0,0,0,3,.74,4.26,4.26,0,0,0,2.94-.92,3.25,3.25,0,0,0,1-2.53v-1.3a4.25,4.25,0,0,1-1.69,1.61,5,5,0,0,1-2.51.67,5.69,5.69,0,0,1-3-.84,5.84,5.84,0,0,1-2.14-2.34,7.67,7.67,0,0,1,0-6.74,5.89,5.89,0,0,1,2.13-2.34,5.58,5.58,0,0,1,3-.84,5.49,5.49,0,0,1,4.25,2.06V296a1.2,1.2,0,0,1,.31-.84,1.2,1.2,0,0,1,1.64,0Zm-3.8,10a3.85,3.85,0,0,0,1.43-1.58,5,5,0,0,0,.51-2.29,5,5,0,0,0-.51-2.28,4.08,4.08,0,0,0-1.43-1.59,3.85,3.85,0,0,0-2.09-.57,3.8,3.8,0,0,0-2.06.57,4,4,0,0,0-1.43,1.6,5.21,5.21,0,0,0,0,4.54,3.87,3.87,0,0,0,1.43,1.59,3.72,3.72,0,0,0,2.06.58A3.85,3.85,0,0,0,565.33,305.12Z" transform="translate(-208.54 -176)"/><path d="M592,527.23a6.92,6.92,0,0,1,2.42,3,11.42,11.42,0,0,1,0,8.5,6.84,6.84,0,0,1-2.42,3,6.56,6.56,0,0,1-3.86,1.12h-5.91a1.16,1.16,0,0,1-1.15-1.15v-14.5a1.14,1.14,0,0,1,1.15-1.15h5.91A6.49,6.49,0,0,1,592,527.23ZM591.56,539a8.68,8.68,0,0,0,0-8.89,4.2,4.2,0,0,0-3.66-1.75h-4.44v12.38h4.44A4.2,4.2,0,0,0,591.56,539Z" transform="translate(-208.54 -176)"/><path d="M608.86,536.86a1.15,1.15,0,0,1-.79.3h-8.45A4.18,4.18,0,0,0,601,540,4.12,4.12,0,0,0,603.8,541a4.5,4.5,0,0,0,1.87-.34,4.66,4.66,0,0,0,1.27-.86,1.3,1.3,0,0,1,.7-.22,1,1,0,0,1,1,1,1.17,1.17,0,0,1-.48.91,5.61,5.61,0,0,1-1.85,1.18,6.06,6.06,0,0,1-2.35.48,6.87,6.87,0,0,1-3.42-.82,5.56,5.56,0,0,1-2.28-2.28,6.71,6.71,0,0,1-.81-3.31,7.35,7.35,0,0,1,.83-3.54,5.9,5.9,0,0,1,2.19-2.34,5.64,5.64,0,0,1,5.79,0,5.87,5.87,0,0,1,2.16,2.18,6.12,6.12,0,0,1,.84,3.12A1,1,0,0,1,608.86,536.86Zm-7.85-4a3.79,3.79,0,0,0-1.29,2.34h7.08v-.19a2.94,2.94,0,0,0-1.14-2.09,3.62,3.62,0,0,0-2.32-.81A3.76,3.76,0,0,0,601,532.9Z" transform="translate(-208.54 -176)"/><path d="M622.59,535.22v6.53a1.13,1.13,0,0,1-.32.81,1.1,1.1,0,0,1-.83.34,1.07,1.07,0,0,1-.81-.34,1.13,1.13,0,0,1-.32-.81v-6.51a3.6,3.6,0,0,0-.65-2.25,2.49,2.49,0,0,0-2.11-.84,3.61,3.61,0,0,0-1.74.42,3.15,3.15,0,0,0-1.22,1.12,2.86,2.86,0,0,0-.45,1.55v6.51a1.13,1.13,0,0,1-.32.81,1.18,1.18,0,0,1-1.65,0,1.16,1.16,0,0,1-.31-.82V531.47a1.1,1.1,0,0,1,.33-.81,1,1,0,0,1,.8-.34,1.09,1.09,0,0,1,.83.34,1.13,1.13,0,0,1,.32.81v.84a5.23,5.23,0,0,1,1.74-1.62,4.62,4.62,0,0,1,2.39-.65C621.15,530,622.59,531.76,622.59,535.22Z" transform="translate(-208.54 -176)"/><path d="M637.06,540a6.1,6.1,0,0,1-2.29,2.33,6.53,6.53,0,0,1-6.41,0,6.1,6.1,0,0,1-2.29-2.33,6.7,6.7,0,0,1-.84-3.36,6.81,6.81,0,0,1,.84-3.38,6,6,0,0,1,2.29-2.35,6.53,6.53,0,0,1,6.41,0,6,6,0,0,1,2.29,2.35,6.81,6.81,0,0,1,.84,3.38A6.7,6.7,0,0,1,637.06,540Zm-2-5.68a4.13,4.13,0,0,0-1.46-1.58,4.05,4.05,0,0,0-4.11,0,4.13,4.13,0,0,0-1.46,1.58,4.9,4.9,0,0,0-.54,2.32,4.74,4.74,0,0,0,.54,2.28,4,4,0,0,0,1.46,1.57,4,4,0,0,0,4.11,0,4,4,0,0,0,1.46-1.57,4.74,4.74,0,0,0,.54-2.28A4.9,4.9,0,0,0,635.08,534.29Z" transform="translate(-208.54 -176)"/><path d="M640.55,528.37a1,1,0,0,1-.3-.81v-.38a.94.94,0,0,1,.33-.82,1.66,1.66,0,0,1,1-.24,1.51,1.51,0,0,1,1,.26,1,1,0,0,1,.3.8v.38a1,1,0,0,1-.32.82,1.58,1.58,0,0,1-1,.24A1.54,1.54,0,0,1,640.55,528.37Zm1.83,14.19a1.09,1.09,0,0,1-.83.34,1,1,0,0,1-.8-.34,1.1,1.1,0,0,1-.33-.81v-10.4a1.12,1.12,0,0,1,.33-.81,1,1,0,0,1,.8-.34,1.09,1.09,0,0,1,.83.34,1.15,1.15,0,0,1,.32.81v10.4A1.13,1.13,0,0,1,642.38,542.56Z" transform="translate(-208.54 -176)"/><path d="M645.05,540.28a1,1,0,0,1,.51-.81.88.88,0,0,1,.55-.17,1.09,1.09,0,0,1,.79.36,5.12,5.12,0,0,0,1.55,1.22,4.45,4.45,0,0,0,2,.41,3.38,3.38,0,0,0,1.61-.42,1.36,1.36,0,0,0,.69-1.28,1.37,1.37,0,0,0-.7-1.25,8.17,8.17,0,0,0-2.08-.79,15.45,15.45,0,0,1-2.23-.76,3.87,3.87,0,0,1-1.5-1.15,3.34,3.34,0,0,1,0-3.88,4,4,0,0,1,1.63-1.27,5.44,5.44,0,0,1,2.22-.45,6.36,6.36,0,0,1,2.29.43,4.26,4.26,0,0,1,1.86,1.32,1.05,1.05,0,0,1,.29.69,1,1,0,0,1-.39.75.85.85,0,0,1-.59.21.87.87,0,0,1-.7-.29,3.34,3.34,0,0,0-1.24-.88A4.07,4.07,0,0,0,650,532a3,3,0,0,0-1.54.37,1.32,1.32,0,0,0-.64,1.26,1.37,1.37,0,0,0,.73,1.24,9.13,9.13,0,0,0,2.17.8,12.67,12.67,0,0,1,2.12.72,3.53,3.53,0,0,1,1.41,1.14,3.19,3.19,0,0,1,.58,2,3.08,3.08,0,0,1-.65,1.95,4.16,4.16,0,0,1-1.69,1.27,5.58,5.58,0,0,1-2.22.45,7.35,7.35,0,0,1-2.8-.53,5.14,5.14,0,0,1-2.17-1.68A1.15,1.15,0,0,1,645.05,540.28Z" transform="translate(-208.54 -176)"/><path d="M657.45,528.37a1,1,0,0,1-.3-.81v-.38a1,1,0,0,1,.32-.82,1.69,1.69,0,0,1,1-.24,1.48,1.48,0,0,1,1,.26,1,1,0,0,1,.3.8v.38a1,1,0,0,1-.31.82,1.64,1.64,0,0,1-1,.24A1.53,1.53,0,0,1,657.45,528.37Zm1.82,14.19a1.07,1.07,0,0,1-.83.34,1.05,1.05,0,0,1-.8-.34,1.09,1.09,0,0,1-.32-.81v-10.4a1.11,1.11,0,0,1,.32-.81,1.05,1.05,0,0,1,.8-.34,1.07,1.07,0,0,1,.83.34,1.12,1.12,0,0,1,.33.81v10.4A1.1,1.1,0,0,1,659.27,542.56Z" transform="translate(-208.54 -176)"/><path d="M673.61,535.22v6.53a1.13,1.13,0,0,1-.32.81,1.09,1.09,0,0,1-.83.34,1,1,0,0,1-.8-.34,1.1,1.1,0,0,1-.33-.81v-6.51a3.54,3.54,0,0,0-.65-2.25,2.49,2.49,0,0,0-2.11-.84,3.61,3.61,0,0,0-1.74.42,3.15,3.15,0,0,0-1.22,1.12,2.86,2.86,0,0,0-.45,1.55v6.51A1.13,1.13,0,0,1,664,542.9a1.06,1.06,0,0,1-.81-.33,1.12,1.12,0,0,1-.32-.82V531.47a1.1,1.1,0,0,1,.33-.81,1,1,0,0,1,.8-.34,1.13,1.13,0,0,1,1.15,1.15v.84a5.23,5.23,0,0,1,1.74-1.62,4.62,4.62,0,0,1,2.39-.65C672.17,530,673.61,531.76,673.61,535.22Z" transform="translate(-208.54 -176)"/><path d="M688.36,530.48a1.12,1.12,0,0,1,.32.85v10.56a6,6,0,0,1-.82,3.25,5,5,0,0,1-2.25,1.93,7.76,7.76,0,0,1-3.19.63,8.72,8.72,0,0,1-2.24-.34,4,4,0,0,1-1.65-.69c-.49-.26-.74-.58-.74-1a1.17,1.17,0,0,1,.09-.39.92.92,0,0,1,.89-.6,1.74,1.74,0,0,1,.67.15,9.14,9.14,0,0,0,3,.74,4.26,4.26,0,0,0,2.94-.92,3.26,3.26,0,0,0,1-2.54v-1.29a4.19,4.19,0,0,1-1.69,1.61,5.1,5.1,0,0,1-2.51.67,5.66,5.66,0,0,1-3-.84A5.86,5.86,0,0,1,677,540a7.69,7.69,0,0,1,0-6.75,5.75,5.75,0,0,1,2.14-2.33,5.47,5.47,0,0,1,3-.84,5.19,5.19,0,0,1,2.46.59,5.26,5.26,0,0,1,1.78,1.47v-.77a1.17,1.17,0,0,1,.32-.84,1.06,1.06,0,0,1,.81-.34A1.12,1.12,0,0,1,688.36,530.48Zm-3.8,10a3.83,3.83,0,0,0,1.42-1.58,5,5,0,0,0,.52-2.29,4.85,4.85,0,0,0-.52-2.28,4,4,0,0,0-1.42-1.59,3.88,3.88,0,0,0-2.09-.57,3.83,3.83,0,0,0-2.07.57,4,4,0,0,0-1.42,1.6,5.19,5.19,0,0,0,0,4.53,3.88,3.88,0,0,0,1.42,1.6,4,4,0,0,0,4.16,0Z" transform="translate(-208.54 -176)"/><path d="M709.74,530.48a1.13,1.13,0,0,1,.33.85v10.42a1.1,1.1,0,0,1-.33.81,1.06,1.06,0,0,1-.82.34,1.08,1.08,0,0,1-.82-.33,1.12,1.12,0,0,1-.31-.82v-.63a5.18,5.18,0,0,1-1.71,1.43,4.79,4.79,0,0,1-2.32.59,5.46,5.46,0,0,1-3-.84A5.8,5.8,0,0,1,698.7,540a8,8,0,0,1,0-6.75,5.75,5.75,0,0,1,2.08-2.33,5.22,5.22,0,0,1,2.9-.84,5.41,5.41,0,0,1,2.37.52,4.79,4.79,0,0,1,1.74,1.35v-.58a1.16,1.16,0,0,1,.31-.84,1.17,1.17,0,0,1,1.64,0Zm-3.72,10a3.84,3.84,0,0,0,1.37-1.58,5.15,5.15,0,0,0,.49-2.28,5,5,0,0,0-.49-2.26,4,4,0,0,0-1.37-1.6,3.5,3.5,0,0,0-2-.58,3.57,3.57,0,0,0-2,.57,3.87,3.87,0,0,0-1.37,1.59,5.09,5.09,0,0,0-.49,2.28,5.15,5.15,0,0,0,.49,2.28,3.84,3.84,0,0,0,1.37,1.58,3.74,3.74,0,0,0,4,0Z" transform="translate(-208.54 -176)"/><path d="M724.18,535.22v6.53a1.13,1.13,0,0,1-.32.81,1.1,1.1,0,0,1-.83.34,1.07,1.07,0,0,1-.81-.34,1.13,1.13,0,0,1-.32-.81v-6.51a3.6,3.6,0,0,0-.65-2.25,2.49,2.49,0,0,0-2.11-.84,3.61,3.61,0,0,0-1.74.42,3.15,3.15,0,0,0-1.22,1.12,2.86,2.86,0,0,0-.45,1.55v6.51a1.13,1.13,0,0,1-.32.81,1.18,1.18,0,0,1-1.65,0,1.16,1.16,0,0,1-.31-.82V531.47a1.1,1.1,0,0,1,.33-.81,1,1,0,0,1,.8-.34,1.09,1.09,0,0,1,.83.34,1.13,1.13,0,0,1,.32.81v.84a5.23,5.23,0,0,1,1.74-1.62,4.62,4.62,0,0,1,2.39-.65C722.74,530,724.18,531.76,724.18,535.22Z" transform="translate(-208.54 -176)"/><path d="M738.62,525.46a1.16,1.16,0,0,1,.32.83v15.46a1.13,1.13,0,0,1-.32.81,1.1,1.1,0,0,1-.83.34,1.08,1.08,0,0,1-.82-.33,1.12,1.12,0,0,1-.31-.82v-.68a5.05,5.05,0,0,1-4,2.07,5.37,5.37,0,0,1-3-.84,5.87,5.87,0,0,1-2.09-2.34,7.83,7.83,0,0,1,0-6.75,5.66,5.66,0,0,1,2.07-2.33,5.23,5.23,0,0,1,2.91-.84,5.32,5.32,0,0,1,2.35.52,5,5,0,0,1,1.75,1.37v-5.64a1.16,1.16,0,0,1,.31-.83,1.11,1.11,0,0,1,.82-.32A1.16,1.16,0,0,1,738.62,525.46Zm-3.72,15a3.82,3.82,0,0,0,1.36-1.58,5.43,5.43,0,0,0,0-4.55,3.88,3.88,0,0,0-1.36-1.6,3.63,3.63,0,0,0-2-.57,3.57,3.57,0,0,0-2,.57,3.9,3.9,0,0,0-1.37,1.6,5.53,5.53,0,0,0,0,4.55,3.84,3.84,0,0,0,1.37,1.58,3.58,3.58,0,0,0,2,.58A3.64,3.64,0,0,0,734.9,540.45Z" transform="translate(-208.54 -176)"/><path d="M545.61,555.2a1,1,0,0,1,.33.8,1,1,0,0,1-.33.79,1.14,1.14,0,0,1-.82.29h-4.27v13.47a1.08,1.08,0,0,1-.35.81,1.21,1.21,0,0,1-.88.34,1.18,1.18,0,0,1-.87-.34,1,1,0,0,1-.35-.81V557.08h-4.25a1.18,1.18,0,0,1-.83-.3,1,1,0,0,1-.32-.8,1,1,0,0,1,.32-.78,1.18,1.18,0,0,1,.83-.3h11A1.15,1.15,0,0,1,545.61,555.2Z" transform="translate(-208.54 -176)"/><path d="M557,559.28a1.16,1.16,0,0,1,.32.85v10.42a1.13,1.13,0,0,1-.32.81,1.18,1.18,0,0,1-1.65,0,1.16,1.16,0,0,1-.31-.82v-.63a5,5,0,0,1-1.7,1.43,4.83,4.83,0,0,1-2.33.59,5.41,5.41,0,0,1-3-.84,5.73,5.73,0,0,1-2.09-2.34,7.87,7.87,0,0,1,0-6.75,5.75,5.75,0,0,1,2.07-2.34,5.31,5.31,0,0,1,2.91-.84,5.37,5.37,0,0,1,2.36.53,4.79,4.79,0,0,1,1.74,1.35v-.58a1.21,1.21,0,0,1,.31-.84,1.08,1.08,0,0,1,.82-.34A1.12,1.12,0,0,1,557,559.28Zm-3.72,10a3.92,3.92,0,0,0,1.37-1.58,5.29,5.29,0,0,0,.49-2.28,5.17,5.17,0,0,0-.49-2.26,4.11,4.11,0,0,0-1.37-1.6,3.54,3.54,0,0,0-2-.58,3.57,3.57,0,0,0-2,.57,4,4,0,0,0-1.37,1.59,5.09,5.09,0,0,0-.49,2.28,5.15,5.15,0,0,0,.49,2.28,3.92,3.92,0,0,0,1.37,1.58,3.76,3.76,0,0,0,4,0Z" transform="translate(-208.54 -176)"/><path d="M570.15,570.59a1.22,1.22,0,0,1-1.15,1.18,1.13,1.13,0,0,1-.93-.5l-3.22-4.06-3.17,4.06a1.1,1.1,0,0,1-.91.48,1.16,1.16,0,0,1-.76-.3.91.91,0,0,1-.34-.71,1,1,0,0,1,.26-.72l3.6-4.49-3.7-4.66a1.06,1.06,0,0,1-.24-.67,1.08,1.08,0,0,1,.35-.81,1.14,1.14,0,0,1,1.74.14l3.29,4.15,3.1-4.13a1.1,1.1,0,0,1,1.68-.2,1,1,0,0,1,.31.71,1,1,0,0,1-.27.74l-3.55,4.49,3.65,4.63A.94.94,0,0,1,570.15,570.59Z" transform="translate(-208.54 -176)"/><path d="M583.35,568.77a6.1,6.1,0,0,1-2.29,2.33,6.53,6.53,0,0,1-6.41,0,6.17,6.17,0,0,1-2.29-2.33,6.7,6.7,0,0,1-.84-3.36,6.81,6.81,0,0,1,.84-3.38,6.12,6.12,0,0,1,2.29-2.36,6.53,6.53,0,0,1,6.41,0,6,6,0,0,1,2.29,2.36,6.81,6.81,0,0,1,.84,3.38A6.7,6.7,0,0,1,583.35,568.77Zm-2-5.68a4,4,0,0,0-1.47-1.58,4,4,0,0,0-4.1,0,4,4,0,0,0-1.47,1.58,4.9,4.9,0,0,0-.54,2.32,4.74,4.74,0,0,0,.54,2.28,4,4,0,0,0,1.47,1.57,4,4,0,0,0,4.1,0,4,4,0,0,0,1.47-1.57,4.86,4.86,0,0,0,.54-2.28A5,5,0,0,0,581.38,563.09Z" transform="translate(-208.54 -176)"/><path d="M597.56,564v6.53a1.13,1.13,0,0,1-1.15,1.15,1,1,0,0,1-.8-.34,1.1,1.1,0,0,1-.33-.81V564a3.54,3.54,0,0,0-.65-2.25,2.49,2.49,0,0,0-2.11-.84,3.61,3.61,0,0,0-1.74.42,3.15,3.15,0,0,0-1.22,1.12,2.86,2.86,0,0,0-.45,1.55v6.51A1.13,1.13,0,0,1,588,571.7a1.06,1.06,0,0,1-.81-.33,1.12,1.12,0,0,1-.32-.82V560.27a1.12,1.12,0,0,1,.33-.81,1.05,1.05,0,0,1,.8-.34,1.09,1.09,0,0,1,.83.34,1.11,1.11,0,0,1,.32.81v.84a5.23,5.23,0,0,1,1.74-1.62,4.63,4.63,0,0,1,2.39-.66Q597.56,558.83,597.56,564Z" transform="translate(-208.54 -176)"/><path d="M612,568.77a6.1,6.1,0,0,1-2.29,2.33,6.53,6.53,0,0,1-6.41,0,6.17,6.17,0,0,1-2.29-2.33,6.7,6.7,0,0,1-.84-3.36A6.81,6.81,0,0,1,601,562a6.12,6.12,0,0,1,2.29-2.36,6.53,6.53,0,0,1,6.41,0A6,6,0,0,1,612,562a6.81,6.81,0,0,1,.84,3.38A6.7,6.7,0,0,1,612,568.77Zm-2-5.68a4,4,0,0,0-1.46-1.58,4,4,0,0,0-4.1,0,4,4,0,0,0-1.47,1.58,4.9,4.9,0,0,0-.54,2.32,4.74,4.74,0,0,0,.54,2.28,4,4,0,0,0,1.47,1.57,4,4,0,0,0,4.1,0,4,4,0,0,0,1.46-1.57,4.74,4.74,0,0,0,.54-2.28A4.9,4.9,0,0,0,610.05,563.09Z" transform="translate(-208.54 -176)"/><path d="M634.14,564.14v6.41a1.16,1.16,0,0,1-.31.82,1.18,1.18,0,0,1-1.65,0,1.13,1.13,0,0,1-.32-.81v-6.39c0-2.09-.88-3.14-2.64-3.14a3.39,3.39,0,0,0-1.69.42,3,3,0,0,0-1.18,1.14,3.09,3.09,0,0,0-.42,1.58v6.39a1.13,1.13,0,0,1-.32.81,1.1,1.1,0,0,1-.83.34,1.08,1.08,0,0,1-.82-.33,1.12,1.12,0,0,1-.31-.82v-6.41a3.86,3.86,0,0,0-.6-2.27,2.25,2.25,0,0,0-2-.85,3.2,3.2,0,0,0-2.34.9,3,3,0,0,0-.93,2.22v6.41a1.13,1.13,0,0,1-1.15,1.15,1.06,1.06,0,0,1-.81-.33,1.12,1.12,0,0,1-.32-.82V560.27a1.12,1.12,0,0,1,.33-.81,1,1,0,0,1,.8-.34,1.09,1.09,0,0,1,.83.34,1.11,1.11,0,0,1,.32.81v.84a5.47,5.47,0,0,1,1.67-1.57,4.32,4.32,0,0,1,2.27-.63,3.68,3.68,0,0,1,3.86,2.64,5.15,5.15,0,0,1,1.76-1.83,4.6,4.6,0,0,1,2.59-.81Q634.14,558.91,634.14,564.14Z" transform="translate(-208.54 -176)"/><path d="M647.62,559.34a1.13,1.13,0,0,1,.32.81v10.37a5.71,5.71,0,0,1-1.66,4.49,6.28,6.28,0,0,1-4.36,1.49,9.37,9.37,0,0,1-1.76-.17,5,5,0,0,1-1.41-.46c-.6-.27-.89-.64-.89-1.1a1.5,1.5,0,0,1,0-.31,1.43,1.43,0,0,1,.4-.63,1,1,0,0,1,.61-.21.84.84,0,0,1,.35.07c.5.22.94.4,1.33.53a4.17,4.17,0,0,0,1.34.19q3.72,0,3.72-3.82v-.48a4.34,4.34,0,0,1-1.67,1.35,5.44,5.44,0,0,1-2.34.48,4,4,0,0,1-3.11-1.27,4.9,4.9,0,0,1-1.11-3.34v-7.18a1.12,1.12,0,0,1,.31-.82,1.08,1.08,0,0,1,.82-.33,1.06,1.06,0,0,1,.82.34,1.1,1.1,0,0,1,.33.81v6.58a3.37,3.37,0,0,0,.69,2.34,2.77,2.77,0,0,0,2.12.76,3.08,3.08,0,0,0,2.25-.87,3,3,0,0,0,.89-2.23v-6.58a1.12,1.12,0,0,1,.31-.82,1.08,1.08,0,0,1,.82-.33A1.1,1.1,0,0,1,647.62,559.34Z" transform="translate(-208.54 -176)"/><path d="M671.24,570.67a1,1,0,0,1-.32.79,1.06,1.06,0,0,1-.76.31,1,1,0,0,1-.61-.2,1.5,1.5,0,0,1-.44-.57l-1.49-3.53H660.2L658.74,571a1,1,0,0,1-.4.55,1,1,0,0,1-.61.19,1.09,1.09,0,0,1-.77-.26,1,1,0,0,1-.26-.72,2,2,0,0,1,0-.39l6.12-14.83a1.31,1.31,0,0,1,.46-.59,1,1,0,0,1,.69-.15,1.13,1.13,0,0,1,.65.19,1.1,1.1,0,0,1,.41.55l6.09,14.64A1.39,1.39,0,0,1,671.24,570.67Zm-10.12-5.38h5.59l-2.81-6.72Z" transform="translate(-208.54 -176)"/><path d="M672.44,569.08a1,1,0,0,1,.51-.81.88.88,0,0,1,.55-.17,1.09,1.09,0,0,1,.79.36,5.12,5.12,0,0,0,1.55,1.22,4.32,4.32,0,0,0,2,.41,3.5,3.5,0,0,0,1.61-.42,1.36,1.36,0,0,0,.69-1.28,1.37,1.37,0,0,0-.7-1.25,8.17,8.17,0,0,0-2.08-.79,15.45,15.45,0,0,1-2.23-.76,4,4,0,0,1-1.5-1.15,3.39,3.39,0,0,1,0-3.88,4.07,4.07,0,0,1,1.63-1.27,5.44,5.44,0,0,1,2.22-.46,6.38,6.38,0,0,1,2.29.44,4.18,4.18,0,0,1,1.86,1.32.95.95,0,0,1-.09,1.44.9.9,0,0,1-.6.21.89.89,0,0,1-.7-.29,3.34,3.34,0,0,0-1.24-.88,4,4,0,0,0-1.62-.32,3,3,0,0,0-1.54.38,1.33,1.33,0,0,0-.64,1.26,1.37,1.37,0,0,0,.73,1.24,9.13,9.13,0,0,0,2.17.8,12.67,12.67,0,0,1,2.12.72,3.53,3.53,0,0,1,1.41,1.14,3.13,3.13,0,0,1,.58,2,3.08,3.08,0,0,1-.65,2,4.16,4.16,0,0,1-1.69,1.27,5.58,5.58,0,0,1-2.22.45,7.35,7.35,0,0,1-2.8-.53,5.2,5.2,0,0,1-2.17-1.68A1.23,1.23,0,0,1,672.44,569.08Z" transform="translate(-208.54 -176)"/><path d="M683.89,569.08a1,1,0,0,1,.5-.81.91.91,0,0,1,.56-.17,1.11,1.11,0,0,1,.79.36,5,5,0,0,0,1.55,1.22,4.32,4.32,0,0,0,2,.41,3.5,3.5,0,0,0,1.61-.42,1.36,1.36,0,0,0,.69-1.28,1.38,1.38,0,0,0-.71-1.25,7.93,7.93,0,0,0-2.07-.79,16.07,16.07,0,0,1-2.24-.76,4,4,0,0,1-1.5-1.15,3.39,3.39,0,0,1,0-3.88,4.1,4.1,0,0,1,1.64-1.27,5.44,5.44,0,0,1,2.22-.46,6.42,6.42,0,0,1,2.29.44,4.18,4.18,0,0,1,1.86,1.32,1.05,1.05,0,0,1,.29.69,1,1,0,0,1-.39.75.88.88,0,0,1-.6.21.86.86,0,0,1-.69-.29,3.34,3.34,0,0,0-1.24-.88,4.07,4.07,0,0,0-1.62-.32,3,3,0,0,0-1.55.38,1.34,1.34,0,0,0-.63,1.26,1.37,1.37,0,0,0,.73,1.24,9,9,0,0,0,2.17.8,12.53,12.53,0,0,1,2.11.72,3.63,3.63,0,0,1,1.42,1.14,3.19,3.19,0,0,1,.57,2,3.07,3.07,0,0,1-.64,2,4.19,4.19,0,0,1-1.7,1.27,5.49,5.49,0,0,1-2.21.45,7.31,7.31,0,0,1-2.8-.53,5.14,5.14,0,0,1-2.17-1.68A1.15,1.15,0,0,1,683.89,569.08Z" transform="translate(-208.54 -176)"/><path d="M696.29,557.17a1,1,0,0,1-.3-.81V556a.94.94,0,0,1,.32-.82,1.69,1.69,0,0,1,1-.24,1.57,1.57,0,0,1,1,.25,1,1,0,0,1,.3.81v.38a1,1,0,0,1-.31.82,1.64,1.64,0,0,1-1,.24A1.59,1.59,0,0,1,696.29,557.17Zm1.82,14.19a1.09,1.09,0,0,1-.83.34,1.05,1.05,0,0,1-.8-.34,1.1,1.1,0,0,1-.33-.81v-10.4a1.1,1.1,0,0,1,.33-.81,1.05,1.05,0,0,1,.8-.34,1.13,1.13,0,0,1,1.15,1.15v10.4A1.09,1.09,0,0,1,698.11,571.36Z" transform="translate(-208.54 -176)"/><path d="M713.06,559.28a1.13,1.13,0,0,1,.33.85v10.56a6,6,0,0,1-.83,3.25,4.92,4.92,0,0,1-2.25,1.93,7.73,7.73,0,0,1-3.19.63,8.72,8.72,0,0,1-2.24-.34,4,4,0,0,1-1.65-.69c-.49-.26-.74-.58-.74-1a1,1,0,0,1,.1-.39.9.9,0,0,1,.88-.6,1.78,1.78,0,0,1,.68.15,9.14,9.14,0,0,0,3,.74,4.26,4.26,0,0,0,2.94-.92,3.26,3.26,0,0,0,1-2.54v-1.29a4.22,4.22,0,0,1-1.7,1.61,5.06,5.06,0,0,1-2.5.67,5.67,5.67,0,0,1-3-.84,5.86,5.86,0,0,1-2.15-2.34,7.78,7.78,0,0,1,0-6.75,5.91,5.91,0,0,1,2.14-2.34,5.56,5.56,0,0,1,3-.84,5.45,5.45,0,0,1,4.25,2.07v-.77a1.16,1.16,0,0,1,.31-.84,1.08,1.08,0,0,1,.81-.34A1.1,1.1,0,0,1,713.06,559.28Zm-3.8,10a3.85,3.85,0,0,0,1.43-1.58,5.07,5.07,0,0,0,.51-2.29,5,5,0,0,0-.51-2.28,4,4,0,0,0-1.43-1.59,3.88,3.88,0,0,0-2.09-.57,3.78,3.78,0,0,0-2.06.57,4,4,0,0,0-1.43,1.6,5.19,5.19,0,0,0,0,4.53,3.9,3.9,0,0,0,1.43,1.6,3.78,3.78,0,0,0,2.06.58A3.88,3.88,0,0,0,709.26,569.26Z" transform="translate(-208.54 -176)"/><path d="M727.5,564v6.53a1.1,1.1,0,0,1-.33.81,1.15,1.15,0,0,1-1.63,0,1.13,1.13,0,0,1-.32-.81V564a3.6,3.6,0,0,0-.65-2.25,2.5,2.5,0,0,0-2.11-.84,3.61,3.61,0,0,0-1.74.42,3.25,3.25,0,0,0-1.23,1.12,2.93,2.93,0,0,0-.44,1.55v6.51a1.13,1.13,0,0,1-.32.81,1.1,1.1,0,0,1-.83.34,1.08,1.08,0,0,1-.82-.33,1.16,1.16,0,0,1-.31-.82V560.27a1.15,1.15,0,0,1,.32-.81,1.07,1.07,0,0,1,.81-.34,1.1,1.1,0,0,1,.83.34,1.15,1.15,0,0,1,.32.81v.84a5.23,5.23,0,0,1,1.74-1.62,4.6,4.6,0,0,1,2.39-.66Q727.5,558.83,727.5,564Z" transform="translate(-208.54 -176)"/><path d="M749.53,564.14v6.41a1.12,1.12,0,0,1-.31.82,1.08,1.08,0,0,1-.82.33,1.1,1.1,0,0,1-.83-.34,1.13,1.13,0,0,1-.32-.81v-6.39c0-2.09-.88-3.14-2.64-3.14a3.42,3.42,0,0,0-1.69.42,3,3,0,0,0-1.18,1.14,3.09,3.09,0,0,0-.42,1.58v6.39a1.13,1.13,0,0,1-.32.81,1.18,1.18,0,0,1-1.65,0,1.16,1.16,0,0,1-.31-.82v-6.41a3.86,3.86,0,0,0-.6-2.27,2.25,2.25,0,0,0-2-.85,3.23,3.23,0,0,0-2.34.9,3,3,0,0,0-.92,2.22v6.41a1.1,1.1,0,0,1-.33.81,1.17,1.17,0,0,1-1.64,0,1.12,1.12,0,0,1-.31-.82V560.27a1.11,1.11,0,0,1,.32-.81,1.05,1.05,0,0,1,.8-.34,1.07,1.07,0,0,1,.83.34,1.12,1.12,0,0,1,.33.81v.84a5.33,5.33,0,0,1,1.66-1.57,4.34,4.34,0,0,1,2.27-.63,3.69,3.69,0,0,1,3.87,2.64,5,5,0,0,1,1.75-1.83,4.6,4.6,0,0,1,2.59-.81Q749.53,558.91,749.53,564.14Z" transform="translate(-208.54 -176)"/><path d="M763.62,565.66a1.16,1.16,0,0,1-.79.3h-8.45a4.14,4.14,0,0,0,1.33,2.81,4.1,4.1,0,0,0,2.84,1.06,4.55,4.55,0,0,0,1.88-.34,4.66,4.66,0,0,0,1.27-.86,1.3,1.3,0,0,1,.69-.22,1,1,0,0,1,1,1,1.17,1.17,0,0,1-.48.91,5.56,5.56,0,0,1-1.84,1.18,6.11,6.11,0,0,1-2.36.48,6.92,6.92,0,0,1-3.42-.82,5.69,5.69,0,0,1-2.28-2.28,6.81,6.81,0,0,1-.8-3.31A7.35,7.35,0,0,1,753,562a6,6,0,0,1,2.18-2.34,5.6,5.6,0,0,1,5.8,0,6,6,0,0,1,2.16,2.18,6.32,6.32,0,0,1,.84,3.12A1,1,0,0,1,763.62,565.66Zm-7.85-4a3.75,3.75,0,0,0-1.3,2.34h7.08v-.19a2.94,2.94,0,0,0-1.14-2.09,3.62,3.62,0,0,0-2.31-.81A3.74,3.74,0,0,0,755.77,561.7Z" transform="translate(-208.54 -176)"/><path d="M777.35,564v6.53a1.1,1.1,0,0,1-.33.81,1.07,1.07,0,0,1-.83.34,1.05,1.05,0,0,1-.8-.34,1.09,1.09,0,0,1-.32-.81V564a3.6,3.6,0,0,0-.65-2.25,2.5,2.5,0,0,0-2.11-.84,3.61,3.61,0,0,0-1.74.42,3.18,3.18,0,0,0-1.23,1.12,2.85,2.85,0,0,0-.44,1.55v6.51a1.1,1.1,0,0,1-.33.81,1.06,1.06,0,0,1-.82.34,1.08,1.08,0,0,1-.82-.33,1.12,1.12,0,0,1-.31-.82V560.27a1.15,1.15,0,0,1,.32-.81,1.15,1.15,0,0,1,1.63,0,1.12,1.12,0,0,1,.33.81v.84a5,5,0,0,1,1.74-1.62,4.6,4.6,0,0,1,2.39-.66Q777.35,558.83,777.35,564Z" transform="translate(-208.54 -176)"/><path d="M784.16,561.35v7.16q0,1.2,1.08,1.2a1.66,1.66,0,0,0,.46-.09,1.94,1.94,0,0,1,.45-.08.67.67,0,0,1,.53.26,1,1,0,0,1,.22.67,1,1,0,0,1-.58.87,2.36,2.36,0,0,1-1.29.36,6,6,0,0,1-1.46-.17,2.14,2.14,0,0,1-1.17-.85,3.41,3.41,0,0,1-.52-2.08v-7.25h-1.39a1,1,0,0,1-.76-.3,1,1,0,0,1-.3-.75,1,1,0,0,1,.3-.75,1.07,1.07,0,0,1,.76-.28h1.39v-2a1.14,1.14,0,0,1,.33-.82,1.17,1.17,0,0,1,1.63,0,1.17,1.17,0,0,1,.32.82v2h2a1,1,0,0,1,1.06,1.05,1,1,0,0,1-.3.75,1.05,1.05,0,0,1-.76.28Z" transform="translate(-208.54 -176)"/><path d="M719.15,262.09a6.92,6.92,0,0,1,2.42,3,11.42,11.42,0,0,1,0,8.5,6.84,6.84,0,0,1-2.42,3,6.56,6.56,0,0,1-3.86,1.12h-5.91a1.16,1.16,0,0,1-1.15-1.15v-14.5a1.16,1.16,0,0,1,1.15-1.15h5.91A6.56,6.56,0,0,1,719.15,262.09Zm-.43,11.72a8.68,8.68,0,0,0,0-8.89,4.2,4.2,0,0,0-3.66-1.75h-4.44v12.38h4.44A4.2,4.2,0,0,0,718.72,273.81Z" transform="translate(-208.54 -176)"/><path d="M736.18,265.34a1.18,1.18,0,0,1,.32.85v10.42a1.13,1.13,0,0,1-.32.81,1.09,1.09,0,0,1-.83.34,1.11,1.11,0,0,1-.82-.32,1.2,1.2,0,0,1-.31-.83V276a5,5,0,0,1-1.7,1.43,4.83,4.83,0,0,1-2.33.59,5.41,5.41,0,0,1-3-.84,5.73,5.73,0,0,1-2.09-2.34,7.85,7.85,0,0,1,0-6.74,5.75,5.75,0,0,1,2.07-2.34,5.53,5.53,0,0,1,5.27-.32,4.89,4.89,0,0,1,1.74,1.35v-.58a1.24,1.24,0,0,1,.31-.84,1.08,1.08,0,0,1,.82-.33A1.11,1.11,0,0,1,736.18,265.34Zm-3.72,10a3.92,3.92,0,0,0,1.37-1.58,5.5,5.5,0,0,0,0-4.54,4,4,0,0,0-1.37-1.59,3.47,3.47,0,0,0-2-.59,3.57,3.57,0,0,0-2,.57,4,4,0,0,0-1.37,1.59,5.55,5.55,0,0,0,0,4.56,3.92,3.92,0,0,0,1.37,1.58,3.76,3.76,0,0,0,4,0Z" transform="translate(-208.54 -176)"/><path d="M743.29,267.42v7.15q0,1.2,1.08,1.2a1.59,1.59,0,0,0,.46-.09,1.93,1.93,0,0,1,.46-.08.66.66,0,0,1,.52.26,1,1,0,0,1-.36,1.54,2.36,2.36,0,0,1-1.29.36,6,6,0,0,1-1.45-.17,2.12,2.12,0,0,1-1.18-.85,3.48,3.48,0,0,1-.52-2.08v-7.24h-1.39a1,1,0,0,1-.75-.3,1,1,0,0,1-.3-.76,1,1,0,0,1,.3-.74,1,1,0,0,1,.75-.29H741v-2a1.1,1.1,0,0,1,.33-.81,1.07,1.07,0,0,1,.83-.34,1.05,1.05,0,0,1,.8.34,1.09,1.09,0,0,1,.32.81v2h2a1,1,0,0,1,1.05,1.05,1,1,0,0,1-.3.75,1.05,1.05,0,0,1-.75.29Z" transform="translate(-208.54 -176)"/><path d="M760,265.34a1.15,1.15,0,0,1,.33.85v10.42a1.1,1.1,0,0,1-.33.81,1.06,1.06,0,0,1-.82.34,1.11,1.11,0,0,1-.82-.32,1.16,1.16,0,0,1-.31-.83V276a5.18,5.18,0,0,1-1.71,1.43A4.8,4.8,0,0,1,754,278a5.45,5.45,0,0,1-3-.84,5.8,5.8,0,0,1-2.09-2.34,7.95,7.95,0,0,1,0-6.74,5.85,5.85,0,0,1,2.08-2.34,5.3,5.3,0,0,1,2.9-.84,5.41,5.41,0,0,1,2.37.52,5,5,0,0,1,1.74,1.35v-.58a1.2,1.2,0,0,1,.31-.84,1.2,1.2,0,0,1,1.64,0Zm-3.72,10a3.84,3.84,0,0,0,1.37-1.58,5.5,5.5,0,0,0,0-4.54,3.94,3.94,0,0,0-1.37-1.59,3.44,3.44,0,0,0-2-.59,3.63,3.63,0,0,0-2,.57,4,4,0,0,0-1.36,1.59,5.55,5.55,0,0,0,0,4.56,3.9,3.9,0,0,0,1.36,1.58,3.56,3.56,0,0,0,2,.58A3.5,3.5,0,0,0,756.31,275.31Z" transform="translate(-208.54 -176)"/><path d="M783.72,261.25a1,1,0,0,1,.35.77,1.34,1.34,0,0,1-.12.52L777.83,277a1.25,1.25,0,0,1-1.13.74,1.3,1.3,0,0,1-.59-.2,1.33,1.33,0,0,1-.44-.52l-6.12-14.5a1,1,0,0,1-.1-.5,1,1,0,0,1,.36-.82,1.24,1.24,0,0,1,.8-.31,1.11,1.11,0,0,1,1,.77L776.89,274l5-12.38a1.36,1.36,0,0,1,.44-.53,1,1,0,0,1,.61-.19A1.19,1.19,0,0,1,783.72,261.25Z" transform="translate(-208.54 -176)"/><path d="M786.53,263.23a1,1,0,0,1-.3-.81V262a1,1,0,0,1,.32-.82,1.69,1.69,0,0,1,1-.24,1.48,1.48,0,0,1,1,.26,1,1,0,0,1,.3.8v.38a1,1,0,0,1-.31.82,1.63,1.63,0,0,1-1,.24A1.54,1.54,0,0,1,786.53,263.23Zm1.82,14.19a1.15,1.15,0,0,1-1.63,0,1.09,1.09,0,0,1-.32-.81V266.22a1.13,1.13,0,0,1,1.13-1.16,1.1,1.1,0,0,1,.82.34,1.12,1.12,0,0,1,.33.82v10.39A1.1,1.1,0,0,1,788.35,277.42Z" transform="translate(-208.54 -176)"/><path d="M791,275.14a1.09,1.09,0,0,1,1.05-1,1.11,1.11,0,0,1,.8.36,5.08,5.08,0,0,0,1.54,1.22,4.38,4.38,0,0,0,2,.41,3.24,3.24,0,0,0,1.61-.42,1.35,1.35,0,0,0,.7-1.28,1.38,1.38,0,0,0-.71-1.25,7.88,7.88,0,0,0-2.08-.79,15.09,15.09,0,0,1-2.23-.76,4,4,0,0,1-1.5-1.15,3.08,3.08,0,0,1-.61-2,3.15,3.15,0,0,1,.61-1.9,4.16,4.16,0,0,1,1.63-1.27,5.44,5.44,0,0,1,2.22-.45,6.41,6.41,0,0,1,2.3.43,4.34,4.34,0,0,1,1.86,1.32,1,1,0,0,1,.28.69,1,1,0,0,1-.38.75.88.88,0,0,1-.6.21.91.91,0,0,1-.7-.28,3.25,3.25,0,0,0-1.23-.89,4.07,4.07,0,0,0-1.62-.31,3,3,0,0,0-1.55.37,1.36,1.36,0,0,0-.64,1.26,1.41,1.41,0,0,0,.74,1.25,9.47,9.47,0,0,0,2.17.79,12.53,12.53,0,0,1,2.11.72,3.63,3.63,0,0,1,1.42,1.14,3.19,3.19,0,0,1,.57,2,3,3,0,0,1-.65,1.95,4.11,4.11,0,0,1-1.69,1.28,5.67,5.67,0,0,1-2.22.44,7.3,7.3,0,0,1-2.79-.53,5.23,5.23,0,0,1-2.18-1.68A1.22,1.22,0,0,1,791,275.14Z" transform="translate(-208.54 -176)"/><path d="M813.6,265.52a1.12,1.12,0,0,1,.32.82v6.38a4.8,4.8,0,0,1-5.28,5.26,5.19,5.19,0,0,1-3.86-1.38,5.29,5.29,0,0,1-1.37-3.88v-6.38a1.12,1.12,0,0,1,.33-.82,1.07,1.07,0,0,1,.8-.34,1.12,1.12,0,0,1,.83.34,1.16,1.16,0,0,1,.32.82v6.38c0,2.1,1,3.14,2.95,3.14a3,3,0,0,0,2.24-.79,3.26,3.26,0,0,0,.76-2.35v-6.38a1.12,1.12,0,0,1,.33-.82,1.07,1.07,0,0,1,.8-.34A1.12,1.12,0,0,1,813.6,265.52Z" transform="translate(-208.54 -176)"/><path d="M828.36,265.34a1.14,1.14,0,0,1,.32.85v10.42a1.16,1.16,0,0,1-2,.83,1.16,1.16,0,0,1-.32-.83V276a5,5,0,0,1-1.7,1.43,4.83,4.83,0,0,1-2.33.59,5.43,5.43,0,0,1-3-.84,5.73,5.73,0,0,1-2.09-2.34,7.85,7.85,0,0,1,0-6.74,5.78,5.78,0,0,1,2.08-2.34,5.28,5.28,0,0,1,2.9-.84,5.33,5.33,0,0,1,2.36.52,4.89,4.89,0,0,1,1.74,1.35v-.58a1.2,1.2,0,0,1,.32-.84,1.06,1.06,0,0,1,.81-.33A1.11,1.11,0,0,1,828.36,265.34Zm-3.72,10a3.92,3.92,0,0,0,1.37-1.58,5.5,5.5,0,0,0,0-4.54,4,4,0,0,0-1.37-1.59,3.44,3.44,0,0,0-2-.59,3.61,3.61,0,0,0-2,.57,4,4,0,0,0-1.37,1.59,5.55,5.55,0,0,0,0,4.56,3.92,3.92,0,0,0,1.37,1.58,3.76,3.76,0,0,0,4,0Z" transform="translate(-208.54 -176)"/><path d="M834.2,277.42a1.13,1.13,0,0,1-1.62,0,1.13,1.13,0,0,1-.32-.81V261.15a1.15,1.15,0,0,1,2-.81,1.13,1.13,0,0,1,.32.81v15.46A1.07,1.07,0,0,1,834.2,277.42Z" transform="translate(-208.54 -176)"/><path d="M838.15,263.23a1,1,0,0,1-.3-.81V262a1,1,0,0,1,.33-.82,1.64,1.64,0,0,1,1-.24,1.48,1.48,0,0,1,1,.26,1,1,0,0,1,.3.8v.38a1,1,0,0,1-.31.82,1.6,1.6,0,0,1-1,.24A1.54,1.54,0,0,1,838.15,263.23ZM840,277.42a1.1,1.1,0,0,1-.83.34,1.07,1.07,0,0,1-.81-.34,1.13,1.13,0,0,1-.32-.81V266.22a1.16,1.16,0,0,1,.32-.82,1.11,1.11,0,0,1,.81-.34,1.14,1.14,0,0,1,.83.34,1.16,1.16,0,0,1,.32.82v10.39A1.13,1.13,0,0,1,840,277.42Z" transform="translate(-208.54 -176)"/><path d="M842.65,275.14a1,1,0,0,1,.51-.81.92.92,0,0,1,.55-.17,1.09,1.09,0,0,1,.79.36,5.12,5.12,0,0,0,1.55,1.22,4.32,4.32,0,0,0,2,.41,3.23,3.23,0,0,0,1.6-.42,1.35,1.35,0,0,0,.7-1.28,1.36,1.36,0,0,0-.71-1.25,7.93,7.93,0,0,0-2.07-.79,14.32,14.32,0,0,1-2.23-.76,3.87,3.87,0,0,1-1.5-1.15,3,3,0,0,1-.62-2,3.09,3.09,0,0,1,.62-1.9,4.09,4.09,0,0,1,1.63-1.27,5.44,5.44,0,0,1,2.22-.45,6.36,6.36,0,0,1,2.29.43,4.34,4.34,0,0,1,1.86,1.32,1.05,1.05,0,0,1,.29.69,1,1,0,0,1-.39.75.88.88,0,0,1-.6.21.89.89,0,0,1-.69-.28,3.37,3.37,0,0,0-1.24-.89,4.07,4.07,0,0,0-1.62-.31,3,3,0,0,0-1.55.37,1.35,1.35,0,0,0-.63,1.26,1.4,1.4,0,0,0,.73,1.25,9.47,9.47,0,0,0,2.17.79,12.53,12.53,0,0,1,2.11.72,3.56,3.56,0,0,1,1.42,1.14,3.19,3.19,0,0,1,.58,2,3.08,3.08,0,0,1-.65,1.95,4.15,4.15,0,0,1-1.7,1.28,5.66,5.66,0,0,1-2.21.44,7.31,7.31,0,0,1-2.8-.53,5.14,5.14,0,0,1-2.17-1.68A1.15,1.15,0,0,1,842.65,275.14Z" transform="translate(-208.54 -176)"/><path d="M866.25,265.34a1.15,1.15,0,0,1,.33.85v10.42a1.1,1.1,0,0,1-.33.81,1.06,1.06,0,0,1-.82.34,1.11,1.11,0,0,1-.82-.32,1.16,1.16,0,0,1-.31-.83V276a5.18,5.18,0,0,1-1.71,1.43,4.76,4.76,0,0,1-2.32.59,5.46,5.46,0,0,1-3-.84,5.87,5.87,0,0,1-2.09-2.34,7.95,7.95,0,0,1,0-6.74,5.85,5.85,0,0,1,2.08-2.34,5.31,5.31,0,0,1,2.91-.84,5.39,5.39,0,0,1,2.36.52,4.89,4.89,0,0,1,1.74,1.35v-.58a1.2,1.2,0,0,1,.31-.84,1.2,1.2,0,0,1,1.64,0Zm-3.71,10a3.9,3.9,0,0,0,1.36-1.58,5.5,5.5,0,0,0,0-4.54,4,4,0,0,0-1.36-1.59,3.49,3.49,0,0,0-2-.59,3.57,3.57,0,0,0-2,.57,3.94,3.94,0,0,0-1.37,1.59,5.55,5.55,0,0,0,0,4.56,3.84,3.84,0,0,0,1.37,1.58,3.5,3.5,0,0,0,2,.58A3.56,3.56,0,0,0,862.54,275.31Z" transform="translate(-208.54 -176)"/><path d="M873.37,267.42v7.15q0,1.2,1.08,1.2a1.72,1.72,0,0,0,.46-.09,1.94,1.94,0,0,1,.45-.08.67.67,0,0,1,.53.26,1,1,0,0,1,.22.68,1,1,0,0,1-.58.86,2.4,2.4,0,0,1-1.3.36,6,6,0,0,1-1.45-.17,2.09,2.09,0,0,1-1.17-.85,3.41,3.41,0,0,1-.52-2.08v-7.24H869.7a1,1,0,0,1-.76-.3,1,1,0,0,1-.3-.76,1,1,0,0,1,.3-.74,1,1,0,0,1,.76-.29h1.39v-2a1.13,1.13,0,0,1,.32-.81,1.1,1.1,0,0,1,.83-.34,1.07,1.07,0,0,1,.81.34,1.13,1.13,0,0,1,.32.81v2h2a1,1,0,0,1,1.06,1.05,1,1,0,0,1-.3.75,1.06,1.06,0,0,1-.76.29Z" transform="translate(-208.54 -176)"/><path d="M879.09,263.23a1,1,0,0,1-.3-.81V262a1,1,0,0,1,.33-.82,1.66,1.66,0,0,1,1-.24,1.51,1.51,0,0,1,1,.26,1,1,0,0,1,.3.8v.38a1,1,0,0,1-.32.82,1.58,1.58,0,0,1-1,.24A1.56,1.56,0,0,1,879.09,263.23Zm1.83,14.19a1.09,1.09,0,0,1-.83.34,1,1,0,0,1-.8-.34,1.1,1.1,0,0,1-.33-.81V266.22a1.12,1.12,0,0,1,.33-.82,1.07,1.07,0,0,1,.8-.34,1.12,1.12,0,0,1,.83.34,1.16,1.16,0,0,1,.32.82v10.39A1.13,1.13,0,0,1,880.92,277.42Z" transform="translate(-208.54 -176)"/><path d="M895.59,274.83a6.1,6.1,0,0,1-2.29,2.33,6.53,6.53,0,0,1-6.41,0,6.17,6.17,0,0,1-2.29-2.33,6.7,6.7,0,0,1-.84-3.36,6.83,6.83,0,0,1,.84-3.38,6.09,6.09,0,0,1,2.29-2.35,6.53,6.53,0,0,1,6.41,0,6,6,0,0,1,2.29,2.35,6.83,6.83,0,0,1,.84,3.38A6.7,6.7,0,0,1,895.59,274.83Zm-2-5.67a4,4,0,0,0-1.46-1.59,4,4,0,0,0-4.1,0,4,4,0,0,0-1.47,1.59,4.86,4.86,0,0,0-.54,2.31,4.74,4.74,0,0,0,.54,2.28,4,4,0,0,0,1.47,1.57,4,4,0,0,0,4.1,0,4,4,0,0,0,1.46-1.57,4.74,4.74,0,0,0,.54-2.28A4.86,4.86,0,0,0,893.61,269.16Z" transform="translate(-208.54 -176)"/><path d="M909.8,270.08v6.53a1.13,1.13,0,0,1-.32.81,1.09,1.09,0,0,1-.83.34,1,1,0,0,1-.8-.34,1.1,1.1,0,0,1-.33-.81V270.1a3.54,3.54,0,0,0-.65-2.25,2.49,2.49,0,0,0-2.11-.84,3.61,3.61,0,0,0-1.74.42,3.1,3.1,0,0,0-1.22,1.13,2.8,2.8,0,0,0-.45,1.54v6.51a1.16,1.16,0,0,1-2,.83,1.16,1.16,0,0,1-.32-.83V266.34a1.12,1.12,0,0,1,.33-.82,1.07,1.07,0,0,1,.8-.34,1.13,1.13,0,0,1,1.15,1.16v.84a5.23,5.23,0,0,1,1.74-1.62,4.63,4.63,0,0,1,2.39-.66C908.36,264.9,909.8,266.62,909.8,270.08Z" transform="translate(-208.54 -176)"/><path d="M930.88,265.34a1.15,1.15,0,0,1,.33.85v10.42a1.1,1.1,0,0,1-.33.81,1.06,1.06,0,0,1-.82.34,1.11,1.11,0,0,1-.82-.32,1.16,1.16,0,0,1-.31-.83V276a5.08,5.08,0,0,1-1.71,1.43,4.76,4.76,0,0,1-2.32.59,5.46,5.46,0,0,1-3-.84,5.7,5.7,0,0,1-2.08-2.34,7.85,7.85,0,0,1,0-6.74,5.75,5.75,0,0,1,2.07-2.34,5.31,5.31,0,0,1,2.91-.84,5.39,5.39,0,0,1,2.36.52,4.89,4.89,0,0,1,1.74,1.35v-.58a1.2,1.2,0,0,1,.31-.84,1.2,1.2,0,0,1,1.64,0Zm-3.71,10a3.82,3.82,0,0,0,1.36-1.58,5.4,5.4,0,0,0,0-4.54,3.91,3.91,0,0,0-1.36-1.59,3.49,3.49,0,0,0-2-.59,3.57,3.57,0,0,0-2,.57,3.94,3.94,0,0,0-1.37,1.59,5.55,5.55,0,0,0,0,4.56,3.84,3.84,0,0,0,1.37,1.58,3.5,3.5,0,0,0,2,.58A3.56,3.56,0,0,0,927.17,275.31Z" transform="translate(-208.54 -176)"/><path d="M945.32,270.08v6.53a1.13,1.13,0,0,1-.32.81,1.09,1.09,0,0,1-.83.34,1,1,0,0,1-.8-.34,1.1,1.1,0,0,1-.33-.81V270.1a3.54,3.54,0,0,0-.65-2.25,2.49,2.49,0,0,0-2.11-.84,3.61,3.61,0,0,0-1.74.42,3.1,3.1,0,0,0-1.22,1.13,2.8,2.8,0,0,0-.45,1.54v6.51a1.13,1.13,0,0,1-1.15,1.15,1.07,1.07,0,0,1-.81-.32,1.16,1.16,0,0,1-.32-.83V266.34a1.12,1.12,0,0,1,.33-.82,1.07,1.07,0,0,1,.8-.34,1.13,1.13,0,0,1,1.15,1.16v.84a5.23,5.23,0,0,1,1.74-1.62,4.63,4.63,0,0,1,2.39-.66C943.88,264.9,945.32,266.62,945.32,270.08Z" transform="translate(-208.54 -176)"/><path d="M959.76,260.32a1.16,1.16,0,0,1,.32.83v15.46a1.13,1.13,0,0,1-.32.81,1.09,1.09,0,0,1-.83.34,1.11,1.11,0,0,1-.82-.32,1.16,1.16,0,0,1-.31-.83v-.67a4.88,4.88,0,0,1-1.69,1.46,4.8,4.8,0,0,1-2.34.6,5.37,5.37,0,0,1-2.95-.84,5.87,5.87,0,0,1-2.09-2.34,7.81,7.81,0,0,1,0-6.74,5.75,5.75,0,0,1,2.07-2.34,5.51,5.51,0,0,1,5.26-.32,5.14,5.14,0,0,1,1.75,1.37v-5.64a1.16,1.16,0,0,1,.31-.83,1.11,1.11,0,0,1,.82-.32A1.15,1.15,0,0,1,959.76,260.32Zm-3.72,15a3.82,3.82,0,0,0,1.36-1.58,5.43,5.43,0,0,0,0-4.55,3.88,3.88,0,0,0-1.36-1.6,3.81,3.81,0,0,0-4,0,4,4,0,0,0-1.37,1.6,5.53,5.53,0,0,0,0,4.55,3.92,3.92,0,0,0,1.37,1.58,3.76,3.76,0,0,0,4,0Z" transform="translate(-208.54 -176)"/><path d="M759,306.22a1.17,1.17,0,0,1-.84.34,1.12,1.12,0,0,1-.85-.34,1.17,1.17,0,0,1-.32-.84V290.91a1.1,1.1,0,0,1,.33-.81,1.16,1.16,0,0,1,.87-.34,1.15,1.15,0,0,1,.83.34,1.07,1.07,0,0,1,.34.81v14.47A1.09,1.09,0,0,1,759,306.22Z" transform="translate(-208.54 -176)"/><path d="M773.8,298.88v6.53a1.1,1.1,0,0,1-.33.81,1.07,1.07,0,0,1-.83.34,1.05,1.05,0,0,1-.8-.34,1.09,1.09,0,0,1-.32-.81V298.9a3.6,3.6,0,0,0-.65-2.25,2.5,2.5,0,0,0-2.11-.84,3.61,3.61,0,0,0-1.74.42,3.2,3.2,0,0,0-1.23,1.13,2.87,2.87,0,0,0-.44,1.54v6.51a1.13,1.13,0,0,1-.32.81,1.2,1.2,0,0,1-1.65,0,1.16,1.16,0,0,1-.31-.83V295.14a1.16,1.16,0,0,1,.32-.82,1.11,1.11,0,0,1,.81-.34,1.14,1.14,0,0,1,.83.34,1.16,1.16,0,0,1,.32.82V296a5,5,0,0,1,1.74-1.62,4.6,4.6,0,0,1,2.39-.66C772.36,293.7,773.8,295.42,773.8,298.88Z" transform="translate(-208.54 -176)"/><path d="M780.61,296.22v7.15q0,1.2,1.08,1.2a1.66,1.66,0,0,0,.46-.09,1.94,1.94,0,0,1,.45-.08.67.67,0,0,1,.53.26,1,1,0,0,1-.36,1.54,2.36,2.36,0,0,1-1.29.36,6,6,0,0,1-1.46-.17,2.09,2.09,0,0,1-1.17-.85,3.41,3.41,0,0,1-.52-2.08v-7.24h-1.39a1,1,0,0,1-1.06-1.06,1,1,0,0,1,.3-.74,1,1,0,0,1,.76-.29h1.39v-2a1.1,1.1,0,0,1,.33-.81,1.15,1.15,0,0,1,1.63,0,1.13,1.13,0,0,1,.32.81v2h2a1,1,0,0,1,1.06,1.05,1,1,0,0,1-.3.75,1.06,1.06,0,0,1-.76.29Z" transform="translate(-208.54 -176)"/><path d="M796.88,300.52a1.13,1.13,0,0,1-.79.3h-8.45a4.19,4.19,0,0,0,1.34,2.81,4,4,0,0,0,2.84,1.06,4.34,4.34,0,0,0,1.87-.34,4.51,4.51,0,0,0,1.27-.86,1.36,1.36,0,0,1,.7-.22.91.91,0,0,1,.68.29.92.92,0,0,1,.28.67,1.17,1.17,0,0,1-.48.91,5.51,5.51,0,0,1-1.85,1.18,6.06,6.06,0,0,1-2.35.48,6.87,6.87,0,0,1-3.42-.82,5.69,5.69,0,0,1-2.28-2.28,6.7,6.7,0,0,1-.8-3.31,7.34,7.34,0,0,1,.82-3.54,6.11,6.11,0,0,1,2.19-2.34,5.64,5.64,0,0,1,5.79,0,5.94,5.94,0,0,1,2.16,2.18,6.12,6.12,0,0,1,.84,3.12A1,1,0,0,1,796.88,300.52Zm-7.84-4a3.75,3.75,0,0,0-1.3,2.34h7.08v-.19a2.94,2.94,0,0,0-1.14-2.09,3.62,3.62,0,0,0-2.32-.81A3.71,3.71,0,0,0,789,296.56Z" transform="translate(-208.54 -176)"/><path d="M807.23,294a1,1,0,0,1,.45.8,1.19,1.19,0,0,1-.3.88,1,1,0,0,1-.73.3,2.53,2.53,0,0,1-.65-.14,2.17,2.17,0,0,0-2.24.34,3.8,3.8,0,0,0-1.15,1.42,4.42,4.42,0,0,0-.45,2v5.79a1.16,1.16,0,0,1-2,.83,1.16,1.16,0,0,1-.32-.83V295.14a1.12,1.12,0,0,1,.33-.82,1.07,1.07,0,0,1,.8-.34,1.13,1.13,0,0,1,1.15,1.16v1.22a4.61,4.61,0,0,1,1.59-1.91,4.17,4.17,0,0,1,2.4-.75A1.81,1.81,0,0,1,807.23,294Z" transform="translate(-208.54 -176)"/><path d="M819.06,294.6a5.76,5.76,0,0,1,2.08,2.31,7.88,7.88,0,0,1,0,6.71,5.92,5.92,0,0,1-2.08,2.32,5.3,5.3,0,0,1-2.9.84,5,5,0,0,1-2.33-.56,5.35,5.35,0,0,1-1.75-1.34v5.33a1.1,1.1,0,0,1-.33.81,1.07,1.07,0,0,1-.83.34,1.11,1.11,0,0,1-.8-.32,1.12,1.12,0,0,1-.32-.83v-15.1a1.2,1.2,0,0,1,.31-.84,1.07,1.07,0,0,1,.81-.33,1.1,1.1,0,0,1,.83.33,1.17,1.17,0,0,1,.33.84v.7a4.64,4.64,0,0,1,1.68-1.44,4.83,4.83,0,0,1,2.35-.6A5.36,5.36,0,0,1,819.06,294.6Zm-1.22,9.49a4,4,0,0,0,1.38-1.57,5.16,5.16,0,0,0,.49-2.25,5.08,5.08,0,0,0-.49-2.24,3.84,3.84,0,0,0-1.38-1.57,3.57,3.57,0,0,0-2-.58,3.71,3.71,0,0,0-2,.56,3.8,3.8,0,0,0-1.38,1.58,5.43,5.43,0,0,0,0,4.51,3.84,3.84,0,0,0,1.38,1.57,3.84,3.84,0,0,0,4,0Z" transform="translate(-208.54 -176)"/><path d="M831.88,294a1,1,0,0,1,.45.8,1.19,1.19,0,0,1-.3.88,1,1,0,0,1-.73.3,2.53,2.53,0,0,1-.65-.14,2.17,2.17,0,0,0-2.24.34,3.8,3.8,0,0,0-1.15,1.42,4.42,4.42,0,0,0-.45,2v5.79a1.13,1.13,0,0,1-.32.81,1.09,1.09,0,0,1-.83.34,1.11,1.11,0,0,1-.82-.32,1.2,1.2,0,0,1-.31-.83V295.14a1.12,1.12,0,0,1,.33-.82,1.07,1.07,0,0,1,.8-.34,1.12,1.12,0,0,1,.83.34,1.16,1.16,0,0,1,.32.82v1.22a4.54,4.54,0,0,1,1.59-1.91,4.17,4.17,0,0,1,2.4-.75A1.81,1.81,0,0,1,831.88,294Z" transform="translate(-208.54 -176)"/><path d="M844.6,300.52a1.17,1.17,0,0,1-.8.3h-8.44a4.14,4.14,0,0,0,1.33,2.81,4,4,0,0,0,2.84,1.06,4.34,4.34,0,0,0,1.87-.34,4.71,4.71,0,0,0,1.28-.86,1.3,1.3,0,0,1,.69-.22,1,1,0,0,1,1,1,1.17,1.17,0,0,1-.48.91,5.51,5.51,0,0,1-1.85,1.18,6,6,0,0,1-2.35.48,6.92,6.92,0,0,1-3.42-.82A5.69,5.69,0,0,1,834,303.7a6.81,6.81,0,0,1-.8-3.31,7.23,7.23,0,0,1,.83-3.54,6.09,6.09,0,0,1,2.18-2.34,5.66,5.66,0,0,1,5.8,0,6.1,6.1,0,0,1,2.16,2.18,6.32,6.32,0,0,1,.84,3.12A1,1,0,0,1,844.6,300.52Zm-7.85-4a3.75,3.75,0,0,0-1.3,2.34h7.08v-.19a2.94,2.94,0,0,0-1.14-2.09,3.62,3.62,0,0,0-2.31-.81A3.72,3.72,0,0,0,836.75,296.56Z" transform="translate(-208.54 -176)"/><path d="M851,296.22v7.15q0,1.2,1.08,1.2a1.59,1.59,0,0,0,.46-.09,1.93,1.93,0,0,1,.46-.08.66.66,0,0,1,.52.26,1,1,0,0,1-.36,1.54,2.36,2.36,0,0,1-1.29.36,6,6,0,0,1-1.45-.17,2.12,2.12,0,0,1-1.18-.85,3.48,3.48,0,0,1-.52-2.08v-7.24h-1.39a1,1,0,0,1-.75-.3,1,1,0,0,1-.3-.76,1,1,0,0,1,.3-.74,1,1,0,0,1,.75-.29h1.39v-2a1.1,1.1,0,0,1,.33-.81,1.07,1.07,0,0,1,.83-.34,1.05,1.05,0,0,1,.8.34,1.09,1.09,0,0,1,.32.81v2h2a1,1,0,0,1,1,1.05,1,1,0,0,1-.3.75,1.05,1.05,0,0,1-.75.29Z" transform="translate(-208.54 -176)"/><path d="M867.74,294.14a1.15,1.15,0,0,1,.33.85v10.42a1.1,1.1,0,0,1-.33.81,1.06,1.06,0,0,1-.82.34,1.11,1.11,0,0,1-.82-.32,1.16,1.16,0,0,1-.31-.83v-.63a5.18,5.18,0,0,1-1.71,1.43,4.79,4.79,0,0,1-2.32.59,5.46,5.46,0,0,1-3-.84,5.8,5.8,0,0,1-2.09-2.34,7.95,7.95,0,0,1,0-6.74,5.85,5.85,0,0,1,2.08-2.34,5.3,5.3,0,0,1,2.9-.84,5.41,5.41,0,0,1,2.37.52,4.89,4.89,0,0,1,1.74,1.35V295a1.2,1.2,0,0,1,.31-.84,1.2,1.2,0,0,1,1.64,0Zm-3.72,10a3.84,3.84,0,0,0,1.37-1.58,5.5,5.5,0,0,0,0-4.54A3.94,3.94,0,0,0,864,296.4a3.44,3.44,0,0,0-2-.59,3.57,3.57,0,0,0-2,.57,3.86,3.86,0,0,0-1.37,1.59,5.55,5.55,0,0,0,0,4.56,3.77,3.77,0,0,0,1.37,1.58,3.74,3.74,0,0,0,4,0Z" transform="translate(-208.54 -176)"/><path d="M874.86,296.22v7.15q0,1.2,1.08,1.2a1.6,1.6,0,0,0,.45-.09,2.1,2.1,0,0,1,.46-.08.68.68,0,0,1,.53.26,1.07,1.07,0,0,1,.22.68,1,1,0,0,1-.58.86,2.42,2.42,0,0,1-1.3.36,6,6,0,0,1-1.45-.17,2.09,2.09,0,0,1-1.17-.85,3.41,3.41,0,0,1-.52-2.08v-7.24h-1.39a1,1,0,0,1-.76-.3,1,1,0,0,1-.3-.76,1,1,0,0,1,.3-.74,1,1,0,0,1,.76-.29h1.39v-2a1.13,1.13,0,0,1,.32-.81,1.09,1.09,0,0,1,.83-.34,1.07,1.07,0,0,1,.81.34,1.13,1.13,0,0,1,.32.81v2h2a1,1,0,0,1,.76.3,1,1,0,0,1,.3.75,1,1,0,0,1-.3.75,1.07,1.07,0,0,1-.76.29Z" transform="translate(-208.54 -176)"/><path d="M880.58,292a1,1,0,0,1-.3-.81v-.38a1,1,0,0,1,.33-.82,1.64,1.64,0,0,1,1-.24,1.46,1.46,0,0,1,1,.26,1,1,0,0,1,.31.8v.38a1,1,0,0,1-.32.82,1.6,1.6,0,0,1-1,.24A1.54,1.54,0,0,1,880.58,292Zm1.83,14.19a1.1,1.1,0,0,1-.83.34,1,1,0,0,1-.8-.34,1.1,1.1,0,0,1-.33-.81V295a1.12,1.12,0,0,1,.33-.82,1.07,1.07,0,0,1,.8-.34,1.14,1.14,0,0,1,.83.34,1.16,1.16,0,0,1,.32.82v10.39A1.13,1.13,0,0,1,882.41,306.22Z" transform="translate(-208.54 -176)"/><path d="M897.08,303.63a6.1,6.1,0,0,1-2.29,2.33,6.53,6.53,0,0,1-6.41,0,6.1,6.1,0,0,1-2.29-2.33,6.7,6.7,0,0,1-.84-3.36,6.83,6.83,0,0,1,.84-3.38,6,6,0,0,1,2.29-2.35,6.53,6.53,0,0,1,6.41,0,6,6,0,0,1,2.29,2.35,6.83,6.83,0,0,1,.84,3.38A6.7,6.7,0,0,1,897.08,303.63Zm-2-5.67a4.08,4.08,0,0,0-1.46-1.59,3.92,3.92,0,0,0-2-.56,3.87,3.87,0,0,0-2.05.56,4,4,0,0,0-1.47,1.59,4.86,4.86,0,0,0-.54,2.31,4.74,4.74,0,0,0,.54,2.28,4,4,0,0,0,1.47,1.57,3.79,3.79,0,0,0,2.05.57,3.84,3.84,0,0,0,2-.57,4,4,0,0,0,1.46-1.57,4.74,4.74,0,0,0,.54-2.28A4.86,4.86,0,0,0,895.1,298Z" transform="translate(-208.54 -176)"/><path d="M911.29,298.88v6.53a1.13,1.13,0,0,1-.32.81,1.1,1.1,0,0,1-.83.34,1.07,1.07,0,0,1-.81-.34,1.13,1.13,0,0,1-.32-.81V298.9a3.6,3.6,0,0,0-.65-2.25,2.49,2.49,0,0,0-2.11-.84,3.61,3.61,0,0,0-1.74.42,3.1,3.1,0,0,0-1.22,1.13,2.8,2.8,0,0,0-.45,1.54v6.51a1.13,1.13,0,0,1-.32.81,1.09,1.09,0,0,1-.83.34,1.07,1.07,0,0,1-.81-.32,1.16,1.16,0,0,1-.32-.83V295.14a1.12,1.12,0,0,1,.33-.82,1.07,1.07,0,0,1,.8-.34,1.12,1.12,0,0,1,.83.34,1.16,1.16,0,0,1,.32.82V296a5.23,5.23,0,0,1,1.74-1.62,4.63,4.63,0,0,1,2.39-.66C909.85,293.7,911.29,295.42,911.29,298.88Z" transform="translate(-208.54 -176)"/><path d="M937,526.22a1.12,1.12,0,0,1,.39.89,1.53,1.53,0,0,1-.07.41l-5,14.52a.91.91,0,0,1-.4.52,1.46,1.46,0,0,1-.63.2,1.2,1.2,0,0,1-.65-.19,1.13,1.13,0,0,1-.46-.55l-3.74-8.76L922.75,542a1.13,1.13,0,0,1-.46.55,1.24,1.24,0,0,1-.67.19,1.29,1.29,0,0,1-.62-.22.88.88,0,0,1-.39-.5l-5-14.52a1.53,1.53,0,0,1-.07-.41,1.12,1.12,0,0,1,.4-.87,1.23,1.23,0,0,1,.85-.35,1.3,1.3,0,0,1,.7.2,1,1,0,0,1,.4.54l4.06,12,3.48-8.55a1.25,1.25,0,0,1,.43-.53,1.21,1.21,0,0,1,1.3,0,1.25,1.25,0,0,1,.43.53l3.38,8.55,4-12a.9.9,0,0,1,.4-.55,1.34,1.34,0,0,1,.72-.19A1.24,1.24,0,0,1,937,526.22Z" transform="translate(-208.54 -176)"/><path d="M946.89,530.22a1,1,0,0,1,.46.8,1.19,1.19,0,0,1-.3.88,1,1,0,0,1-.73.3,2.45,2.45,0,0,1-.65-.14,2.18,2.18,0,0,0-2.25.34,3.89,3.89,0,0,0-1.15,1.42,4.55,4.55,0,0,0-.44,2v5.79a1.1,1.1,0,0,1-.33.81,1.06,1.06,0,0,1-.82.34,1.11,1.11,0,0,1-.82-.32,1.16,1.16,0,0,1-.31-.83V531.34a1.16,1.16,0,0,1,.32-.82,1.15,1.15,0,0,1,1.63,0,1.12,1.12,0,0,1,.33.82v1.22a4.59,4.59,0,0,1,1.58-1.91,4.21,4.21,0,0,1,2.4-.75A1.77,1.77,0,0,1,946.89,530.22Z" transform="translate(-208.54 -176)"/><path d="M949.47,528.23a1,1,0,0,1-.3-.81V527a1,1,0,0,1,.33-.82,1.64,1.64,0,0,1,1-.24,1.48,1.48,0,0,1,1,.26,1,1,0,0,1,.3.8v.38a1,1,0,0,1-.31.82,1.6,1.6,0,0,1-1,.24A1.54,1.54,0,0,1,949.47,528.23Zm1.83,14.19a1.1,1.1,0,0,1-.83.34,1.07,1.07,0,0,1-.81-.34,1.13,1.13,0,0,1-.32-.81V531.22a1.16,1.16,0,0,1,.32-.82,1.11,1.11,0,0,1,.81-.34,1.14,1.14,0,0,1,.83.34,1.16,1.16,0,0,1,.32.82v10.39A1.13,1.13,0,0,1,951.3,542.42Z" transform="translate(-208.54 -176)"/><path d="M958.32,532.42v7.15q0,1.2,1.08,1.2a1.6,1.6,0,0,0,.45-.09,2,2,0,0,1,.46-.08.68.68,0,0,1,.53.26,1.06,1.06,0,0,1,.21.68,1,1,0,0,1-.57.86,2.42,2.42,0,0,1-1.3.36,6,6,0,0,1-1.45-.17,2.15,2.15,0,0,1-1.18-.85,3.48,3.48,0,0,1-.51-2.08v-7.24h-1.4a1,1,0,0,1-.75-.3,1,1,0,0,1-.3-.76,1,1,0,0,1,.3-.74,1,1,0,0,1,.75-.29H956v-2a1.13,1.13,0,0,1,1.15-1.15,1,1,0,0,1,.8.34,1.1,1.1,0,0,1,.33.81v2h2a1,1,0,0,1,1.05,1,1,1,0,0,1-.3.75,1.05,1.05,0,0,1-.75.29Z" transform="translate(-208.54 -176)"/><path d="M964,528.23a1,1,0,0,1-.3-.81V527a1,1,0,0,1,.32-.82,1.69,1.69,0,0,1,1-.24,1.48,1.48,0,0,1,1,.26,1,1,0,0,1,.3.8v.38a1,1,0,0,1-.31.82,1.63,1.63,0,0,1-1,.24A1.54,1.54,0,0,1,964,528.23Zm1.82,14.19a1.15,1.15,0,0,1-1.63,0,1.13,1.13,0,0,1-.32-.81V531.22a1.16,1.16,0,0,1,.32-.82,1.15,1.15,0,0,1,1.63,0,1.12,1.12,0,0,1,.33.82v10.39A1.1,1.1,0,0,1,965.86,542.42Z" transform="translate(-208.54 -176)"/><path d="M980.2,535.08v6.53a1.13,1.13,0,0,1-1.15,1.15,1,1,0,0,1-.8-.34,1.1,1.1,0,0,1-.33-.81V535.1a3.6,3.6,0,0,0-.64-2.25,2.52,2.52,0,0,0-2.12-.84,3.61,3.61,0,0,0-1.74.42,3.17,3.17,0,0,0-1.22,1.13,2.79,2.79,0,0,0-.44,1.54v6.51a1.1,1.1,0,0,1-.33.81,1.09,1.09,0,0,1-.83.34,1.1,1.1,0,0,1-.81-.32,1.16,1.16,0,0,1-.31-.83V531.34a1.12,1.12,0,0,1,.32-.82,1.09,1.09,0,0,1,.8-.34,1.14,1.14,0,0,1,1.16,1.16v.84a5,5,0,0,1,1.74-1.62,4.6,4.6,0,0,1,2.38-.66C978.76,529.9,980.2,531.62,980.2,535.08Z" transform="translate(-208.54 -176)"/><path d="M995,530.34a1.15,1.15,0,0,1,.33.85v10.56a6,6,0,0,1-.83,3.25,5,5,0,0,1-2.25,1.94,7.89,7.89,0,0,1-3.19.62,8.72,8.72,0,0,1-2.24-.34,4,4,0,0,1-1.65-.69c-.49-.26-.74-.58-.74-1a1.17,1.17,0,0,1,.09-.39.92.92,0,0,1,.89-.6,1.82,1.82,0,0,1,.68.15,9.09,9.09,0,0,0,3,.74,4.25,4.25,0,0,0,2.93-.92,3.22,3.22,0,0,0,1-2.53v-1.3a4.22,4.22,0,0,1-1.7,1.61,5,5,0,0,1-2.51.67,5.66,5.66,0,0,1-3-.84,5.86,5.86,0,0,1-2.15-2.34,7.67,7.67,0,0,1,0-6.74,5.91,5.91,0,0,1,2.14-2.34,5.56,5.56,0,0,1,3-.84,5.2,5.2,0,0,1,2.46.6A5.26,5.26,0,0,1,993,532v-.77a1.2,1.2,0,0,1,.31-.84,1.07,1.07,0,0,1,.81-.33A1.09,1.09,0,0,1,995,530.34Zm-3.8,10a3.92,3.92,0,0,0,1.43-1.58,5,5,0,0,0,.51-2.29,5,5,0,0,0-.51-2.28,4.15,4.15,0,0,0-1.43-1.59,3.88,3.88,0,0,0-2.09-.57,3.78,3.78,0,0,0-2.06.57,4,4,0,0,0-1.43,1.6,5.21,5.21,0,0,0,0,4.54,3.87,3.87,0,0,0,1.43,1.59,3.7,3.7,0,0,0,2.06.58A3.88,3.88,0,0,0,991.15,540.32Z" transform="translate(-208.54 -176)"/></g><g id="powered"><path d="M1038.86,177.64a5,5,0,0,1,1.71,1.86,5.33,5.33,0,0,1,.64,2.6,5.42,5.42,0,0,1-.64,2.61,5,5,0,0,1-1.71,1.9,4.31,4.31,0,0,1-2.36.69H1032v5.31a1.12,1.12,0,0,1-.31.81,1,1,0,0,1-.79.34,1.08,1.08,0,0,1-.81-.32,1.19,1.19,0,0,1-.29-.83v-14.5a1.14,1.14,0,0,1,1.15-1.15h5.56A4.38,4.38,0,0,1,1038.86,177.64Zm-1.15,7.06a2.89,2.89,0,0,0,.87-1.12,3.41,3.41,0,0,0,.33-1.48,3.16,3.16,0,0,0-.71-2.08,2.15,2.15,0,0,0-1.7-.85H1032v6h4.51A2,2,0,0,0,1037.71,184.7Z" transform="translate(-208.54 -176)"/><path d="M1054.72,190.83a6.1,6.1,0,0,1-2.29,2.33,6.53,6.53,0,0,1-6.41,0,6.1,6.1,0,0,1-2.29-2.33,6.7,6.7,0,0,1-.84-3.36,6.83,6.83,0,0,1,.84-3.38,6,6,0,0,1,2.29-2.35,6.53,6.53,0,0,1,6.41,0,6,6,0,0,1,2.29,2.35,6.83,6.83,0,0,1,.84,3.38A6.7,6.7,0,0,1,1054.72,190.83Zm-2-5.67a4.08,4.08,0,0,0-1.46-1.59,4.05,4.05,0,0,0-4.11,0,4.08,4.08,0,0,0-1.46,1.59,4.86,4.86,0,0,0-.54,2.31,4.74,4.74,0,0,0,.54,2.28,4,4,0,0,0,1.46,1.57,4,4,0,0,0,4.11,0,4,4,0,0,0,1.46-1.57,4.74,4.74,0,0,0,.54-2.28A4.86,4.86,0,0,0,1052.74,185.16Z" transform="translate(-208.54 -176)"/><path d="M1073.67,181.39a1.13,1.13,0,0,1,.32.83,1.6,1.6,0,0,1-.09.45L1070.22,193a1,1,0,0,1-.48.58,1.19,1.19,0,0,1-.72.14,1.15,1.15,0,0,1-1-.72l-2.5-6.53-2.3,6.53a1.13,1.13,0,0,1-1,.72,1.08,1.08,0,0,1-.71-.16,1,1,0,0,1-.47-.56l-3.72-10.37a1.33,1.33,0,0,1-.07-.45,1.15,1.15,0,0,1,.31-.82,1.08,1.08,0,0,1,.82-.34,1,1,0,0,1,1,.72l2.86,8.09,2.28-6a1,1,0,0,1,1.05-.72,1,1,0,0,1,1,.72l2.33,5.88,2.8-8a1.17,1.17,0,0,1,1.89-.39Z" transform="translate(-208.54 -176)"/><path d="M1087.14,187.72a1.13,1.13,0,0,1-.79.3h-8.45a4.19,4.19,0,0,0,1.34,2.81,4,4,0,0,0,2.84,1.06,4.34,4.34,0,0,0,1.87-.34,4.51,4.51,0,0,0,1.27-.86,1.33,1.33,0,0,1,.7-.22.91.91,0,0,1,.68.29.92.92,0,0,1,.28.67,1.17,1.17,0,0,1-.48.91,5.51,5.51,0,0,1-1.85,1.18,6.06,6.06,0,0,1-2.35.48,6.87,6.87,0,0,1-3.42-.82,5.69,5.69,0,0,1-2.28-2.28,6.7,6.7,0,0,1-.8-3.31,7.34,7.34,0,0,1,.82-3.54,6.11,6.11,0,0,1,2.19-2.34,5.64,5.64,0,0,1,5.79,0,5.94,5.94,0,0,1,2.16,2.18,6.12,6.12,0,0,1,.84,3.12A1,1,0,0,1,1087.14,187.72Zm-7.84-4a3.75,3.75,0,0,0-1.3,2.34h7.08v-.19a2.94,2.94,0,0,0-1.14-2.09,3.62,3.62,0,0,0-2.32-.81A3.71,3.71,0,0,0,1079.3,183.76Z" transform="translate(-208.54 -176)"/><path d="M1097.49,181.22a1,1,0,0,1,.45.8,1.19,1.19,0,0,1-.3.88,1,1,0,0,1-.73.3,2.53,2.53,0,0,1-.65-.14,2.17,2.17,0,0,0-2.24.34,3.8,3.8,0,0,0-1.15,1.42,4.42,4.42,0,0,0-.45,2v5.79a1.16,1.16,0,0,1-2,.83,1.16,1.16,0,0,1-.32-.83V182.34a1.12,1.12,0,0,1,.33-.82,1.07,1.07,0,0,1,.8-.34,1.13,1.13,0,0,1,1.15,1.16v1.22a4.61,4.61,0,0,1,1.59-1.91,4.17,4.17,0,0,1,2.4-.75A1.81,1.81,0,0,1,1097.49,181.22Z" transform="translate(-208.54 -176)"/><path d="M1110.21,187.72a1.16,1.16,0,0,1-.79.3H1101a4.14,4.14,0,0,0,1.33,2.81,4.05,4.05,0,0,0,2.84,1.06,4.39,4.39,0,0,0,1.88-.34,4.66,4.66,0,0,0,1.27-.86,1.3,1.3,0,0,1,.69-.22.93.93,0,0,1,.69.29,1,1,0,0,1,.27.67,1.17,1.17,0,0,1-.48.91,5.56,5.56,0,0,1-1.84,1.18,6.11,6.11,0,0,1-2.36.48,6.92,6.92,0,0,1-3.42-.82,5.69,5.69,0,0,1-2.28-2.28,6.81,6.81,0,0,1-.8-3.31,7.35,7.35,0,0,1,.83-3.54,6.09,6.09,0,0,1,2.18-2.34,5.66,5.66,0,0,1,5.8,0,6.1,6.1,0,0,1,2.16,2.18,6.32,6.32,0,0,1,.84,3.12A1,1,0,0,1,1110.21,187.72Zm-7.85-4a3.75,3.75,0,0,0-1.3,2.34h7.08v-.19a2.94,2.94,0,0,0-1.14-2.09,3.62,3.62,0,0,0-2.31-.81A3.74,3.74,0,0,0,1102.36,183.76Z" transform="translate(-208.54 -176)"/><path d="M1124.24,176.32a1.16,1.16,0,0,1,.32.83v15.46a1.13,1.13,0,0,1-.32.81,1.2,1.2,0,0,1-1.65,0,1.16,1.16,0,0,1-.31-.83v-.67a4.88,4.88,0,0,1-1.69,1.46,4.8,4.8,0,0,1-2.34.6,5.37,5.37,0,0,1-3-.84,5.87,5.87,0,0,1-2.09-2.34,7.81,7.81,0,0,1,0-6.74,5.75,5.75,0,0,1,2.07-2.34,5.51,5.51,0,0,1,5.26-.32,5.14,5.14,0,0,1,1.75,1.37v-5.64a1.16,1.16,0,0,1,.31-.83,1.11,1.11,0,0,1,.82-.32A1.16,1.16,0,0,1,1124.24,176.32Zm-3.72,15a3.82,3.82,0,0,0,1.36-1.58,5.43,5.43,0,0,0,0-4.55,3.88,3.88,0,0,0-1.36-1.6,3.63,3.63,0,0,0-2-.57,3.57,3.57,0,0,0-2,.57,3.9,3.9,0,0,0-1.37,1.6,5.53,5.53,0,0,0,0,4.55,3.84,3.84,0,0,0,1.37,1.58,3.5,3.5,0,0,0,2,.58A3.56,3.56,0,0,0,1120.52,191.31Z" transform="translate(-208.54 -176)"/><path d="M1143.86,181.74a5.76,5.76,0,0,1,2.07,2.32,7.29,7.29,0,0,1,.76,3.36,7.41,7.41,0,0,1-.76,3.39,5.72,5.72,0,0,1-2.07,2.35,5.31,5.31,0,0,1-2.91.84,5,5,0,0,1-2.33-.55,5.53,5.53,0,0,1-1.75-1.37v.7a1.13,1.13,0,0,1-.32.81,1.09,1.09,0,0,1-.83.34,1.06,1.06,0,0,1-.8-.33,1.09,1.09,0,0,1-.33-.82V177.15a1.2,1.2,0,0,1,.31-.83,1.11,1.11,0,0,1,.82-.32,1.09,1.09,0,0,1,.83.34,1.13,1.13,0,0,1,.32.81V183a4.92,4.92,0,0,1,1.68-1.49,4.67,4.67,0,0,1,2.35-.62A5.41,5.41,0,0,1,1143.86,181.74Zm-1.23,9.56a4,4,0,0,0,1.38-1.61,5.11,5.11,0,0,0,.49-2.27,5,5,0,0,0-.49-2.25,4,4,0,0,0-1.38-1.59,3.59,3.59,0,0,0-2-.57,3.69,3.69,0,0,0-2,.57,3.93,3.93,0,0,0-1.38,1.58,5.14,5.14,0,0,0-.49,2.26,5.23,5.23,0,0,0,.49,2.28,3.92,3.92,0,0,0,1.38,1.6,3.62,3.62,0,0,0,2,.59A3.53,3.53,0,0,0,1142.63,191.3Z" transform="translate(-208.54 -176)"/><path d="M1159.52,181.4a1.16,1.16,0,0,1,.32.82v10.36a5.71,5.71,0,0,1-1.66,4.49,6.28,6.28,0,0,1-4.36,1.49,9.37,9.37,0,0,1-1.76-.17,5.32,5.32,0,0,1-1.41-.45c-.59-.28-.89-.64-.89-1.11a1.5,1.5,0,0,1,0-.31,1.28,1.28,0,0,1,.41-.62.87.87,0,0,1,.6-.22.92.92,0,0,1,.36.07,12.1,12.1,0,0,0,1.32.53,4.17,4.17,0,0,0,1.34.19q3.72,0,3.72-3.81v-.48a4.41,4.41,0,0,1-1.67,1.34,5.44,5.44,0,0,1-2.34.48,3.92,3.92,0,0,1-3.11-1.27,4.9,4.9,0,0,1-1.11-3.34v-7.17a1.12,1.12,0,0,1,.31-.83,1.08,1.08,0,0,1,.82-.33,1.1,1.1,0,0,1,.82.34,1.12,1.12,0,0,1,.33.82v6.57a3.37,3.37,0,0,0,.69,2.34,2.73,2.73,0,0,0,2.12.76,3.08,3.08,0,0,0,2.25-.87,3,3,0,0,0,.89-2.23v-6.57a1.12,1.12,0,0,1,.31-.83,1.08,1.08,0,0,1,.82-.33A1.14,1.14,0,0,1,1159.52,181.4Z" transform="translate(-208.54 -176)"/><path d="M1163.36,183.8a1.26,1.26,0,0,1-.3-.91v-.43a1.29,1.29,0,0,1,.3-.92,1.18,1.18,0,0,1,.87-.31h.27a1.18,1.18,0,0,1,.87.31,1.29,1.29,0,0,1,.3.92v.43a1.26,1.26,0,0,1-.3.91,1.14,1.14,0,0,1-.87.31h-.27A1.14,1.14,0,0,1,1163.36,183.8Zm0,9.64a1.29,1.29,0,0,1-.3-.9v-.46a1.29,1.29,0,0,1,.3-.9,1.11,1.11,0,0,1,.87-.32h.27a1.11,1.11,0,0,1,.87.32,1.29,1.29,0,0,1,.3.9v.46a1.29,1.29,0,0,1-.3.9,1.15,1.15,0,0,1-.87.32h-.27A1.15,1.15,0,0,1,1163.36,193.44Z" transform="translate(-208.54 -176)"/><path class="cls-10" d="M1114.16,221.92a12.8,12.8,0,0,1,1.83.06h12.7v5.18h-12a54.47,54.47,0,0,0-8.36.79Z" transform="translate(-208.54 -176)"/><path class="cls-11" d="M1097.42,232.89c.36.47.36.49.73,1,6.57,9.24,15.62,8.33,16,8.29v5.18a3,3,0,0,1-.91,0c-3.58,0-12.59-1-19.33-10.5l-.37-.52Z" transform="translate(-208.54 -176)"/><path class="cls-12" d="M1093.36,236.13c-6.34-8.54-11.47-9-11.47-9V222c.77,0,7.48.47,15.17,10.47Z" transform="translate(-208.54 -176)"/><path class="cls-13" d="M1032.05,247.06v-22.8a25.57,25.57,0,0,1,11.55-2.76c3.51,0,6.26.92,8.23,2.75a10,10,0,0,1,3,7.69v15.12h-6.06V231.43a6.67,6.67,0,0,0-.18-1.69,4.32,4.32,0,0,0-.74-1.42,3.32,3.32,0,0,0-1.81-1.1,11.53,11.53,0,0,0-3.22-.37,26,26,0,0,0-4.68.44v19.77Z" transform="translate(-208.54 -176)"/><path class="cls-13" d="M1058.74,234.75q0-6.06,2.69-9.68t8.56-3.61c3.69,0,6.49,1.17,8.38,3.52a13.3,13.3,0,0,1,2.85,8.66c0,1.41,0,2.46-.1,3.13h-16.33q.26,3.27,2,4.38a8,8,0,0,0,4.45,1.11,26,26,0,0,0,8.57-1l0,5.13c-1.93.9-6,1.06-9.51,1.06a17.6,17.6,0,0,1-3.15-.27,10.57,10.57,0,0,1-3.06-1.14,9.55,9.55,0,0,1-2.73-2.19,10.37,10.37,0,0,1-1.87-3.68A18.25,18.25,0,0,1,1058.74,234.75Zm6-2.17h10.15a8.79,8.79,0,0,0-1.54-4.37,4.15,4.15,0,0,0-3.56-1.78,4.42,4.42,0,0,0-3.53,1.45A8.07,8.07,0,0,0,1064.79,232.58Z" transform="translate(-208.54 -176)"/><rect class="cls-13" x="908.14" y="38.44" width="6.06" height="5.74"/><path class="cls-13" d="M1123.41,241.69a2.76,2.76,0,0,1-.68-2.19V229h-6.06v10.11a8.45,8.45,0,0,0,2.14,6.11,7.8,7.8,0,0,0,5.89,2.22h.12a10,10,0,0,0,3.87-.74v-5a7.25,7.25,0,0,1-2.88.54A3.8,3.8,0,0,1,1123.41,241.69Z" transform="translate(-208.54 -176)"/><path d="M1132.8,227.09V221.9h4.28q.06-10.52,9.39-10.51a12.37,12.37,0,0,1,2.46.25v4.82a12.78,12.78,0,0,0-1.36-.1,4.41,4.41,0,0,0-3.39,1.13c-.69.76-1,2.23-1,4.41h5.79v5.19h-5.79v20h-6.06v-20Z" transform="translate(-208.54 -176)"/><path d="M1153.88,247.06V212.32h6v34.74Z" transform="translate(-208.54 -176)"/><path d="M1169.68,244.11q-3.08-3.35-3.07-9.61c0-4.16,1-7.37,3.07-9.6s5-3.35,8.83-3.35,6.78,1.12,8.83,3.35,3.08,5.44,3.08,9.6-1,7.38-3.08,9.61-5,3.35-8.83,3.35S1171.74,246.34,1169.68,244.11Zm4.42-15.93q-1.44,1.65-1.44,6.34t1.44,6.32a6.76,6.76,0,0,0,8.83,0q1.42-1.64,1.43-6.32t-1.43-6.34a6.73,6.73,0,0,0-8.83,0Z" transform="translate(-208.54 -176)"/><path d="M1193.79,221.9h6.4l5.34,18.14,4.8-18.14h5.2l4.78,18.14,5.34-18.14h6.4l-8.91,25.16h-6.06l-4.14-14.48-4.18,14.48h-6.06Z" transform="translate(-208.54 -176)"/><path class="cls-14" d="M1085,239.3a25,25,0,0,1-12.43,2.9l-.4,5.17c.08,0,.47,0,1.09,0a31.06,31.06,0,0,0,12.8-2.87Z" transform="translate(-208.54 -176)"/><path class="cls-13" d="M1116,222a17.38,17.38,0,0,0-2.8,0h0c-4.15.31-11.88,2.09-19.08,10.24a29.77,29.77,0,0,1-10.15,7.57c-4.45,5.14-11.8,7.58-11.8,7.58s.47,0,1.09,0A33.58,33.58,0,0,0,1098,235.65c6-6.77,8.49-7.27,12-8.11a48.38,48.38,0,0,1,7.33-2.92,79.15,79.15,0,0,1,11.42-2.64Z" transform="translate(-208.54 -176)"/><rect class="cls-15" x="856.21" y="96.23" width="7.8" height="7.09"/><rect class="cls-15" x="837.77" y="96.23" width="7.8" height="7.09"/><rect class="cls-15" x="828.55" y="96.23" width="7.8" height="7.09"/><rect class="cls-15" x="846.99" y="96.23" width="7.8" height="7.09"/><rect class="cls-15" x="865.43" y="96.23" width="7.8" height="7.09"/><rect class="cls-15" x="837.77" y="87.72" width="7.8" height="7.09"/><rect class="cls-15" x="846.99" y="87.72" width="7.8" height="7.09"/><rect class="cls-15" x="856.21" y="87.72" width="7.8" height="7.09"/><rect class="cls-15" x="856.21" y="79.22" width="7.8" height="7.09"/><path class="cls-15" d="M1105,274.42c-1.61-1.07-5.81-1.53-8.87-.71-.16-3-1.74-5.61-4.61-7.85l-1.06-.72-.71,1.07a12.25,12.25,0,0,0-1.77,7.5,8.88,8.88,0,0,0,1.77,4.64,11.63,11.63,0,0,1-6.74,1.78h-50.7c-.9,5.36.64,25.7,24.11,25.7,17.42,0,31.74-7.83,38.29-24.27,2.16,0,7.85.39,10.64-5,.07-.09.71-1.42.71-1.42Z" transform="translate(-208.54 -176)"/><path id="Fill-21" class="cls-8" d="M1051,296.17a44.47,44.47,0,0,1-13.31,2.24c4.34,3.61,12.07,10.44,24.82,6.54A19.79,19.79,0,0,1,1051,296.17Z" transform="translate(-208.54 -176)"/><path id="Shape" class="cls-16" d="M1050.4,294.92a19,19,0,0,1-9.43,2.48,19.17,19.17,0,0,1-5-.66l1,1.7a21,21,0,0,0,4,.39,20.53,20.53,0,0,0,10.12-2.66C1050.84,295.76,1050.61,295.35,1050.4,294.92Z" transform="translate(-208.54 -176)"/><ellipse id="Oval" class="cls-8" cx="847.26" cy="115.51" rx="2.47" ry="2.48"/><path class="cls-17" d="M1056.17,290.81a.72.72,0,0,1,.27-.55,1.38,1.38,0,0,0-.64-.16,1.42,1.42,0,1,0,1.41,1.42s0-.06,0-.08a.74.74,0,0,1-.33.09A.71.71,0,0,1,1056.17,290.81Z" transform="translate(-208.54 -176)"/><path id="Shape-2" data-name="Shape" class="cls-18" d="M1104.79,274.3c-1.59-1.07-6-1.58-8.87-.73l-.65.92c-9.5,19.67-21.4,28-37.64,28.35-17.72,0-22.15-9.39-23.4-22.13h-2.84c-.36,5.35,1,25,24.65,25,17.44,0,31.8-7.81,38.43-24.23,2.17,0,8.19,0,10.85-5.36l.54-1.14Z" transform="translate(-208.54 -176)"/><rect class="cls-16" x="829.97" y="97.65" width="0.71" height="4.25"/><rect class="cls-16" x="832.1" y="97.65" width="0.71" height="4.25"/><rect class="cls-16" x="834.23" y="97.65" width="0.71" height="4.25"/><rect class="cls-16" x="839.19" y="97.65" width="0.71" height="4.25"/><rect class="cls-16" x="841.32" y="97.65" width="0.71" height="4.25"/><rect class="cls-16" x="843.44" y="97.65" width="0.71" height="4.25"/><rect class="cls-16" x="848.41" y="97.65" width="0.71" height="4.25"/><rect class="cls-16" x="850.54" y="97.65" width="0.71" height="4.25"/><rect class="cls-16" x="852.66" y="97.65" width="0.71" height="4.25"/><rect class="cls-16" x="857.63" y="97.65" width="0.71" height="4.25"/><rect class="cls-16" x="859.75" y="97.65" width="0.71" height="4.25"/><rect class="cls-16" x="861.88" y="97.65" width="0.71" height="4.25"/><rect class="cls-16" x="866.84" y="97.65" width="0.71" height="4.25"/><rect class="cls-16" x="868.97" y="97.65" width="0.71" height="4.25"/><rect class="cls-16" x="871.1" y="97.65" width="0.71" height="4.25"/><rect class="cls-16" x="841.32" y="89.14" width="0.71" height="4.25"/><rect class="cls-16" x="843.44" y="89.14" width="0.71" height="4.25"/><rect class="cls-16" x="848.41" y="89.14" width="0.71" height="4.25"/><rect class="cls-16" x="850.54" y="89.14" width="0.71" height="4.25"/><rect class="cls-16" x="852.66" y="89.14" width="0.71" height="4.25"/><rect class="cls-16" x="857.63" y="89.14" width="0.71" height="4.25"/><rect class="cls-16" x="859.75" y="89.14" width="0.71" height="4.25"/><rect class="cls-16" x="861.88" y="89.14" width="0.71" height="4.25"/><rect class="cls-16" x="859.75" y="80.63" width="0.71" height="4.25"/><rect class="cls-16" x="857.63" y="80.63" width="0.71" height="4.25"/><rect class="cls-16" x="861.88" y="80.63" width="0.71" height="4.25"/><rect class="cls-16" x="839.19" y="89.14" width="0.71" height="4.25"/><path class="cls-16" d="M1096.51,272.72c-.39-2.86-2-5.35-4.82-7.55L1090,264l-1.1,1.67a12.92,12.92,0,0,0-1.89,8,10.08,10.08,0,0,0,1.47,4.39,11.7,11.7,0,0,1-5.31,1.25v-8.48H1074v-17h-10.63v8.51h-18.44v8.51h-9.22v8.49h-4.2l-.1.59a22.28,22.28,0,0,0,.08,6.5,25.81,25.81,0,0,0,2.91,8.83c3.94,7.06,11.08,11.21,21.81,11.21,18.27,0,32.25-8.44,38.77-24.26a14.69,14.69,0,0,0,5.44-.71,9.35,9.35,0,0,0,5.34-4.66c.07-.11.17-.32.38-.75l.24-.5c0-.06.06-.11.11-.22l.27-.56-1.58-1.06C1103.44,272.57,1099.55,272.14,1096.51,272.72Zm-14.75-.49v7.08H1074v-7.08Zm-17-17h7.8v7.09h-7.8Zm0,8.5h7.8v7.1h-7.8Zm0,15.59v-7.08h7.8v7.08Zm-9.22-15.59h7.8v7.1h-7.8Zm0,8.51h7.8v7.08h-7.8Zm-9.22-8.51h7.8v7.1h-7.8Zm0,15.59v-7.08h7.8v7.08Zm-9.22-7.08h7.8v7.08h-7.8Zm67.73,3.22-.22.44-.13.23a7.89,7.89,0,0,1-4.56,4,13.32,13.32,0,0,1-5.06.63H1094l-.18.46c-6.21,15.55-19.75,23.82-37.64,23.82-10.22,0-16.89-3.87-20.57-10.48a24.49,24.49,0,0,1-2.75-8.33,23,23,0,0,1-.17-5.46h50.5a12,12,0,0,0,6.75-1.93l.59-.45-.47-.57a8.14,8.14,0,0,1-1.62-4.25,11.48,11.48,0,0,1,1.66-7l.32-.48.45.31c2.75,2.15,4.17,4.54,4.32,7.31l0,.88.85-.23c2.76-.74,6.8-.38,8.28.62l.55.36C1104.88,275.33,1104.85,275.38,1104.82,275.45Z" transform="translate(-208.54 -176)"/><path class="cls-16" d="M1237.23,279.8a3.74,3.74,0,0,0-1.34-.82,7.91,7.91,0,0,0-1.77-.41,14.81,14.81,0,0,0-1.8-.12,10.28,10.28,0,0,0-3.58.62,10.83,10.83,0,0,0-3.11,1.77v-.39a2,2,0,1,0-4,0V298a1.92,1.92,0,0,0,.58,1.41,1.89,1.89,0,0,0,1.42.59,1.87,1.87,0,0,0,1.4-.59,1.92,1.92,0,0,0,.58-1.41v-8.77a6.82,6.82,0,0,1,.52-2.63,6.66,6.66,0,0,1,3.56-3.59,6.51,6.51,0,0,1,2.61-.53,6.87,6.87,0,0,1,2.6.48,2.18,2.18,0,0,0,.84.22,2,2,0,0,0,.78-.16,1.86,1.86,0,0,0,.63-.43,2.23,2.23,0,0,0,.43-.65,2,2,0,0,0-.37-2.13Z" transform="translate(-208.54 -176)"/><path class="cls-16" d="M1216.34,281.61a10.72,10.72,0,0,0-15.09,15.23,10.61,10.61,0,0,0,14.51.54,2,2,0,0,0,.58-1.45,1.94,1.94,0,0,0-.57-1.43,1.88,1.88,0,0,0-1.41-.57,2.12,2.12,0,0,0-1.32.5,6.25,6.25,0,0,1-1.94,1.16,6.82,6.82,0,0,1-2.31.38,6.58,6.58,0,0,1-2.12-.34,6.81,6.81,0,0,1-1.87-1,6.71,6.71,0,0,1-1.47-1.49,6.49,6.49,0,0,1-.95-1.94h15.08a2,2,0,0,0,1.42-.56,1.92,1.92,0,0,0,.58-1.44,10.86,10.86,0,0,0-.78-4.14A10.43,10.43,0,0,0,1216.34,281.61Zm-14,5.61a6.16,6.16,0,0,1,.93-1.93,6.79,6.79,0,0,1,1.48-1.5,6.9,6.9,0,0,1,1.89-1,6.62,6.62,0,0,1,2.11-.35,6.53,6.53,0,0,1,2.11.35,6.79,6.79,0,0,1,1.87,1,7,7,0,0,1,1.48,1.5,6.23,6.23,0,0,1,1,1.93Z" transform="translate(-208.54 -176)"/><path class="cls-16" d="M1151.64,281.61a10.67,10.67,0,0,0-18.21,7.61,10.43,10.43,0,0,0,3.12,7.62,10.61,10.61,0,0,0,15.09,0,10.37,10.37,0,0,0,3.12-7.62,11.2,11.2,0,0,0-.79-4.13A10.49,10.49,0,0,0,1151.64,281.61Zm-1.38,10.22a7,7,0,0,1-1.43,2.14,6.62,6.62,0,0,1-2.13,1.46,6.34,6.34,0,0,1-2.6.54,6.41,6.41,0,0,1-2.63-.54,6.71,6.71,0,0,1-2.12-1.45,7,7,0,0,1-1.42-2.14,6.84,6.84,0,0,1,0-5.23,7.06,7.06,0,0,1,1.42-2.15,6.71,6.71,0,0,1,2.12-1.45,6.41,6.41,0,0,1,2.63-.54,6.34,6.34,0,0,1,2.6.54,6.78,6.78,0,0,1,2.13,1.46,7,7,0,0,1,1.43,2.15,6.79,6.79,0,0,1,0,5.21Z" transform="translate(-208.54 -176)"/><path class="cls-16" d="M1162.91,284.44a6.89,6.89,0,0,1,2.14-1.44,6.51,6.51,0,0,1,2.61-.53,6.1,6.1,0,0,1,2.32.43,7.11,7.11,0,0,1,2,1.25,2,2,0,0,0,1.29.46,1.88,1.88,0,0,0,1.42-.58,1.94,1.94,0,0,0,.56-1.44,2,2,0,0,0-.68-1.52,10.14,10.14,0,0,0-6.95-2.62,10.27,10.27,0,0,0-7.55,3.16,10.85,10.85,0,0,0,0,15.23,10.59,10.59,0,0,0,14.5.54,2.05,2.05,0,0,0,.63-1.48,2,2,0,0,0-.57-1.44,1.88,1.88,0,0,0-1.42-.56,2.07,2.07,0,0,0-1.25.42,7.07,7.07,0,0,1-2,1.24,6.5,6.5,0,0,1-2.32.41,6.35,6.35,0,0,1-2.61-.53,6.72,6.72,0,0,1-2.14-1.44,6.54,6.54,0,0,1-1.43-2.14,6.82,6.82,0,0,1,0-5.27A6.58,6.58,0,0,1,1162.91,284.44Z" transform="translate(-208.54 -176)"/><path class="cls-16" d="M1129.16,269.22a1.92,1.92,0,0,0-1.42.57,2,2,0,0,0-.56,1.43v9.6a10.59,10.59,0,0,0-14.22.79,10.83,10.83,0,0,0,0,15.23,10.6,10.6,0,0,0,15.08,0,10.37,10.37,0,0,0,3.12-7.62v-18a1.91,1.91,0,0,0-.58-1.43A1.94,1.94,0,0,0,1129.16,269.22Zm-2.5,22.61a7,7,0,0,1-1.43,2.14,6.69,6.69,0,0,1-2.12,1.46,6.63,6.63,0,0,1-5.24,0,6.67,6.67,0,0,1-2.11-1.45,6.84,6.84,0,0,1-1.42-2.14,6.72,6.72,0,0,1,0-5.23,6.88,6.88,0,0,1,1.42-2.15,6.67,6.67,0,0,1,2.11-1.45,6.63,6.63,0,0,1,5.24,0,6.86,6.86,0,0,1,2.12,1.46,7,7,0,0,1,1.43,2.15,6.79,6.79,0,0,1,0,5.21Z" transform="translate(-208.54 -176)"/><path class="cls-16" d="M1196,280.45a1.88,1.88,0,0,0-.17-.77,2.29,2.29,0,0,0-.42-.64,1.81,1.81,0,0,0-.63-.43,2,2,0,0,0-.78-.16,2,2,0,0,0-1.07.31l-11.39,7.48v-15a2,2,0,0,0-.58-1.43,1.9,1.9,0,0,0-1.4-.59,2,2,0,0,0-2,2V298a1.94,1.94,0,0,0,.58,1.42,1.9,1.9,0,0,0,1.42.6,1.88,1.88,0,0,0,1.4-.6,1.94,1.94,0,0,0,.58-1.42V291l2.32-1.54,8.8,10a1.83,1.83,0,0,0,1.34.52,1.88,1.88,0,0,0,1.41-.59,2.15,2.15,0,0,0,.42-.64,1.84,1.84,0,0,0,.17-.77,2,2,0,0,0-.56-1.4l-8.19-9.31,8-5.23A1.81,1.81,0,0,0,1196,280.45Z" transform="translate(-208.54 -176)"/><path class="cls-16" d="M1232.65,298.39a1.44,1.44,0,1,1-1.43-1.4A1.41,1.41,0,0,1,1232.65,298.39Zm-2.51,0a1.08,1.08,0,0,0,1.09,1.11,1.06,1.06,0,0,0,1.06-1.1,1.08,1.08,0,1,0-2.15,0Zm.86.73h-.33v-1.39a2.47,2.47,0,0,1,.54-.05.84.84,0,0,1,.48.11.36.36,0,0,1,.14.3.36.36,0,0,1-.29.32v0a.39.39,0,0,1,.25.34,1.06,1.06,0,0,0,.11.35h-.35a1.2,1.2,0,0,1-.11-.34c0-.15-.11-.22-.29-.22H1231Zm0-.79h.16c.18,0,.32-.06.32-.2s-.09-.22-.3-.22l-.18,0Z" transform="translate(-208.54 -176)"/><path class="cls-19" d="M1071.45,326.19" transform="translate(-208.54 -176)"/></g></svg>