<svg xmlns="http://www.w3.org/2000/svg" xmlns:xlink="http://www.w3.org/1999/xlink" viewBox="0 0 1063.76 418.5"><defs><style>.cls-1{opacity:0.7;}.cls-2{fill:red;}.cls-3{fill:#ff7f00;}.cls-4{fill:#ff0;}.cls-5{fill:lime;}.cls-6{fill:blue;}.cls-7{fill:#333;}.cls-22,.cls-8{fill:#fff;}.cls-9{fill:none;stroke:#fff;stroke-miterlimit:10;}.cls-10{font-size:24px;font-family:Quicksand-Medium, Quicksand;}.cls-11{letter-spacing:0em;}.cls-12{letter-spacing:-0.01em;}.cls-13{letter-spacing:-0.02em;}.cls-14{letter-spacing:0em;}.cls-15{letter-spacing:0em;}.cls-16{letter-spacing:0.01em;}.cls-17{letter-spacing:-0.01em;}.cls-18{letter-spacing:-0.01em;}.cls-19{letter-spacing:-0.06em;}.cls-20{letter-spacing:-0.1em;}.cls-21{letter-spacing:0em;}.cls-22,.cls-26{font-size:14px;font-family:Quicksand-Light, Quicksand;}.cls-23{letter-spacing:-0.01em;}.cls-24{letter-spacing:0em;}.cls-25{letter-spacing:-0.02em;}.cls-27{letter-spacing:-0.06em;}.cls-28{letter-spacing:-0.12em;}.cls-29{letter-spacing:-0.01em;}.cls-30{letter-spacing:-0.01em;}.cls-31{fill:url(#linear-gradient);}.cls-32{fill:url(#linear-gradient-2);}.cls-33{fill:url(#linear-gradient-3);}.cls-34{fill:#26af64;}.cls-35{fill:url(#linear-gradient-4);}.cls-36{fill:#129fdb;}.cls-37{fill:#006fb6;}.cls-38{fill:#4e5c64;}.cls-38,.cls-39{isolation:isolate;}.cls-39{opacity:0.05;}.cls-40{fill:url(#linear-gradient-5);}</style><linearGradient id="linear-gradient" x1="1113.62" y1="221.15" x2="1125.89" y2="230.74" gradientUnits="userSpaceOnUse"><stop offset="0.21" stop-color="#035421"/><stop offset="0.27" stop-color="#08622b"/><stop offset="0.43" stop-color="#158344"/><stop offset="0.59" stop-color="#1e9b56"/><stop offset="0.73" stop-color="#24aa60"/><stop offset="0.85" stop-color="#26af64"/></linearGradient><linearGradient id="linear-gradient-2" x1="1102.57" y1="231.98" x2="1105.55" y2="248.88" gradientUnits="userSpaceOnUse"><stop offset="0.1" stop-color="#035421"/><stop offset="0.44" stop-color="#26af64"/></linearGradient><linearGradient id="linear-gradient-3" x1="1080.63" y1="224.05" x2="1096.4" y2="233.52" gradientUnits="userSpaceOnUse"><stop offset="0.62" stop-color="#26af64"/><stop offset="1" stop-color="#035421"/></linearGradient><linearGradient id="linear-gradient-4" x1="1073.64" y1="240.38" x2="1084.58" y2="246.95" gradientUnits="userSpaceOnUse"><stop offset="0.15" stop-color="#26af64"/><stop offset="0.24" stop-color="#23a75e"/><stop offset="0.37" stop-color="#1a8f4d"/><stop offset="0.54" stop-color="#0b6a31"/><stop offset="0.62" stop-color="#035421"/></linearGradient><linearGradient id="linear-gradient-5" x1="2.48" y1="768.33" x2="2.48" y2="768.33" gradientTransform="matrix(721.09, 0, 0, -482.94, -719.19, 371382.56)" gradientUnits="userSpaceOnUse"><stop offset="0" stop-color="#cbced0"/><stop offset="1" stop-color="#84838b"/></linearGradient></defs><title>dag_16s</title><g id="circle1"><g class="cls-1"><circle class="cls-2" cx="152.5" cy="247.14" r="67.5"/></g><g class="cls-1"><circle class="cls-2" cx="92.5" cy="245.14" r="41.5"/></g></g><g id="circle2"><g class="cls-1"><circle class="cls-3" cx="261" cy="247.64" r="77"/></g><g class="cls-1"><circle class="cls-3" cx="330" cy="244.64" r="40"/></g><g class="cls-1"><circle class="cls-3" cx="394" cy="244.64" r="35"/></g></g><g id="circle4"><g class="cls-1"><circle class="cls-4" cx="498.5" cy="247.14" r="87.5"/></g></g><g id="circle5"><g class="cls-1"><circle class="cls-5" cx="662" cy="244.64" r="96"/></g></g><g id="circle6"><g class="cls-1"><circle class="cls-6" cx="789.5" cy="243.14" r="75.5"/></g></g><g id="bar"><rect class="cls-7" x="57" y="229.64" width="798" height="30"/><path class="cls-8" d="M1028,404v28H232V404h796m2-2H230v32h800V402Z" transform="translate(-174 -173.36)"/><line class="cls-8" x1="386" y1="245.14" x2="486" y2="245.14"/><line class="cls-9" x1="386" y1="245.14" x2="484.92" y2="245.14"/><polygon class="cls-8" points="481.6 249.23 480.92 248.5 484.53 245.14 480.92 241.78 481.6 241.05 486 245.14 481.6 249.23"/></g><g id="text"><text class="cls-10" transform="translate(32.54 105.4)">Lit<tspan class="cls-11" x="27.77" y="0">t</tspan><tspan x="36.77" y="0">e</tspan><tspan class="cls-12" x="50.45" y="0">r</tspan><tspan x="60.07" y="0">atu</tspan><tspan class="cls-13" x="97.85" y="0">r</tspan><tspan x="107.23" y="0">e </tspan><tspan x="21.41" y="28.8">S</tspan><tspan class="cls-14" x="35.38" y="28.8">e</tspan><tspan class="cls-15" x="49.15" y="28.8">a</tspan><tspan class="cls-13" x="63.89" y="28.8">r</tspan><tspan x="73.27" y="28.8">ch</tspan></text><text class="cls-10" transform="translate(50.69 369.4)"><tspan class="cls-16">D</tspan><tspan x="17.4" y="0">own</tspan><tspan class="cls-17" x="64.34" y="0">l</tspan><tspan x="70.18" y="0">oad </tspan><tspan class="cls-18" x="120.84" y="0">P</tspan><tspan x="135.12" y="0">ublic </tspan><tspan x="65.91" y="28.8">Data</tspan></text><text class="cls-10" transform="translate(252.06 105.4)">QC and<tspan x="-61.2" y="28.8">Adap</tspan><tspan class="cls-11" x="-1.58" y="28.8">t</tspan><tspan x="7.42" y="28.8">er </tspan><tspan class="cls-19" x="37.66" y="28.8">T</tspan><tspan x="51.02" y="28.8">rimming</tspan></text><text class="cls-10" transform="translate(405.08 369.54)"><tspan class="cls-16">D</tspan><tspan x="17.4" y="0">enoising and</tspan><tspan class="cls-20" x="-47.18" y="28.8">T</tspan><tspan x="-34.77" y="28.8">a</tspan><tspan class="cls-11" x="-20.04" y="28.8">x</tspan><tspan x="-8.49" y="28.8">ono</tspan><tspan class="cls-11" x="34.73" y="28.8">m</tspan><tspan x="56.64" y="28.8">y Assignment</tspan></text><text class="cls-10" transform="translate(532.24 104.4)">Data Visuali<tspan class="cls-16" x="135.65" y="0">s</tspan><tspan x="147.29" y="0">ation and</tspan><tspan x="48.77" y="28.8">In</tspan><tspan class="cls-11" x="69.26" y="28.8">t</tspan><tspan x="78.26" y="28.8">erp</tspan><tspan class="cls-13" x="116.59" y="28.8">r</tspan><tspan x="125.97" y="28.8">etation</tspan></text><text class="cls-10" transform="translate(741.04 369.4)"><tspan class="cls-21">W</tspan><tspan x="22.8" y="0">riting</tspan></text></g><g id="tools"><text class="cls-22" transform="translate(126.83 223)">s<tspan class="cls-23" x="6.51" y="0">r</tspan><tspan x="11.49" y="0">a</tspan><tspan class="cls-24" x="19.82" y="0">t</tspan><tspan x="24.18" y="0">oolkit</tspan></text><text class="cls-22" transform="translate(241.54 221)">at<tspan class="cls-25" x="12.75" y="0">r</tspan><tspan x="17.6" y="0">opos</tspan></text><text class="cls-26" transform="translate(478.3 224)">dada2</text><text class="cls-26" transform="translate(655.35 224)">R</text><g id="latex"><text class="cls-22" transform="translate(763.42 224)">L<tspan class="cls-27" x="7.31" y="0">a</tspan><tspan class="cls-28" x="14.73" y="0">T</tspan><tspan class="cls-29" x="21.39" y="0">e</tspan><tspan x="28.92" y="0">X</tspan></text></g></g><g id="powered"><text class="cls-10" transform="translate(853.79 20.4)"><tspan class="cls-30">P</tspan><tspan x="14.16" y="0">owe</tspan><tspan class="cls-25" x="60.65" y="0">r</tspan><tspan x="70.03" y="0">ed by:</tspan></text><path class="cls-31" d="M1114.16,221.92a12.8,12.8,0,0,1,1.83.06h12.7v5.18h-12a54.47,54.47,0,0,0-8.36.79Z" transform="translate(-174 -173.36)"/><path class="cls-32" d="M1097.42,232.89c.36.47.36.49.73,1,6.57,9.24,15.62,8.33,16,8.29v5.18a3,3,0,0,1-.91,0c-3.58,0-12.59-1-19.33-10.5l-.37-.52Z" transform="translate(-174 -173.36)"/><path class="cls-33" d="M1093.36,236.13c-6.34-8.54-11.47-9-11.47-9V222c.77,0,7.48.47,15.17,10.47Z" transform="translate(-174 -173.36)"/><path class="cls-34" d="M1032.05,247.06v-22.8a25.57,25.57,0,0,1,11.55-2.76c3.51,0,6.26.92,8.23,2.75a10,10,0,0,1,3,7.69v15.12h-6.06V231.43a6.67,6.67,0,0,0-.18-1.69,4.32,4.32,0,0,0-.74-1.42,3.32,3.32,0,0,0-1.81-1.1,11.53,11.53,0,0,0-3.22-.37,26,26,0,0,0-4.68.44v19.77Z" transform="translate(-174 -173.36)"/><path class="cls-34" d="M1058.74,234.75q0-6.06,2.69-9.68t8.56-3.61c3.69,0,6.49,1.17,8.38,3.52a13.3,13.3,0,0,1,2.85,8.66c0,1.41,0,2.46-.1,3.13h-16.33q.26,3.27,2,4.38a8,8,0,0,0,4.45,1.11,26,26,0,0,0,8.57-1l0,5.13c-1.93.9-6,1.06-9.51,1.06a17.6,17.6,0,0,1-3.15-.27,10.57,10.57,0,0,1-3.06-1.14,9.55,9.55,0,0,1-2.73-2.19,10.37,10.37,0,0,1-1.87-3.68A18.25,18.25,0,0,1,1058.74,234.75Zm6-2.17h10.15a8.79,8.79,0,0,0-1.54-4.37,4.15,4.15,0,0,0-3.56-1.78,4.42,4.42,0,0,0-3.53,1.45A8.07,8.07,0,0,0,1064.79,232.58Z" transform="translate(-174 -173.36)"/><rect class="cls-34" x="942.67" y="41.08" width="6.06" height="5.74"/><path class="cls-34" d="M1123.41,241.69a2.76,2.76,0,0,1-.68-2.19V229h-6.06v10.11a8.45,8.45,0,0,0,2.14,6.11,7.8,7.8,0,0,0,5.89,2.22h.12a10,10,0,0,0,3.87-.74v-5a7.25,7.25,0,0,1-2.88.54A3.8,3.8,0,0,1,1123.41,241.69Z" transform="translate(-174 -173.36)"/><path d="M1132.8,227.09V221.9h4.28q.06-10.52,9.39-10.51a12.37,12.37,0,0,1,2.46.25v4.82a12.78,12.78,0,0,0-1.36-.1,4.41,4.41,0,0,0-3.39,1.13c-.69.76-1,2.23-1,4.41h5.79v5.19h-5.79v20h-6.06v-20Z" transform="translate(-174 -173.36)"/><path d="M1153.88,247.06V212.32h6v34.74Z" transform="translate(-174 -173.36)"/><path d="M1169.68,244.11q-3.08-3.35-3.07-9.61c0-4.16,1-7.37,3.07-9.6s5-3.35,8.83-3.35,6.78,1.12,8.83,3.35,3.08,5.44,3.08,9.6-1,7.38-3.08,9.61-5,3.35-8.83,3.35S1171.74,246.34,1169.68,244.11Zm4.42-15.93q-1.44,1.65-1.44,6.34t1.44,6.32a6.76,6.76,0,0,0,8.83,0q1.42-1.64,1.43-6.32t-1.43-6.34a6.73,6.73,0,0,0-8.83,0Z" transform="translate(-174 -173.36)"/><path d="M1193.79,221.9h6.4l5.34,18.14,4.8-18.14h5.2l4.78,18.14,5.34-18.14h6.4l-8.91,25.16h-6.06l-4.14-14.48-4.18,14.48h-6.06Z" transform="translate(-174 -173.36)"/><path class="cls-35" d="M1085,239.3a25,25,0,0,1-12.43,2.9l-.4,5.17c.08,0,.47,0,1.09,0a31.06,31.06,0,0,0,12.8-2.87Z" transform="translate(-174 -173.36)"/><path class="cls-34" d="M1116,222a17.38,17.38,0,0,0-2.8,0h0c-4.15.31-11.88,2.09-19.08,10.24a29.77,29.77,0,0,1-10.15,7.57c-4.45,5.14-11.8,7.58-11.8,7.58s.47,0,1.09,0A33.58,33.58,0,0,0,1098,235.65c6-6.77,8.49-7.27,12-8.11a48.38,48.38,0,0,1,7.33-2.92,79.15,79.15,0,0,1,11.42-2.64Z" transform="translate(-174 -173.36)"/><rect class="cls-36" x="890.75" y="98.87" width="7.8" height="7.09"/><rect class="cls-36" x="872.31" y="98.87" width="7.8" height="7.09"/><rect class="cls-36" x="863.09" y="98.87" width="7.8" height="7.09"/><rect class="cls-36" x="881.53" y="98.87" width="7.8" height="7.09"/><rect class="cls-36" x="899.96" y="98.87" width="7.8" height="7.09"/><rect class="cls-36" x="872.31" y="90.37" width="7.8" height="7.09"/><rect class="cls-36" x="881.53" y="90.37" width="7.8" height="7.09"/><rect class="cls-36" x="890.75" y="90.37" width="7.8" height="7.09"/><rect class="cls-36" x="890.75" y="81.86" width="7.8" height="7.09"/><path class="cls-36" d="M1105,274.42c-1.61-1.07-5.81-1.53-8.87-.71-.16-3-1.74-5.61-4.61-7.85l-1.06-.72-.71,1.07a12.25,12.25,0,0,0-1.77,7.5,8.88,8.88,0,0,0,1.77,4.64,11.63,11.63,0,0,1-6.74,1.78h-50.7c-.9,5.36.64,25.7,24.11,25.7,17.42,0,31.74-7.83,38.29-24.27,2.16,0,7.85.39,10.64-5,.07-.09.71-1.42.71-1.42Z" transform="translate(-174 -173.36)"/><path id="Fill-21" class="cls-8" d="M1051,296.17a44.47,44.47,0,0,1-13.31,2.24c4.34,3.61,12.07,10.44,24.82,6.54A19.79,19.79,0,0,1,1051,296.17Z" transform="translate(-174 -173.36)"/><path id="Shape" class="cls-37" d="M1050.4,294.92a19,19,0,0,1-9.43,2.48,19.17,19.17,0,0,1-5-.66l1,1.7a21,21,0,0,0,4,.39,20.53,20.53,0,0,0,10.12-2.66C1050.84,295.76,1050.61,295.35,1050.4,294.92Z" transform="translate(-174 -173.36)"/><ellipse id="Oval" class="cls-8" cx="881.79" cy="118.15" rx="2.47" ry="2.48"/><path class="cls-38" d="M1056.17,290.81a.72.72,0,0,1,.27-.55,1.38,1.38,0,0,0-.64-.16,1.42,1.42,0,1,0,1.41,1.42s0-.06,0-.08a.74.74,0,0,1-.33.09A.71.71,0,0,1,1056.17,290.81Z" transform="translate(-174 -173.36)"/><path id="Shape-2" data-name="Shape" class="cls-39" d="M1104.79,274.3c-1.59-1.07-6-1.58-8.87-.73l-.65.92c-9.5,19.67-21.4,28-37.64,28.35-17.72,0-22.15-9.39-23.4-22.13h-2.84c-.36,5.35,1,25,24.65,25,17.44,0,31.8-7.81,38.43-24.23,2.17,0,8.19,0,10.85-5.36l.54-1.14Z" transform="translate(-174 -173.36)"/><rect class="cls-37" x="864.51" y="100.29" width="0.71" height="4.25"/><rect class="cls-37" x="866.64" y="100.29" width="0.71" height="4.25"/><rect class="cls-37" x="868.76" y="100.29" width="0.71" height="4.25"/><rect class="cls-37" x="873.73" y="100.29" width="0.71" height="4.25"/><rect class="cls-37" x="875.85" y="100.29" width="0.71" height="4.25"/><rect class="cls-37" x="877.98" y="100.29" width="0.71" height="4.25"/><rect class="cls-37" x="882.95" y="100.29" width="0.71" height="4.25"/><rect class="cls-37" x="885.07" y="100.29" width="0.71" height="4.25"/><rect class="cls-37" x="887.2" y="100.29" width="0.71" height="4.25"/><rect class="cls-37" x="892.16" y="100.29" width="0.71" height="4.25"/><rect class="cls-37" x="894.29" y="100.29" width="0.71" height="4.25"/><rect class="cls-37" x="896.42" y="100.29" width="0.71" height="4.25"/><rect class="cls-37" x="901.38" y="100.29" width="0.71" height="4.25"/><rect class="cls-37" x="903.51" y="100.29" width="0.71" height="4.25"/><rect class="cls-37" x="905.64" y="100.29" width="0.71" height="4.25"/><rect class="cls-37" x="875.85" y="91.78" width="0.71" height="4.25"/><rect class="cls-37" x="877.98" y="91.78" width="0.71" height="4.25"/><rect class="cls-37" x="882.95" y="91.78" width="0.71" height="4.25"/><rect class="cls-37" x="885.07" y="91.78" width="0.71" height="4.25"/><rect class="cls-37" x="887.2" y="91.78" width="0.71" height="4.25"/><rect class="cls-37" x="892.16" y="91.78" width="0.71" height="4.25"/><rect class="cls-37" x="894.29" y="91.78" width="0.71" height="4.25"/><rect class="cls-37" x="896.42" y="91.78" width="0.71" height="4.25"/><rect class="cls-37" x="894.29" y="83.27" width="0.71" height="4.25"/><rect class="cls-37" x="892.16" y="83.27" width="0.71" height="4.25"/><rect class="cls-37" x="896.42" y="83.27" width="0.71" height="4.25"/><rect class="cls-37" x="873.73" y="91.78" width="0.71" height="4.25"/><path class="cls-37" d="M1096.51,272.72c-.39-2.86-2-5.35-4.82-7.55L1090,264l-1.1,1.67a12.92,12.92,0,0,0-1.89,8,10.08,10.08,0,0,0,1.47,4.39,11.7,11.7,0,0,1-5.31,1.25v-8.48H1074v-17h-10.63v8.51h-18.44v8.51h-9.22v8.49h-4.2l-.1.59a22.28,22.28,0,0,0,.08,6.5,25.81,25.81,0,0,0,2.91,8.83c3.94,7.06,11.08,11.21,21.81,11.21,18.27,0,32.25-8.44,38.77-24.26a14.69,14.69,0,0,0,5.44-.71,9.35,9.35,0,0,0,5.34-4.66c.07-.11.17-.32.38-.75l.24-.5c0-.06.06-.11.11-.22l.27-.56-1.58-1.06C1103.44,272.57,1099.55,272.14,1096.51,272.72Zm-14.75-.49v7.08H1074v-7.08Zm-17-17h7.8v7.09h-7.8Zm0,8.5h7.8v7.1h-7.8Zm0,15.59v-7.08h7.8v7.08Zm-9.22-15.59h7.8v7.1h-7.8Zm0,8.51h7.8v7.08h-7.8Zm-9.22-8.51h7.8v7.1h-7.8Zm0,15.59v-7.08h7.8v7.08Zm-9.22-7.08h7.8v7.08h-7.8Zm67.73,3.22-.22.44-.13.23a7.89,7.89,0,0,1-4.56,4,13.32,13.32,0,0,1-5.06.63H1094l-.18.46c-6.21,15.55-19.75,23.82-37.64,23.82-10.22,0-16.89-3.87-20.57-10.48a24.49,24.49,0,0,1-2.75-8.33,23,23,0,0,1-.17-5.46h50.5a12,12,0,0,0,6.75-1.93l.59-.45-.47-.57a8.14,8.14,0,0,1-1.62-4.25,11.48,11.48,0,0,1,1.66-7l.32-.48.45.31c2.75,2.15,4.17,4.54,4.32,7.31l0,.88.85-.23c2.76-.74,6.8-.38,8.28.62l.55.36C1104.88,275.33,1104.85,275.38,1104.82,275.45Z" transform="translate(-174 -173.36)"/><path class="cls-37" d="M1237.23,279.8a3.74,3.74,0,0,0-1.34-.82,7.91,7.91,0,0,0-1.77-.41,14.81,14.81,0,0,0-1.8-.12,10.28,10.28,0,0,0-3.58.62,10.83,10.83,0,0,0-3.11,1.77v-.39a2,2,0,1,0-4,0V298a1.92,1.92,0,0,0,.58,1.41,1.89,1.89,0,0,0,1.42.59,1.87,1.87,0,0,0,1.4-.59,1.92,1.92,0,0,0,.58-1.41v-8.77a6.82,6.82,0,0,1,.52-2.63,6.66,6.66,0,0,1,3.56-3.59,6.51,6.51,0,0,1,2.61-.53,6.87,6.87,0,0,1,2.6.48,2.18,2.18,0,0,0,.84.22,2,2,0,0,0,.78-.16,1.86,1.86,0,0,0,.63-.43,2.23,2.23,0,0,0,.43-.65,2,2,0,0,0-.37-2.13Z" transform="translate(-174 -173.36)"/><path class="cls-37" d="M1216.34,281.61a10.72,10.72,0,0,0-15.09,15.23,10.61,10.61,0,0,0,14.51.54,2,2,0,0,0,.58-1.45,1.94,1.94,0,0,0-.57-1.43,1.88,1.88,0,0,0-1.41-.57,2.12,2.12,0,0,0-1.32.5,6.25,6.25,0,0,1-1.94,1.16,6.82,6.82,0,0,1-2.31.38,6.58,6.58,0,0,1-2.12-.34,6.81,6.81,0,0,1-1.87-1,6.71,6.71,0,0,1-1.47-1.49,6.49,6.49,0,0,1-.95-1.94h15.08a2,2,0,0,0,1.42-.56,1.92,1.92,0,0,0,.58-1.44,10.86,10.86,0,0,0-.78-4.14A10.43,10.43,0,0,0,1216.34,281.61Zm-14,5.61a6.16,6.16,0,0,1,.93-1.93,6.79,6.79,0,0,1,1.48-1.5,6.9,6.9,0,0,1,1.89-1,6.62,6.62,0,0,1,2.11-.35,6.53,6.53,0,0,1,2.11.35,6.79,6.79,0,0,1,1.87,1,7,7,0,0,1,1.48,1.5,6.23,6.23,0,0,1,1,1.93Z" transform="translate(-174 -173.36)"/><path class="cls-37" d="M1151.64,281.61a10.67,10.67,0,0,0-18.21,7.61,10.43,10.43,0,0,0,3.12,7.62,10.61,10.61,0,0,0,15.09,0,10.37,10.37,0,0,0,3.12-7.62,11.2,11.2,0,0,0-.79-4.13A10.49,10.49,0,0,0,1151.64,281.61Zm-1.38,10.22a7,7,0,0,1-1.43,2.14,6.62,6.62,0,0,1-2.13,1.46,6.34,6.34,0,0,1-2.6.54,6.41,6.41,0,0,1-2.63-.54,6.71,6.71,0,0,1-2.12-1.45,7,7,0,0,1-1.42-2.14,6.84,6.84,0,0,1,0-5.23,7.06,7.06,0,0,1,1.42-2.15,6.71,6.71,0,0,1,2.12-1.45,6.41,6.41,0,0,1,2.63-.54,6.34,6.34,0,0,1,2.6.54,6.78,6.78,0,0,1,2.13,1.46,7,7,0,0,1,1.43,2.15,6.79,6.79,0,0,1,0,5.21Z" transform="translate(-174 -173.36)"/><path class="cls-37" d="M1162.91,284.44a6.89,6.89,0,0,1,2.14-1.44,6.51,6.51,0,0,1,2.61-.53,6.1,6.1,0,0,1,2.32.43,7.11,7.11,0,0,1,2,1.25,2,2,0,0,0,1.29.46,1.88,1.88,0,0,0,1.42-.58,1.94,1.94,0,0,0,.56-1.44,2,2,0,0,0-.68-1.52,10.14,10.14,0,0,0-6.95-2.62,10.27,10.27,0,0,0-7.55,3.16,10.85,10.85,0,0,0,0,15.23,10.59,10.59,0,0,0,14.5.54,2.05,2.05,0,0,0,.63-1.48,2,2,0,0,0-.57-1.44,1.88,1.88,0,0,0-1.42-.56,2.07,2.07,0,0,0-1.25.42,7.07,7.07,0,0,1-2,1.24,6.5,6.5,0,0,1-2.32.41,6.35,6.35,0,0,1-2.61-.53,6.72,6.72,0,0,1-2.14-1.44,6.54,6.54,0,0,1-1.43-2.14,6.82,6.82,0,0,1,0-5.27A6.58,6.58,0,0,1,1162.91,284.44Z" transform="translate(-174 -173.36)"/><path class="cls-37" d="M1129.16,269.22a1.92,1.92,0,0,0-1.42.57,2,2,0,0,0-.56,1.43v9.6a10.59,10.59,0,0,0-14.22.79,10.83,10.83,0,0,0,0,15.23,10.6,10.6,0,0,0,15.08,0,10.37,10.37,0,0,0,3.12-7.62v-18a1.91,1.91,0,0,0-.58-1.43A1.94,1.94,0,0,0,1129.16,269.22Zm-2.5,22.61a7,7,0,0,1-1.43,2.14,6.69,6.69,0,0,1-2.12,1.46,6.63,6.63,0,0,1-5.24,0,6.67,6.67,0,0,1-2.11-1.45,6.84,6.84,0,0,1-1.42-2.14,6.72,6.72,0,0,1,0-5.23,6.88,6.88,0,0,1,1.42-2.15,6.67,6.67,0,0,1,2.11-1.45,6.63,6.63,0,0,1,5.24,0,6.86,6.86,0,0,1,2.12,1.46,7,7,0,0,1,1.43,2.15,6.79,6.79,0,0,1,0,5.21Z" transform="translate(-174 -173.36)"/><path class="cls-37" d="M1196,280.45a1.88,1.88,0,0,0-.17-.77,2.29,2.29,0,0,0-.42-.64,1.81,1.81,0,0,0-.63-.43,2,2,0,0,0-.78-.16,2,2,0,0,0-1.07.31l-11.39,7.48v-15a2,2,0,0,0-.58-1.43,1.9,1.9,0,0,0-1.4-.59,2,2,0,0,0-2,2V298a1.94,1.94,0,0,0,.58,1.42,1.9,1.9,0,0,0,1.42.6,1.88,1.88,0,0,0,1.4-.6,1.94,1.94,0,0,0,.58-1.42V291l2.32-1.54,8.8,10a1.83,1.83,0,0,0,1.34.52,1.88,1.88,0,0,0,1.41-.59,2.15,2.15,0,0,0,.42-.64,1.84,1.84,0,0,0,.17-.77,2,2,0,0,0-.56-1.4l-8.19-9.31,8-5.23A1.81,1.81,0,0,0,1196,280.45Z" transform="translate(-174 -173.36)"/><path class="cls-37" d="M1232.65,298.39a1.44,1.44,0,1,1-1.43-1.4A1.41,1.41,0,0,1,1232.65,298.39Zm-2.51,0a1.08,1.08,0,0,0,1.09,1.11,1.06,1.06,0,0,0,1.06-1.1,1.08,1.08,0,1,0-2.15,0Zm.86.73h-.33v-1.39a2.47,2.47,0,0,1,.54-.05.84.84,0,0,1,.48.11.36.36,0,0,1,.14.3.36.36,0,0,1-.29.32v0a.39.39,0,0,1,.25.34,1.06,1.06,0,0,0,.11.35h-.35a1.2,1.2,0,0,1-.11-.34c0-.15-.11-.22-.29-.22H1231Zm0-.79h.16c.18,0,.32-.06.32-.2s-.09-.22-.3-.22l-.18,0Z" transform="translate(-174 -173.36)"/><path class="cls-40" d="M1071.45,326.19" transform="translate(-174 -173.36)"/></g></svg>