<svg xmlns="http://www.w3.org/2000/svg" viewBox="0 0 855 581.64"><defs><style>.cls-1{opacity:0.7;}.cls-2{fill:red;}.cls-3{fill:indigo;}.cls-4{fill:#ff7f00;}.cls-5{fill:#ff0;}.cls-6{fill:lime;}.cls-7{fill:blue;}.cls-21,.cls-8{font-size:16px;}.cls-13,.cls-8{fill:#fff;}.cls-14,.cls-21,.cls-8{font-family:Quicksand-Medium, Quicksand;}.cls-9{letter-spacing:0.01em;}.cls-10{letter-spacing:-0.02em;}.cls-11{letter-spacing:0em;}.cls-12{fill:#333;}.cls-14{font-size:24px;}.cls-15{letter-spacing:-0.01em;}.cls-16{letter-spacing:0em;}.cls-17{letter-spacing:0em;}.cls-18{letter-spacing:0em;}.cls-19{letter-spacing:-0.01em;}.cls-20{letter-spacing:-0.02em;}.cls-22{letter-spacing:-0.02em;}.cls-23{letter-spacing:-0.1em;}.cls-24{letter-spacing:0em;}.cls-25{letter-spacing:-0.01em;}.cls-26{letter-spacing:-0.02em;}</style></defs><title>dag_wms</title><g id="circle8"><g class="cls-1"><circle class="cls-2" cx="340" cy="352.64" r="139"/></g></g><g id="circle9"><g class="cls-1"><circle class="cls-3" cx="553.5" cy="347.14" r="110.5"/></g></g><g id="circle2"><g class="cls-1"><circle class="cls-4" cx="77" cy="248.64" r="77"/></g><g class="cls-1"><circle class="cls-4" cx="154" cy="250.64" r="40"/></g><g class="cls-1"><circle class="cls-4" cx="208" cy="250.64" r="35"/></g></g><g id="circle4"><g class="cls-1"><circle class="cls-5" cx="288.5" cy="171.14" r="87.5"/></g></g><g id="circle5"><g class="cls-1"><circle class="cls-6" cx="451" cy="159.64" r="96"/></g></g><g id="circle6"><g class="cls-1"><circle class="cls-7" cx="603.5" cy="160.14" r="75.5"/></g></g><g id="circle10"><g class="cls-1"><ellipse class="cls-7" cx="730" cy="347.64" rx="85" ry="81"/></g><text class="cls-8" transform="translate(688.72 359.48)"><tspan class="cls-9">D</tspan><tspan x="11.6" y="0">ownst</tspan><tspan class="cls-10" x="56.61" y="0">r</tspan><tspan class="cls-11" x="62.86" y="0">e</tspan><tspan x="72.05" y="0">am</tspan><tspan x="2.22" y="19.2">Applications</tspan></text></g><g id="circle7"><g class="cls-1"><circle class="cls-3" cx="739.5" cy="160.14" r="75.5"/></g></g><g id="bar"><path class="cls-12" d="M1039,501c-133-.08-268.14-16.3-398.88-32s-266-31.93-399.12-32V407c133,.08,268.14,16.3,398.88,32s266,31.93,399.12,32Z" transform="translate(-225 -170.36)"/><path class="cls-13" d="M242,408c132.57.16,267.37,16.34,397.76,32S905.19,471.84,1038,472v28c-132.57-.16-267.37-16.34-397.76-32S374.81,436.16,242,436V408m-2-2v32c266.67,0,533.33,64,800,64V470c-266.67,0-533.33-64-800-64Z" transform="translate(-225 -170.36)"/><path class="cls-12" d="M241,407c133.07-.08,268.32-16.31,399.12-32S906.05,343.08,1039,343v30c-133.07.08-268.32,16.31-399.12,32S374,436.92,241,437Z" transform="translate(-225 -170.36)"/><path class="cls-13" d="M1038,344v28c-132.81.16-267.73,16.35-398.24,32S374.57,435.84,242,436V408c132.81-.16,267.73-16.35,398.24-32S905.43,344.16,1038,344m2-2c-266.67,0-533.33,64-800,64v32c266.67,0,533.33-64,800-64V342Z" transform="translate(-225 -170.36)"/></g><g id="text"><text class="cls-14" transform="translate(229.75 20.4)">D<tspan class="cls-15" x="17.21" y="0">r</tspan><tspan class="cls-16" x="26.83" y="0">a</tspan><tspan class="cls-17" x="41.57" y="0">f</tspan><tspan class="cls-18" x="51" y="0">t Genomes </tspan><tspan class="cls-19" x="179.61" y="0">R</tspan><tspan x="195.81" y="0">econstruction</tspan></text><text class="cls-14" transform="translate(207.66 546.4)">Quantification / Compa<tspan class="cls-15" x="268.63" y="0">r</tspan><tspan class="cls-16" x="278.25" y="0">ati</tspan><tspan class="cls-19" x="307.56" y="0">v</tspan><tspan x="320.59" y="0">e meta</tspan><tspan class="cls-20" x="400.48" y="0">g</tspan><tspan x="415.05" y="0">enomics</tspan></text><text class="cls-21" transform="translate(65.79 215.48)">QC</text><text class="cls-21" transform="translate(252.88 149.48)">Assemb<tspan class="cls-22" x="59.17" y="0">l</tspan><tspan x="62.98" y="0">y</tspan></text><text class="cls-21" transform="translate(422.99 149.48)">Binning</text><text class="cls-8" transform="translate(563.22 149.48)">Annotation</text><text class="cls-21" transform="translate(299.42 359.48)"><tspan class="cls-23">T</tspan><tspan x="8.27" y="0">a</tspan><tspan class="cls-19" x="18.1" y="0">x</tspan><tspan x="25.79" y="0">onomic</tspan><tspan x="-9.29" y="19.2">Classification</tspan></text><text class="cls-8" transform="translate(510.46 359.48)">Diffe<tspan class="cls-10" x="36.7" y="0">r</tspan><tspan class="cls-24" x="42.96" y="0">ential</tspan><tspan x="0.16" y="19.2">abundance</tspan></text><text class="cls-8" transform="translate(699.46 149.48)">P<tspan class="cls-19" x="9.6" y="0">h</tspan><tspan x="18.78" y="0">y</tspan><tspan class="cls-25" x="28.05" y="0">l</tspan><tspan x="31.94" y="0">o</tspan><tspan class="cls-26" x="41.63" y="0">g</tspan><tspan x="51.34" y="0">e</tspan><tspan class="cls-19" x="60.46" y="0">n</tspan><tspan x="69.81" y="0">y</tspan></text></g></svg>